<?xml version="1.0" standalone="no"?>
<!DOCTYPE svg PUBLIC "-//W3C//DTD SVG 20010904//EN"
 "http://www.w3.org/TR/2001/REC-SVG-20010904/DTD/svg10.dtd">
<svg version="1.0" xmlns="http://www.w3.org/2000/svg"
 width="1280.000000pt" height="800.000000pt" viewBox="0 0 1280.000000 800.000000"
 preserveAspectRatio="xMidYMid meet">

<g transform="translate(0.000000,800.000000) scale(0.100000,-0.100000)"
fill="#000000" stroke="none">
<path d="M0 4000 l0 -4000 4950 0 4951 0 -17 32 c-14 28 -16 52 -10 163 12
252 18 296 32 284 8 -6 14 -17 14 -24 0 -8 11 -22 25 -33 17 -14 21 -22 13
-25 -10 -4 -8 -9 5 -20 9 -8 17 -22 17 -31 0 -9 5 -16 10 -16 6 0 10 -11 10
-24 0 -13 4 -26 8 -28 17 -7 52 -67 46 -81 -3 -8 -1 -18 5 -22 6 -3 20 -26 31
-51 11 -24 25 -44 30 -44 6 0 10 -8 10 -18 0 -11 8 -29 19 -40 l18 -22 1317 0
1316 0 0 4000 0 4000 -205 0 -205 0 0 -40 0 -40 -40 0 -40 0 0 40 c0 29 -4 40
-15 40 -11 0 -15 -11 -15 -40 l0 -40 -51 0 c-28 0 -60 -6 -72 -12 -20 -12 -14
-14 48 -18 l70 -5 -1 -75 c-2 -209 -11 -448 -18 -459 -6 -9 -39 -12 -125 -11
-117 2 -372 -9 -380 -16 -13 -12 26 -14 225 -14 120 0 230 0 244 0 13 0 28 -4
33 -9 6 -6 7 -50 3 -103 -13 -203 -13 -308 0 -308 16 0 23 61 26 253 3 175 4
177 71 177 l37 0 0 -250 0 -250 -242 0 c-134 0 -450 -3 -703 -6 -253 -4 -712
-9 -1020 -13 l-560 -6 -3 -229 -2 -229 347 6 c192 4 609 9 928 12 319 3 732 8
918 11 l337 6 0 -2003 0 -2002 -562 7 c-309 3 -566 10 -571 15 -12 12 -59 200
-52 211 3 5 22 19 43 30 39 23 115 109 144 163 10 18 40 91 69 162 78 199 79
202 142 325 69 137 85 156 141 164 46 7 41 3 232 204 97 102 173 214 176 256
3 68 -5 123 -23 154 -10 18 -19 39 -19 46 0 7 -6 13 -13 13 -47 0 -85 64 -70
120 4 18 2 24 -6 19 -6 -4 -11 -1 -11 7 0 8 -13 41 -30 72 -16 31 -30 64 -30
73 0 8 -14 36 -30 62 -17 26 -40 76 -53 113 -13 36 -28 71 -34 79 -6 7 -13 30
-17 51 -5 24 -12 37 -23 37 -10 0 -13 6 -9 16 4 9 0 24 -7 33 -8 9 -17 28 -20
42 -9 34 -72 98 -116 116 -20 8 -43 21 -51 28 -8 7 -26 13 -40 13 -14 0 -52 7
-85 16 -41 11 -109 17 -212 18 -83 1 -150 4 -148 8 2 3 -22 3 -53 0 -32 -3
-120 -2 -197 3 -95 5 -147 4 -160 -3 -14 -8 -34 -8 -63 -2 -24 6 -42 6 -42 1
0 -5 -7 -9 -15 -9 -8 0 -15 4 -15 8 0 12 -143 13 -151 1 -4 -6 -15 -6 -34 1
-16 6 -36 8 -44 5 -9 -4 -54 -8 -100 -11 -47 -3 -87 -6 -89 -8 -2 -2 -7 -75
-13 -162 -8 -135 -7 -160 6 -174 19 -21 19 -77 0 -113 -8 -15 -17 -47 -20 -71
l-5 -42 53 -22 c29 -12 62 -22 74 -22 11 0 31 -8 44 -19 18 -14 21 -22 12 -32
-6 -8 -13 -25 -15 -39 -3 -24 -6 -25 -84 -28 l-81 -3 -7 -172 c-3 -95 -9 -227
-12 -293 l-7 -122 29 -15 c16 -9 42 -21 57 -28 38 -15 29 -34 -16 -34 -20 0
-36 -4 -35 -10 1 -5 -2 -18 -5 -27 -4 -10 -9 -25 -12 -33 -5 -17 -42 -20 -80
-5 -21 8 -26 16 -25 38 4 60 2 64 -22 48 -13 -7 -45 -14 -71 -14 -60 0 -67 -7
-39 -34 12 -12 25 -18 29 -14 5 5 2 11 -4 13 -22 8 -14 23 11 23 27 0 42 -15
26 -25 -5 -3 -7 -19 -3 -35 4 -21 2 -30 -8 -31 -8 -1 -21 -3 -29 -4 -8 0 -23
-5 -34 -10 -12 -5 -21 -3 -27 6 -7 10 -9 5 -7 -16 2 -24 8 -31 30 -33 18 -2
33 4 45 17 17 20 63 30 63 13 0 -4 10 -12 23 -17 29 -13 28 -37 -3 -46 -14 -4
-22 -7 -18 -8 15 -2 -27 -41 -44 -41 -10 0 -18 -7 -18 -15 0 -8 6 -15 13 -15
8 0 31 -17 52 -37 40 -38 129 -97 167 -109 48 -15 113 -61 116 -82 4 -27 -6
-28 -24 -4 -13 16 -14 16 -8 0 6 -16 3 -17 -27 -4 -25 10 -77 12 -199 10 -91
-2 -167 -4 -170 -4 -22 -4 -294 1 -298 5 -3 3 -3 8 1 11 5 5 171 19 322 27
l50 2 0 50 c0 53 3 55 53 39 23 -6 28 2 14 23 -9 14 -59 19 -84 8 -14 -5 -18
-2 -18 15 0 11 -4 18 -10 15 -5 -3 -10 -21 -10 -40 0 -26 -5 -35 -21 -40 -30
-10 -40 10 -36 68 2 31 0 46 -7 44 -6 -2 -11 -10 -12 -18 -2 -34 -5 -39 -18
-39 -8 0 -17 8 -20 18 -5 14 -24 21 -79 30 -39 6 -94 16 -122 21 -27 5 -88 14
-133 21 -156 21 -134 29 91 29 182 1 222 -2 242 -15 32 -21 70 -15 70 11 0 15
-7 20 -27 20 -14 0 -29 3 -33 7 -4 4 -380 4 -837 1 l-829 -6 -6 22 c-5 19 -12
21 -73 21 -50 0 -69 -4 -73 -15 -5 -12 -12 -12 -39 -3 -18 6 -39 16 -47 22
-23 18 -71 88 -71 103 0 15 3 15 180 -17 58 -10 186 -30 285 -44 99 -14 219
-33 266 -41 50 -9 143 -15 225 -14 148 0 157 12 18 24 -43 4 -104 13 -134 20
-30 8 -111 19 -180 25 -69 6 -137 13 -153 16 -15 3 -42 7 -60 9 -17 2 -63 7
-100 11 -103 11 -80 29 39 30 113 0 129 3 94 14 -18 6 -5 8 45 9 68 0 69 0 40
-14 l-30 -15 39 6 c48 7 203 17 271 18 42 1 50 -2 49 -16 -1 -10 4 -18 12 -18
8 0 14 9 14 21 0 20 4 20 248 18 302 -2 342 -5 342 -30 0 -28 48 -48 89 -37
28 8 32 13 28 34 -4 23 -2 24 54 24 46 0 59 3 59 15 0 8 -9 15 -19 15 -11 0
-33 12 -50 26 -17 14 -31 21 -31 15 0 -5 5 -13 10 -16 6 -3 10 -10 10 -16 0
-11 -53 -12 -66 0 -10 9 -79 33 -104 37 -8 1 -23 5 -32 9 -11 4 -18 3 -18 -4
0 -6 -8 -11 -17 -11 -14 0 -15 -2 -4 -9 21 -13 -40 -19 -148 -13 -70 4 -89 7
-72 14 45 16 13 20 -41 5 -67 -20 -392 -24 -431 -6 -22 10 -25 17 -22 53 2 47
-12 87 -25 66 -10 -16 -67 -24 -75 -11 -8 13 -271 14 -295 1 -19 -10 -29 -59
-12 -60 4 -1 27 -5 52 -10 48 -9 140 6 140 23 0 5 -11 7 -25 5 -14 -3 -28 -2
-30 2 -3 5 -14 6 -24 3 -10 -3 -22 0 -25 6 -5 7 5 12 26 13 51 2 82 -3 89 -13
4 -6 21 -8 44 -3 42 8 55 -3 55 -47 0 -26 -3 -27 -75 -36 -44 -5 -109 -6 -156
-1 -68 8 -84 6 -98 -6 -18 -17 -62 -21 -75 -9 -4 5 -29 8 -54 9 -167 2 -172 3
-181 27 -4 12 -11 34 -15 50 l-6 27 89 0 c49 0 93 -4 96 -10 9 -15 45 -12 45
4 0 9 -7 12 -21 9 -14 -4 -25 0 -31 11 -7 13 -25 16 -92 16 -76 0 -84 -2 -93
-22 -5 -13 -6 -41 -2 -63 9 -50 4 -58 -32 -51 -26 5 -29 3 -29 -20 0 -24 -3
-26 -32 -20 -31 5 -32 5 -14 -9 23 -17 48 -19 62 -5 5 5 22 6 39 2 21 -6 36
-22 59 -65 17 -31 41 -64 54 -72 37 -27 25 -35 -53 -35 -41 0 -75 -4 -75 -9 0
-5 -12 -11 -27 -13 -25 -3 -26 -6 -30 -68 -1 -36 -5 -71 -8 -78 -5 -12 -34
-26 -81 -38 l-25 -6 2 101 c2 101 -4 129 -22 101 -6 -11 -11 -12 -17 -3 -4 6
-21 13 -37 15 -18 2 -30 9 -30 18 0 11 -10 14 -40 12 -42 -4 -66 -17 -64 -36
0 -7 2 -6 6 2 2 6 9 10 13 7 13 -8 0 -35 -16 -35 -15 0 -19 -12 -7 -24 13 -13
9 -96 -4 -96 -7 0 -13 -5 -13 -11 0 -7 -10 -9 -24 -5 -19 5 -29 0 -40 -16 -12
-17 -18 -19 -30 -9 -8 7 -16 8 -19 4 -3 -4 6 -16 19 -26 13 -10 24 -13 24 -7
0 18 17 11 23 -10 8 -32 -48 -53 -120 -46 -32 3 -61 5 -64 6 -4 0 -14 12 -24
26 -16 25 -16 26 4 19 29 -9 58 10 56 36 -1 13 -7 25 -13 27 -7 2 -12 13 -12
24 0 15 -5 18 -20 13 -15 -5 -20 -2 -21 12 0 16 -1 16 -10 -2 -7 -15 -8 -12
-4 15 3 18 9 36 13 40 4 3 6 12 6 20 -1 8 -2 26 -3 39 -2 38 -66 88 -129 102
-30 6 -65 9 -78 6 -20 -3 -24 0 -24 19 0 12 -4 26 -10 29 -6 3 -10 15 -10 26
0 10 -4 19 -10 19 -5 0 -10 7 -10 15 0 10 11 15 35 15 l35 0 0 81 c0 44 -3 79
-7 77 -40 -21 -86 -38 -90 -35 -2 3 -25 -15 -51 -40 -26 -24 -66 -53 -90 -63
-45 -21 -58 -42 -64 -106 -2 -33 0 -39 17 -39 18 0 20 7 20 63 0 65 2 67 50
64 15 -2 16 0 7 7 -11 6 -10 10 4 15 11 4 21 1 26 -9 6 -9 23 -15 48 -15 38 0
39 -1 54 -54 25 -84 27 -82 -71 -94 -227 -30 -258 -32 -261 -22 -3 7 -12 4
-23 -6 -10 -9 -19 -12 -19 -7 0 6 -35 11 -87 12 -47 1 -90 4 -95 7 -7 5 -4 54
8 113 5 22 4 22 -12 6 -9 -9 -26 -14 -36 -12 -14 4 -18 1 -14 -9 3 -8 1 -14
-4 -14 -6 0 -5 -8 2 -19 7 -11 16 -17 21 -14 5 3 7 -8 5 -23 -4 -34 -47 -49
-49 -17 -2 31 -20 -58 -27 -132 l-7 -69 -142 -1 c-79 0 -143 -3 -143 -7 0 -9
-334 -3 -350 7 -10 6 -9 9 1 15 7 5 -17 10 -54 12 -59 3 -66 1 -64 -16 2 -14
-6 -19 -33 -22 -19 -3 -46 0 -60 6 -19 8 -36 7 -67 -4 -23 -8 -43 -12 -46 -9
-10 9 -62 11 -84 2 -13 -5 -23 -5 -23 -1 0 10 -106 16 -310 16 -161 1 -175 0
-174 -16 2 -16 -11 -18 -143 -18 -140 0 -145 1 -169 25 -21 21 -34 25 -88 25
-34 0 -65 -3 -69 -6 -6 -6 -288 -6 -322 1 -11 2 -67 4 -124 4 -57 1 -102 4
-98 7 3 3 126 8 273 10 147 2 269 6 272 9 3 3 -84 6 -194 6 -338 2 -416 6
-425 21 -7 10 -9 10 -9 -3 0 -24 -43 -40 -66 -25 -11 7 -30 16 -44 19 -24 6
-24 5 -6 -8 18 -14 16 -15 -25 -15 -24 0 -61 3 -81 6 -33 6 -38 10 -37 33 0
21 20 40 111 106 141 103 140 102 133 135 -3 16 -2 31 4 35 6 3 11 -2 12 -12
0 -10 3 -13 6 -5 2 6 12 12 20 12 12 0 14 7 8 36 -5 30 -4 36 8 31 16 -6 33
36 22 53 -7 11 -45 -10 -45 -25 0 -13 -62 -55 -82 -55 -23 0 -101 -46 -123
-73 -11 -12 -35 -53 -52 -90 -18 -37 -37 -67 -43 -67 -5 0 -7 -6 -4 -14 6 -16
-23 -66 -37 -66 -5 0 -9 11 -9 25 0 15 6 25 14 25 12 0 13 7 6 31 -6 18 -6 39
-1 48 11 20 18 98 9 106 -3 3 5 54 19 113 13 59 33 147 43 195 11 48 28 118
39 155 11 37 22 90 25 117 5 54 7 57 -31 -63 -18 -58 -29 -70 -46 -53 -6 6
-16 11 -21 11 -6 0 1 -11 16 -25 16 -15 25 -31 22 -40 -8 -19 -23 -19 -30 0
-12 30 -26 15 -20 -21 4 -21 3 -41 -4 -49 -8 -9 -7 -17 5 -28 11 -11 12 -22 6
-39 -9 -22 -10 -22 -17 10 -10 49 -28 54 -21 5 5 -27 2 -46 -8 -60 -13 -19
-13 -23 -1 -36 12 -11 13 -27 6 -75 -4 -33 -13 -68 -18 -78 -5 -11 -13 -36
-16 -58 -4 -21 -12 -50 -18 -65 -5 -14 -12 -48 -14 -76 -3 -27 -11 -59 -19
-72 -8 -12 -15 -29 -15 -38 0 -8 -7 -15 -15 -15 -8 0 -15 5 -15 10 0 6 5 10
10 10 6 0 10 5 10 10 0 6 -9 10 -20 10 -15 0 -20 7 -20 25 0 14 -8 29 -20 35
-11 6 -20 20 -20 30 0 11 -4 20 -10 20 -5 0 -10 -9 -10 -20 0 -11 -4 -20 -10
-20 -5 0 -10 -5 -10 -11 0 -8 5 -7 15 1 9 7 18 10 21 7 9 -8 -15 -47 -29 -47
-8 0 -7 -3 2 -9 10 -7 19 -4 29 7 12 15 13 14 7 -10 -5 -24 -2 -28 17 -28 15
0 19 -3 12 -10 -12 -12 -64 6 -64 21 0 5 -16 11 -35 15 -19 3 -37 10 -40 14
-2 4 -16 5 -30 2 -19 -3 -25 0 -25 13 0 13 6 15 30 10 23 -5 30 -3 30 9 0 10
-9 16 -25 16 -14 0 -28 7 -31 15 -4 8 -12 15 -20 15 -8 0 -23 5 -34 12 -33 21
-34 0 -1 -33 41 -40 32 -49 -16 -17 -21 14 -45 28 -53 30 -27 8 56 40 87 34
35 -7 66 8 36 18 -11 4 -27 4 -36 0 -9 -3 -23 3 -34 15 -21 26 -41 27 -59 4
-8 -11 -13 -13 -14 -6 0 7 8 22 17 33 16 18 19 18 41 4 29 -19 34 -15 37 31 2
29 -2 35 -18 35 -13 0 -17 -5 -13 -15 4 -11 -1 -15 -17 -15 -13 0 -28 -5 -35
-12 -9 -9 -15 -9 -24 0 -9 9 -7 17 10 35 12 13 19 27 15 30 -15 16 -32 4 -54
-38 -13 -25 -27 -45 -31 -45 -3 0 -9 13 -13 29 -4 20 -11 28 -21 24 -17 -6
-18 1 -1 27 10 17 9 22 -3 30 -8 5 -11 12 -8 16 10 9 38 -21 38 -40 0 -9 5
-16 11 -16 6 0 9 12 7 27 -2 21 -10 29 -35 37 -22 6 -33 15 -33 27 0 11 -5 19
-11 19 -7 0 -9 -10 -7 -25 7 -36 -8 -41 -34 -12 -13 13 -39 28 -58 32 l-35 8
28 9 c23 8 26 13 16 24 -9 11 -9 18 -1 26 14 14 35 0 29 -22 -8 -31 7 -40 33
-19 l25 19 -28 25 c-15 13 -34 22 -42 19 -9 -4 -17 1 -20 10 -3 9 -7 24 -10
33 -4 12 -9 13 -17 5 -8 -8 -15 -7 -25 4 -17 16 -43 19 -43 4 0 -5 -7 -10 -15
-10 -8 0 -15 5 -15 11 0 5 -5 7 -11 3 -8 -4 -7 -9 2 -15 7 -4 10 -11 6 -15 -4
-4 -17 2 -30 13 -12 12 -31 23 -42 26 -15 4 -13 5 8 6 26 1 41 31 16 31 -7 0
-9 9 -6 21 5 18 2 20 -16 14 -12 -4 -34 -9 -49 -12 -16 -3 -28 -9 -28 -14 0
-5 -7 -9 -15 -9 -14 0 -17 5 -19 40 -1 8 -12 16 -26 18 -43 5 -78 23 -83 43
-6 22 -27 26 -27 6 0 -19 33 -47 53 -47 9 0 17 -7 17 -16 0 -12 -5 -14 -17 -8
-10 4 -33 8 -51 8 -29 1 -32 4 -27 24 4 15 0 24 -10 28 -8 4 -15 14 -15 25 0
17 -2 17 -35 3 -30 -12 -35 -12 -35 0 0 8 5 16 12 18 7 3 1 18 -18 41 -30 38
-48 48 -38 22 4 -8 -1 -17 -10 -21 -11 -4 -14 -13 -11 -24 3 -11 0 -22 -8 -27
-8 -4 -17 -15 -20 -23 -3 -10 -6 -7 -6 8 -1 14 -6 22 -13 19 -7 -2 -12 -13
-11 -23 1 -10 0 -26 -3 -34 -7 -18 -5 -137 2 -162 3 -12 0 -18 -10 -18 -10 0
-18 18 -26 55 -7 35 -18 59 -30 65 -29 16 -70 95 -70 137 -1 34 -2 36 -14 21
-18 -24 -35 -22 -62 7 -13 14 -27 25 -31 25 -4 1 -20 11 -35 23 -26 22 -27 24
-37 202 -6 99 -13 232 -16 295 -2 63 -7 165 -10 225 -3 61 -12 286 -20 500 -8
215 -20 480 -25 590 -18 365 -22 555 -11 555 5 0 13 -36 17 -80 7 -89 16 -98
80 -85 32 6 34 8 34 48 0 23 -7 89 -15 147 -14 99 -27 231 -27 275 0 32 17
119 22 114 3 -2 16 4 30 14 13 9 33 17 43 17 14 0 18 5 14 20 -3 10 0 21 7 23
6 2 8 8 4 12 -4 4 -44 4 -88 -1 -63 -8 -80 -7 -80 3 0 7 7 13 15 13 17 0 20
16 5 25 -5 3 -10 23 -10 43 l0 37 -17 -35 c-10 -19 -23 -39 -31 -44 -10 -5
-12 -18 -7 -42 4 -26 2 -36 -10 -40 -20 -8 -30 2 -19 18 10 14 10 14 -5 158
-5 52 -15 196 -21 320 -5 124 -12 248 -15 275 -2 28 -5 87 -5 133 0 59 -4 82
-12 82 -10 0 -12 -34 -7 -152 9 -205 27 -850 26 -913 -1 -27 4 -113 10 -190 7
-77 17 -250 23 -385 6 -135 17 -373 25 -530 8 -157 22 -415 30 -575 8 -159 19
-357 25 -440 5 -82 12 -235 15 -340 3 -104 8 -203 10 -220 8 -55 -6 -62 -72
-36 -32 12 -67 27 -78 32 -11 5 -31 8 -45 7 -24 -3 -25 -1 -28 67 -3 81 -21
105 -78 105 -20 0 -34 5 -34 13 0 9 -2 9 -8 0 -5 -8 -25 -10 -65 -6 -49 5 -55
8 -45 20 10 13 8 14 -12 11 -14 -2 -24 -9 -23 -16 2 -6 -5 -12 -14 -12 -9 0
-13 3 -10 7 4 3 -1 12 -11 20 -16 12 -15 14 10 34 35 26 35 46 2 61 -21 10
-27 9 -35 -3 -6 -10 -9 -7 -9 14 0 33 -27 37 -39 5 l-8 -22 -6 24 c-3 13 -5
26 -3 28 2 1 30 5 61 7 92 7 77 15 -31 16 -54 0 -157 2 -229 4 l-130 3 -2 51
c-2 51 -2 51 30 52 18 1 37 0 42 -1 6 -1 37 -1 70 0 33 2 73 3 88 2 15 -1 30
5 33 12 7 18 61 18 68 0 3 -8 19 -14 38 -14 33 1 33 1 9 14 -20 11 -21 14 -6
20 9 3 21 4 25 1 5 -3 15 3 22 14 7 10 25 21 38 23 31 4 39 34 12 42 -11 4
-32 18 -46 33 -14 14 -26 21 -26 14 0 -7 -24 -10 -77 -7 -43 3 -89 5 -103 6
l-25 1 23 18 c12 11 22 24 22 30 0 5 9 16 19 23 13 9 17 19 12 27 -6 9 -11 10
-15 2 -4 -6 -26 -11 -49 -11 -38 0 -42 2 -44 26 -1 18 5 28 18 31 10 3 16 9
14 14 -3 4 -26 0 -50 -9 -46 -17 -59 -32 -28 -32 11 0 14 -3 7 -10 -14 -14
-54 0 -54 19 0 9 10 22 21 30 l22 13 -24 12 c-20 10 -24 20 -27 69 -3 66 -22
69 -22 3 0 -23 -3 -46 -7 -49 -9 -9 -12 -111 -3 -117 4 -3 10 -15 14 -27 6
-19 3 -23 -13 -23 -18 0 -19 8 -22 178 -1 97 -3 250 -4 340 -1 142 0 162 14
162 14 1 14 2 -1 10 -15 9 -16 103 -17 1184 l0 1175 22 4 c12 2 -80 5 -205 6
l-228 1 0 -4000z m12390 3614 l0 -275 -47 3 -48 3 1 95 c1 52 2 164 2 247 2
197 3 203 53 203 l39 0 0 -276z m-26 -907 c16 -11 17 -17 7 -36 -10 -17 -9
-33 3 -75 9 -30 16 -73 16 -95 0 -38 -2 -41 -29 -41 -38 0 -59 25 -43 51 16
25 17 25 -23 25 -34 0 -45 -9 -25 -21 14 -9 12 -42 -3 -48 -7 -3 -69 -5 -137
-6 -89 -1 -126 3 -133 12 -7 9 -10 9 -14 0 -6 -16 -89 -17 -99 -2 -4 8 -9 8
-17 0 -6 -6 -33 -11 -59 -11 -42 0 -48 3 -48 21 0 12 7 27 16 33 10 8 14 23
12 41 l-3 28 -20 -38 c-11 -21 -26 -40 -32 -42 -7 -3 -23 13 -35 34 -21 35
-23 36 -26 14 -2 -13 1 -28 7 -34 6 -6 11 -21 11 -34 0 -21 -4 -23 -50 -23
-56 0 -74 18 -47 48 22 25 28 134 9 148 -18 13 -10 42 13 50 33 13 61 -5 85
-56 21 -45 40 -65 40 -42 0 5 14 30 31 55 25 38 36 47 60 47 34 0 48 -23 31
-51 -17 -27 -15 -134 2 -148 21 -18 35 8 42 78 5 43 3 61 -5 61 -6 0 -11 14
-11 30 0 29 1 30 50 30 32 0 50 -4 50 -12 0 -9 3 -9 12 0 15 15 104 16 114 1
3 -6 -3 -24 -15 -40 -29 -39 -31 -139 -2 -139 10 0 21 7 25 15 7 20 43 19 55
-2 12 -22 12 -21 40 47 12 31 20 71 19 90 -3 34 -2 35 37 41 65 10 70 10 89
-4z m-863 -13 c11 -14 11 -18 -4 -29 -12 -9 -17 -27 -17 -62 0 -80 -11 -143
-26 -143 -13 0 -104 113 -104 130 0 12 -19 14 -21 3 -8 -43 -5 -81 8 -95 25
-28 9 -48 -37 -48 -45 0 -65 24 -38 44 21 15 29 157 10 164 -6 2 -12 12 -12
23 0 15 7 19 33 19 32 -1 47 -16 121 -125 12 -17 14 -15 18 29 2 33 -1 50 -9
53 -22 9 -15 41 10 46 43 8 55 7 68 -9z m-931 -11 c2 -2 -2 -13 -9 -24 -10
-18 -8 -32 14 -94 41 -111 69 -111 79 1 5 57 3 74 -9 84 -16 13 -21 39 -7 41
4 0 21 2 38 4 17 3 39 -1 49 -8 16 -12 16 -15 1 -29 -9 -9 -16 -27 -16 -39 l0
-22 26 23 c17 17 23 31 20 47 -8 29 3 31 150 32 133 1 150 -5 138 -53 -7 -28
-44 -37 -44 -11 0 10 -10 15 -30 15 -20 0 -30 -5 -30 -15 0 -8 -1 -18 -2 -22
-1 -5 11 -10 28 -13 21 -4 29 -11 29 -25 0 -15 -8 -21 -33 -23 -29 -3 -33 -6
-30 -30 4 -35 33 -40 64 -11 29 27 47 16 42 -27 l-3 -29 -122 -2 -122 -2 -32
51 c-30 46 -34 49 -46 32 -17 -23 -16 -29 2 -44 16 -13 21 -39 8 -41 -5 0 -21
-2 -37 -4 -16 -2 -37 0 -47 6 -11 6 -20 5 -24 -1 -9 -15 -61 -12 -75 5 -10 12
-10 18 0 30 18 22 3 35 -41 35 l-40 0 3 -37 3 -38 -88 -2 c-71 -2 -89 0 -94
13 -3 8 -1 20 6 27 6 6 11 29 11 52 l-1 40 -25 -47 c-13 -27 -31 -48 -40 -48
-8 0 -24 21 -37 48 l-21 47 -4 -39 c-2 -21 1 -43 7 -49 6 -6 11 -19 11 -29 0
-15 -8 -18 -45 -18 -50 0 -70 21 -41 43 11 8 18 34 23 80 5 56 3 70 -12 86
-22 25 -12 41 25 41 32 0 36 -4 66 -73 11 -27 24 -48 29 -49 4 0 22 27 39 59
27 50 35 58 64 61 27 3 32 0 32 -17 0 -12 -4 -21 -10 -21 -6 0 -10 -33 -10
-79 0 -65 3 -80 17 -85 9 -4 22 -1 28 6 23 25 63 143 58 170 -5 25 -2 27 33
31 37 3 74 -1 84 -10z m670 -2 c0 -10 -7 -21 -15 -25 -22 -8 -21 -144 1 -160
28 -21 6 -46 -41 -46 -47 0 -68 23 -41 44 20 15 27 157 8 164 -6 2 -12 12 -12
23 0 16 7 19 50 19 42 0 50 -3 50 -19z m869 -2777 c2 -2 -2 -10 -9 -19 -7 -9
-8 -15 -2 -15 6 0 12 6 15 13 2 6 8 9 12 5 4 -4 -4 -23 -19 -42 -14 -19 -26
-41 -26 -48 0 -7 -20 -33 -45 -57 -25 -24 -45 -48 -45 -53 0 -4 -7 -8 -17 -8
-9 0 -14 -3 -11 -6 9 -8 -46 -61 -58 -57 -7 2 -19 -6 -28 -19 -15 -21 -23 -23
-104 -22 -48 1 -129 8 -181 15 l-94 14 -3 34 c-3 19 -9 40 -15 47 -13 16 -5
44 13 44 7 0 22 20 33 45 13 30 26 45 38 45 12 0 17 -5 14 -14 -8 -20 25 -30
35 -11 11 19 45 19 64 0 8 -8 22 -11 31 -8 14 6 14 7 -1 18 -31 23 -13 45 39
45 13 0 27 5 30 10 4 6 11 8 16 5 5 -4 9 -1 9 4 0 6 14 11 30 11 17 0 30 5 30
11 0 7 9 9 21 6 12 -3 30 -1 40 6 13 8 24 8 44 -3 23 -12 28 -12 43 4 13 13
26 15 57 10 22 -3 42 -8 44 -10z m-5163 -425 c32 -33 42 -89 19 -112 -26 -26
-40 -21 -97 36 -29 29 -62 58 -72 64 -13 7 -17 16 -12 28 5 15 16 17 71 13 53
-3 70 -9 91 -29z m-229 -19 c18 -31 28 -37 38 -20 9 15 37 -1 82 -49 46 -51
48 -62 9 -36 -32 21 -34 10 -4 -22 24 -26 13 -31 -19 -8 -20 14 -22 14 -28 -6
-4 -11 -4 -23 -1 -26 3 -4 6 2 6 12 0 16 2 16 19 -3 10 -12 26 -22 35 -22 9 0
16 -8 16 -19 0 -27 17 -36 37 -20 14 12 15 10 8 -21 -4 -19 -9 -37 -11 -39 -2
-2 -26 -4 -53 -5 -33 -1 -52 2 -55 11 -3 7 -13 13 -21 13 -13 0 -15 6 -10 30
5 23 3 30 -9 30 -8 0 -25 -13 -38 -30 -21 -29 -48 -40 -48 -20 0 6 -9 10 -19
10 -11 0 -23 -4 -26 -10 -3 -5 0 -10 8 -10 8 0 20 -6 26 -14 9 -11 8 -15 -4
-20 -9 -3 -14 -10 -11 -15 7 -11 -164 -12 -179 -1 -5 4 -35 7 -66 7 -61 0
-132 19 -124 34 4 5 15 9 26 9 11 0 27 13 38 31 11 17 21 25 23 18 4 -13 7
-13 161 -24 85 -6 97 -5 97 9 0 9 -8 16 -19 16 -10 0 -24 7 -31 15 -7 8 -25
15 -41 15 -15 0 -31 5 -34 10 -3 6 -15 10 -25 10 -10 0 -23 7 -28 15 -11 21
-42 9 -36 -13 3 -9 -2 -6 -10 8 -8 14 -15 19 -16 13 0 -7 -5 -13 -11 -13 -6 0
-9 7 -5 15 3 8 -1 21 -9 29 -13 13 -12 15 7 18 19 2 23 9 23 38 l1 35 144 21
c80 12 150 22 157 23 6 0 20 -12 30 -29z m2368 -65 c82 -14 149 -26 149 -27 1
-2 9 -17 18 -34 13 -24 15 -33 5 -43 -9 -9 -9 -14 3 -21 8 -5 17 -7 21 -5 3 3
18 -6 32 -19 29 -27 64 -41 87 -37 11 2 9 -4 -6 -19 -18 -18 -25 -20 -43 -11
-11 7 -21 16 -21 21 0 6 -13 10 -30 10 -23 0 -30 -4 -30 -20 0 -11 -6 -20 -14
-20 -7 0 -16 9 -19 20 -3 11 -10 20 -16 20 -6 0 -11 -9 -11 -20 0 -13 -6 -20
-17 -19 -11 0 -13 3 -5 6 6 2 12 10 12 18 0 8 -17 13 -56 13 -63 0 -72 5 -54
28 10 11 23 14 47 9 18 -3 33 -2 33 3 0 6 -12 12 -27 15 -16 3 -55 12 -87 21
-33 8 -123 22 -200 31 -188 21 -244 33 -251 57 -4 11 -16 18 -32 18 -23 0 -24
-2 -12 -17 13 -15 11 -16 -23 -10 -24 3 -38 1 -41 -6 -2 -7 -8 -9 -12 -5 -4 4
-2 14 4 22 10 12 7 15 -20 18 -18 2 -34 8 -36 15 -3 9 57 12 250 13 227 0 270
-2 402 -25z m440 -66 c39 -6 86 -12 105 -15 61 -7 85 -15 103 -35 36 -39 -16
-63 -80 -38 -15 6 -71 13 -123 14 -77 2 -104 8 -140 26 -24 13 -38 25 -32 27
26 8 10 18 -25 16 -21 -2 -28 0 -15 2 12 3 22 10 22 15 0 11 51 7 185 -12z
m-8205 -91 c0 -9 4 -18 10 -20 5 -1 -5 -19 -23 -38 l-32 -34 -6 29 -6 30 -8
-32 c-4 -18 -11 -30 -16 -28 -4 3 -14 -4 -22 -16 -17 -24 -32 -10 -22 21 11
35 -21 23 -36 -12 -7 -18 -22 -42 -33 -53 -20 -19 -20 -19 -11 0 4 11 11 50
16 87 9 80 15 94 35 77 11 -9 14 -8 14 5 0 20 24 21 40 1 16 -19 30 -19 30 1
0 8 4 13 9 9 5 -3 12 -1 16 5 9 14 45 -11 45 -32z m1485 30 c66 0 128 2 138 6
25 12 22 -16 -4 -32 -14 -9 -57 -13 -127 -13 -85 0 -113 -4 -142 -19 -19 -10
-160 -80 -312 -154 -152 -75 -280 -141 -284 -147 -7 -12 63 -8 120 6 20 6 27
4 22 -3 -3 -6 -3 -13 2 -16 7 -4 471 -21 532 -20 14 1 53 18 88 39 59 34 92
41 64 13 -7 -7 -12 -22 -12 -35 0 -32 -31 -38 -190 -37 -154 2 -1124 32 -1215
39 -33 2 -68 4 -77 4 -31 1 -20 17 25 36 23 9 83 36 132 59 142 67 165 76 183
76 9 0 42 14 72 30 78 42 234 118 310 151 l65 28 245 -4 c135 -3 299 -6 365
-7z m-1782 -97 c16 -17 20 -37 18 -86 -1 -24 -3 -27 -12 -15 -9 12 -10 12 -5
-3 3 -10 6 -28 6 -39 0 -18 5 -20 48 -15 26 3 62 10 79 16 22 6 35 6 39 0 10
-17 32 -12 -271 -68 -60 -11 -184 -30 -275 -41 -91 -11 -182 -23 -202 -26
l-38 -6 0 61 c0 57 11 84 25 61 10 -17 25 -11 25 10 0 23 18 27 26 5 7 -17
-14 -48 -26 -40 -8 5 -24 -25 -17 -32 3 -2 18 9 36 24 21 18 31 37 31 55 0 25
2 27 19 16 16 -10 25 -7 54 15 19 14 46 28 61 31 15 3 41 12 58 20 23 12 34
13 44 5 8 -7 21 -8 31 -3 30 13 67 14 76 1 5 -7 6 -4 2 10 -6 22 13 43 24 25
4 -6 21 1 45 17 42 30 75 30 99 2z m8287 -26 c42 -4 46 -6 26 -14 -10 -4 -153
-6 -317 -6 -165 1 -301 -1 -304 -4 -2 -4 -43 -6 -92 -6 l-90 1 13 -25 c7 -14
16 -39 19 -56 l7 -30 -23 35 c-22 36 -51 99 -47 102 17 11 714 14 808 3z
m-1770 -10 c0 -12 20 -15 119 -15 118 0 119 0 125 -25 l6 -25 179 0 178 0 141
-283 c78 -156 142 -289 142 -295 0 -7 10 -12 23 -12 13 0 27 -3 30 -6 8 -8 -9
-42 -34 -69 -15 -17 -19 -41 -21 -140 l-3 -120 -1949 -2 c-1072 0 -1956 1
-1964 4 -21 9 -13 343 10 393 9 19 62 136 118 260 56 124 107 234 115 246 11
18 23 21 72 19 53 -1 103 -19 103 -37 0 -5 -9 -8 -19 -8 -24 0 -31 -19 -31
-81 0 -42 3 -51 22 -58 33 -12 68 14 68 50 0 16 5 29 10 29 6 0 10 11 10 25 0
14 5 25 10 25 6 0 10 8 10 19 0 27 20 39 63 37 28 -1 42 4 48 17 11 19 34 23
44 7 3 -6 -5 -14 -19 -20 -28 -10 -35 -30 -11 -30 22 0 18 -14 -7 -25 -15 -6
-23 -19 -24 -35 -3 -90 -3 -90 -34 -96 -30 -7 -37 -22 -41 -94 -4 -61 0 -70
30 -70 29 0 30 -1 19 -31 -6 -16 -8 -32 -5 -35 3 -3 11 13 18 36 7 23 24 50
38 62 16 12 26 31 27 46 1 39 15 92 25 98 5 3 9 14 9 25 0 10 4 27 9 37 5 9
14 35 21 57 7 22 18 43 24 47 17 12 86 9 86 -2 0 -6 12 -15 28 -21 l27 -11
-25 -13 c-18 -10 -26 -24 -30 -52 -9 -63 -2 -83 30 -83 36 0 47 14 56 75 4 27
13 55 20 63 8 7 14 22 14 33 0 18 6 20 50 18 39 -2 53 1 63 16 8 10 19 15 25
11 18 -11 14 -23 -8 -29 -23 -6 -27 -27 -6 -27 28 0 26 -18 -5 -38 -18 -11
-27 -22 -20 -26 7 -5 7 -14 0 -30 -16 -35 4 -68 38 -62 32 6 37 11 39 39 1 12
4 35 8 52 3 18 1 33 -7 38 -8 6 -7 7 5 3 12 -4 18 2 20 22 l3 27 868 0 867 0
0 22 c0 12 -10 29 -22 37 -20 14 -17 15 48 19 38 1 81 4 97 5 18 1 27 -3 27
-13z m-6433 -198 c14 -30 -7 -82 -36 -92 -12 -3 -21 -11 -21 -16 0 -5 -7 -9
-15 -9 -21 0 -19 10 15 63 31 49 28 63 -7 25 -26 -29 -79 -60 -118 -69 -16 -4
-40 -10 -52 -14 -19 -6 -23 -4 -23 15 0 13 8 28 17 35 15 11 14 13 -13 19 -18
4 -49 1 -75 -7 -24 -8 -52 -15 -62 -14 -27 1 -14 21 19 29 44 11 225 40 261
43 18 1 36 5 40 8 16 17 60 6 70 -16z m357 -193 c12 -31 -55 -73 -183 -114
-47 -15 -135 -46 -196 -68 -60 -22 -130 -47 -155 -56 -157 -53 -242 -80 -290
-91 -30 -7 -92 -22 -138 -34 -100 -25 -92 -25 -92 -1 0 14 10 22 38 29 20 5
80 21 132 35 181 47 215 57 305 88 50 17 124 44 165 61 41 16 104 40 140 52
148 53 187 69 220 92 41 27 46 28 54 7z m-18 -139 c-10 -8 -51 -25 -90 -39
-39 -13 -102 -36 -141 -51 -161 -62 -531 -178 -548 -172 -5 1 31 15 79 31 139
45 217 72 579 204 119 44 153 51 121 27z m8855 -26 c135 -11 306 -23 380 -27
l134 -7 13 -39 c7 -21 13 -60 15 -85 l2 -46 -380 -1 c-209 -1 -410 1 -447 4
l-68 5 0 107 c0 59 3 110 7 113 4 4 27 5 52 2 25 -3 157 -14 292 -26z m818
-96 c18 -45 31 -89 28 -98 -8 -19 -107 -21 -125 -3 -13 13 -17 169 -5 182 4 4
21 6 37 4 28 -3 34 -10 65 -85z m-9751 45 c21 -21 13 -45 -21 -71 -30 -23 -34
-24 -44 -9 -10 16 -12 16 -30 0 -11 -10 -28 -18 -39 -18 -16 0 -17 -2 -4 -10
13 -9 13 -10 0 -11 -8 -1 -24 -3 -35 -5 -30 -4 -145 -39 -187 -57 -20 -8 -46
-13 -56 -10 -11 2 -23 0 -26 -6 -4 -5 -13 -8 -21 -4 -8 3 -15 0 -15 -6 0 -6
-8 -11 -18 -11 -10 0 -22 -4 -28 -9 -15 -13 -101 -34 -113 -26 -6 3 -19 -1
-28 -10 -10 -10 -24 -14 -39 -11 -12 3 -26 2 -29 -4 -3 -5 -19 -10 -36 -10
-16 0 -29 -4 -29 -9 0 -9 -104 -41 -133 -41 -9 0 -17 7 -17 15 0 8 3 14 8 13
4 -1 18 4 32 10 51 22 197 75 255 92 33 9 74 22 90 29 17 7 46 15 65 18 19 3
49 13 65 23 17 10 73 32 125 50 52 17 109 38 127 46 17 8 39 14 50 14 10 0 32
9 48 20 34 23 65 26 83 8z m7665 -57 c10 -1 8 -53 -3 -71 -7 -12 -34 -15 -132
-15 -68 0 -126 4 -130 9 -8 12 9 58 27 72 11 8 180 12 238 5z m-5379 -426 c20
-280 58 -1106 55 -1200 -2 -38 3 -106 9 -150 l12 -80 -32 -27 c-18 -15 -38
-28 -45 -28 -7 0 -23 -11 -37 -25 -35 -35 -40 -35 -47 0 -7 30 -7 30 -8 3 0
-15 -6 -30 -11 -33 -8 -5 -10 118 -9 392 2 422 14 734 29 743 4 3 13 61 19
130 6 69 18 168 27 220 8 52 15 106 15 120 -1 15 2 21 8 15 6 -6 12 -41 15
-80z m4797 55 c80 0 81 -2 49 -90 -11 -30 -28 -74 -36 -97 -9 -24 -19 -43 -24
-43 -5 0 -27 37 -50 83 -22 45 -47 92 -56 103 -13 20 -13 23 2 38 9 10 23 15
31 12 8 -3 46 -6 84 -6z m342 -16 c3 -3 1 -14 -5 -24 -9 -14 -8 -21 5 -34 8
-9 22 -13 30 -10 12 4 63 -39 119 -102 9 -10 31 -32 47 -47 l31 -28 0 -123 c0
-134 -11 -186 -40 -186 -10 0 -20 -7 -24 -15 -3 -8 -14 -15 -23 -15 -21 0 -60
-40 -40 -41 23 -1 -28 -18 -59 -18 -39 -1 -80 34 -63 55 9 12 6 14 -19 14 -19
0 -32 6 -36 17 -5 11 -10 14 -14 7 -4 -6 -17 -15 -30 -18 -18 -6 -30 0 -58 29
-18 20 -34 42 -34 50 0 7 -7 15 -15 19 -8 3 -15 11 -15 17 0 7 -12 28 -26 47
l-27 34 18 56 c9 31 30 83 45 116 16 34 41 94 56 134 l28 72 71 0 c40 0 74 -3
78 -6z m1503 -6 c6 -9 -9 -10 -129 -13 -43 -1 -83 -7 -90 -14 -6 -6 -23 -11
-39 -11 -17 0 -31 -7 -38 -20 -9 -17 -8 -20 12 -20 60 -1 63 -45 4 -52 -34 -4
-36 -2 -42 29 -3 18 -10 33 -14 33 -11 0 -23 57 -15 70 7 12 344 10 351 -2z
m1869 -3 c94 -4 91 -4 79 -14 -17 -17 -659 -31 -684 -16 -6 4 -47 4 -91 0 -63
-6 -79 -10 -75 -21 3 -8 2 -14 -2 -14 -11 0 -32 52 -26 62 3 5 38 7 77 4 40
-3 84 -2 99 2 25 6 444 4 623 -3z m-10747 -37 c-3 -7 -20 -16 -39 -19 -19 -4
-115 -28 -214 -53 -99 -26 -220 -55 -270 -65 -49 -11 -123 -27 -164 -36 -79
-17 -112 -14 -40 5 24 6 67 17 94 25 28 8 70 19 95 25 71 15 192 45 360 88
173 46 183 47 178 30z m-5 -130 c15 -7 25 -17 24 -23 -4 -10 -199 -62 -662
-176 -220 -54 -215 -53 -215 -40 0 5 39 19 88 30 174 41 347 90 349 98 2 5 20
8 41 6 30 -2 32 -1 12 5 l-25 8 24 13 c12 7 31 11 40 8 9 -2 22 2 29 10 19 19
37 17 21 -4 -13 -14 -11 -16 11 -10 14 3 48 11 75 17 28 7 55 17 60 22 7 7 1
8 -17 4 -16 -3 -40 -9 -55 -12 -21 -5 -25 -4 -17 5 14 15 118 32 122 20 2 -5
13 -9 24 -9 13 0 18 5 15 14 -11 28 13 33 56 14z m9385 0 c19 -19 14 -27 -12
-25 -37 3 -35 -14 4 -41 26 -18 44 -23 70 -19 64 8 79 -14 95 -150 8 -64 15
-135 15 -158 0 -45 15 -40 -143 -50 -62 -3 -79 -1 -84 10 -3 8 -13 15 -23 15
-11 0 -22 5 -25 10 -10 16 -45 12 -45 -5 0 -9 12 -18 30 -21 17 -4 30 -11 30
-16 0 -5 -10 -7 -22 -4 -13 3 -17 3 -10 0 6 -3 12 -12 12 -20 0 -11 -7 -13
-27 -8 -44 11 -100 42 -106 59 -8 19 -71 21 -65 3 3 -7 14 -14 26 -16 30 -5
30 -42 1 -42 -12 0 -27 7 -33 16 -6 8 -29 19 -50 24 l-38 8 6 -33 c6 -28 3
-35 -14 -40 -29 -9 -63 4 -56 22 5 12 1 14 -19 9 -14 -4 -25 -2 -25 4 0 5 -4
10 -10 10 -5 0 -10 -7 -10 -15 0 -12 -7 -14 -27 -9 -16 4 -31 11 -34 17 -4 5
-12 1 -18 -10 -5 -11 -7 -24 -3 -28 4 -4 -11 0 -32 9 -21 9 -45 24 -52 34 -17
23 -32 6 -16 -18 10 -17 10 -20 -3 -20 -8 0 -15 5 -15 10 0 6 -5 10 -12 10 -6
0 -22 10 -35 22 -20 18 -23 19 -23 5 0 -35 -20 -15 -22 21 -1 36 -1 36 -5 5
-3 -23 -8 -30 -19 -26 -10 4 -14 -2 -14 -21 0 -14 -5 -26 -11 -26 -7 0 -9 10
-5 28 6 23 7 72 4 122 -1 8 0 67 1 130 1 121 9 152 33 132 20 -16 90 -30 113
-22 11 4 28 2 37 -4 29 -18 46 8 23 34 -23 25 -13 35 43 44 37 6 46 3 66 -19
13 -14 28 -25 35 -25 6 0 11 -4 11 -9 0 -15 52 -29 88 -23 19 2 32 10 32 19 0
9 7 13 18 11 9 -2 16 -10 15 -16 -2 -7 6 -12 17 -12 13 0 20 7 20 19 0 31 17
34 24 5 6 -22 11 -25 33 -19 14 3 32 13 40 20 16 16 35 19 47 8 4 -4 26 -8 49
-8 23 -1 50 -5 60 -9 26 -13 21 9 -13 47 -36 41 -36 44 -7 50 44 8 73 7 85 -5z
m-5703 -58 c14 -12 12 -135 -3 -172 -7 -16 -18 -28 -27 -28 -20 0 -19 17 2 29
35 19 3 23 -53 5 -41 -13 -61 -15 -73 -7 -38 25 5 79 70 89 25 4 39 12 39 22
0 12 -9 14 -47 9 -77 -10 -123 -26 -123 -44 0 -11 -6 -14 -25 -9 -17 4 -41 -3
-78 -24 -59 -33 -77 -37 -77 -16 0 8 36 32 79 55 64 33 100 44 192 59 120 19
126 32 13 32 -63 0 -90 16 -36 22 36 4 133 -10 147 -22z m6110 -51 c4 -5 26
-8 51 -6 31 3 48 -1 57 -12 14 -16 44 -105 70 -209 15 -57 20 -53 -50 -56 -10
-1 -21 -5 -24 -9 -3 -4 -47 -9 -97 -11 l-92 -4 -10 37 c-5 21 -15 84 -20 141
-6 57 -11 106 -12 109 -3 27 6 31 61 31 33 0 63 -5 66 -11z m615 -3 c110 3
210 -10 210 -28 0 -4 -4 -8 -10 -8 -5 0 -10 -4 -10 -10 0 -15 27 -12 33 4 3 7
15 16 27 19 17 4 19 3 10 -8 -15 -18 -4 -36 15 -28 9 3 15 -1 15 -10 0 -8 11
-18 25 -21 13 -3 29 -15 35 -26 14 -27 50 -27 50 0 0 11 -7 20 -15 20 -8 0
-14 3 -14 8 3 19 -3 22 -21 12 -16 -8 -20 -8 -20 3 0 8 -7 20 -15 27 -24 20
-17 30 20 30 27 0 35 -4 35 -17 1 -17 1 -17 14 0 13 16 14 16 20 -8 8 -31 32
-28 29 4 -4 34 46 27 75 -10 l24 -29 -26 0 c-14 0 -29 7 -34 17 -9 14 -10 14
-17 -6 -5 -17 -1 -29 16 -47 18 -19 20 -27 11 -36 -9 -9 -12 -9 -12 0 0 7 -13
12 -30 12 -26 0 -30 -4 -30 -26 0 -19 7 -28 29 -37 16 -6 36 -22 43 -36 7 -15
21 -33 32 -41 16 -14 17 -17 2 -29 -9 -7 -16 -21 -16 -31 0 -32 -14 -30 -46 6
-26 29 -32 32 -27 14 10 -40 -41 -56 -57 -17 -5 13 -9 16 -10 7 0 -10 -9 -5
-25 15 l-25 30 0 -26 c0 -28 -21 -79 -32 -79 -5 0 -8 4 -8 9 0 5 -18 17 -40
27 -22 10 -40 21 -40 25 0 4 -7 10 -16 13 -14 5 -15 1 -10 -29 6 -29 4 -34 -9
-29 -9 4 -22 19 -31 35 -10 20 -22 29 -39 29 -13 0 -27 5 -30 10 -3 6 -1 10 6
10 6 0 0 9 -15 21 -18 14 -34 19 -51 15 -31 -8 -33 -26 -2 -26 16 0 22 -6 23
-24 1 -19 -4 -25 -27 -28 -18 -3 -34 1 -41 9 -19 23 -66 44 -73 33 -3 -6 1
-13 9 -16 20 -8 21 -44 2 -44 -8 0 -16 -6 -19 -12 -5 -17 -37 8 -37 28 0 18
-30 18 -52 0 -22 -16 -23 -30 -3 -22 10 4 15 -1 15 -14 0 -11 5 -20 10 -20 6
0 10 -4 10 -9 0 -14 -53 -6 -58 8 -6 17 -32 13 -32 -5 0 -9 8 -23 18 -31 15
-13 15 -13 -8 -7 -33 9 -41 23 -37 59 2 16 1 42 -3 56 -9 30 4 51 26 42 8 -3
14 0 14 6 0 6 -6 11 -13 11 -12 0 -47 84 -47 114 0 9 -6 29 -14 44 -7 15 -16
43 -20 63 l-6 36 52 -5 c29 -2 59 -8 67 -12 15 -8 90 7 105 21 5 5 14 5 20 0
6 -5 63 -8 126 -5z m-2350 -81 c0 -62 -11 -84 -24 -49 -3 8 -11 12 -16 9 -6
-4 -1 -18 15 -37 17 -20 25 -41 25 -69 0 -41 -12 -50 -29 -21 -6 9 -11 12 -11
5 0 -6 5 -15 11 -18 7 -5 5 -13 -7 -26 -15 -17 -19 -17 -53 -3 -20 8 -42 22
-48 31 -14 18 -16 95 -5 178 l7 50 50 6 c28 3 58 7 68 7 15 2 17 -7 17 -63z
m-5375 -617 c7 -134 16 -166 29 -112 11 43 16 22 5 -24 -17 -79 -14 -163 9
-214 12 -26 26 -50 32 -53 5 -3 10 -10 10 -16 0 -15 -22 -11 -43 9 -19 16 -20
16 -14 -1 4 -9 2 -29 -4 -44 -7 -19 -6 -28 2 -34 8 -4 10 -22 6 -49 -7 -52
-13 -58 -34 -37 -18 18 -18 0 -23 567 -1 187 -2 178 9 161 5 -8 13 -77 16
-153z m4371 -610 c3 -3 11 -26 19 -51 12 -39 11 -46 0 -51 -8 -3 -21 1 -29 9
-9 10 -16 11 -18 4 -2 -7 -17 -8 -40 -4 -27 5 -38 13 -40 28 -2 11 -9 22 -16
25 -9 3 -10 -2 -2 -22 9 -25 8 -26 -24 -26 -35 0 -46 16 -50 65 -1 17 5 20 36
20 20 0 39 3 43 7 8 8 112 4 121 -4z"/>
<path d="M4770 2771 c0 -11 -4 -22 -9 -25 -13 -8 -20 -78 -9 -98 11 -23 47
-23 93 -1 31 15 35 21 35 54 0 21 5 41 10 44 6 3 10 15 10 26 0 17 -7 19 -65
19 -58 0 -65 -2 -65 -19z"/>
<path d="M5235 2733 c-4 -27 -8 -55 -11 -63 -7 -29 13 -43 57 -42 73 3 79 8
79 60 0 26 3 57 6 70 6 21 4 22 -59 22 l-66 0 -6 -47z"/>
<path d="M5475 2748 c-3 -18 -7 -51 -8 -73 -2 -37 0 -40 27 -43 16 -2 39 1 50
6 12 6 29 13 38 16 14 4 17 17 16 65 l-1 61 -58 0 c-58 0 -58 0 -64 -32z"/>
<path d="M7322 2705 l1 -75 48 0 c27 0 49 5 49 10 0 6 9 10 21 10 19 0 21 4
16 43 -10 84 -8 82 -75 85 l-61 3 1 -76z"/>
<path d="M7560 2702 l0 -78 43 4 c23 2 46 8 52 13 5 5 17 9 27 9 14 0 18 8 18
39 0 22 -4 43 -10 46 -5 3 -10 15 -10 26 0 17 -7 19 -60 19 l-60 0 0 -78z"/>
<path d="M7795 2768 c-3 -7 -3 -38 -1 -68 2 -30 5 -60 5 -67 1 -13 84 -5 89 8
2 5 14 9 27 9 21 0 23 3 18 43 -11 81 -16 87 -78 87 -35 0 -57 -5 -60 -12z"/>
<path d="M8032 2701 l3 -79 30 5 c17 3 37 12 46 19 8 8 25 14 37 14 18 0 22 6
22 34 0 19 -4 38 -10 41 -5 3 -10 15 -10 26 0 17 -7 19 -60 19 l-61 0 3 -79z"/>
<path d="M10768 7953 l-3 -48 -55 -3 c-30 -2 -61 -9 -69 -15 -11 -10 0 -13 55
-17 l69 -5 -1 -65 c-1 -36 -2 -150 -3 -255 -1 -104 -4 -198 -7 -208 -5 -16
-22 -18 -212 -16 -114 1 -223 -2 -244 -6 -20 -4 -46 -4 -58 0 -20 6 -21 12
-18 111 2 85 0 104 -11 102 -10 -2 -15 -27 -18 -98 -2 -52 -6 -101 -8 -109 -4
-10 -39 -13 -173 -11 -204 4 -232 2 -232 -9 0 -11 55 -23 95 -20 17 1 93 2
170 3 l140 1 1 -133 c1 -72 -2 -134 -6 -137 -8 -5 -4 -116 6 -144 4 -11 7 -12
16 -3 8 8 12 68 11 197 -1 101 1 193 4 205 5 19 12 20 147 19 77 0 194 1 259
3 65 2 121 0 124 -5 3 -5 4 -65 2 -135 -5 -200 -3 -276 8 -279 9 -3 24 87 24
137 -2 212 1 275 12 282 7 4 77 7 157 7 283 -3 340 0 340 15 0 11 -25 14 -127
14 -71 0 -141 0 -158 0 -16 0 -71 -2 -122 -4 l-92 -5 -7 27 c-4 14 -3 63 1
108 4 44 7 154 5 243 -2 185 -7 175 86 177 87 2 63 26 -26 26 -47 0 -69 17
-54 41 8 14 -4 59 -16 59 -5 0 -10 -21 -12 -47z"/>
<path d="M11225 7982 c83 -51 250 -89 339 -78 86 11 178 37 236 67 l55 28
-330 0 c-324 1 -329 1 -300 -17z"/>
<path d="M9672 6854 c29 -42 63 -91 75 -108 12 -17 22 -37 22 -44 1 -8 -33
-61 -74 -119 -41 -57 -75 -106 -75 -108 0 -2 17 -3 38 -1 20 2 61 4 89 5 l53
1 2 188 3 187 120 6 c66 4 126 7 133 8 6 0 12 14 12 31 l0 30 -225 0 -226 0
53 -76z"/>
<path d="M8595 6831 c-82 -21 -137 -76 -155 -157 -12 -54 -6 -95 22 -143 14
-25 18 -44 13 -72 l-7 -38 39 19 c26 12 43 15 55 9 45 -24 148 -1 196 44 76
70 83 207 16 283 -40 45 -121 70 -179 55z m10 -105 c25 -48 40 -54 56 -25 27
51 81 75 93 43 8 -21 -22 -70 -51 -83 -23 -10 -30 -26 -15 -33 4 -2 22 -20 40
-40 25 -27 32 -41 27 -57 -10 -32 -51 -27 -85 11 l-30 32 -38 -37 c-42 -41
-76 -47 -92 -18 -15 30 -13 37 25 75 19 20 35 40 35 45 0 5 -13 14 -29 19 -53
19 -66 79 -15 66 23 -6 24 -4 18 21 -6 24 -4 26 17 23 16 -2 31 -16 44 -42z"/>
<path d="M7891 6820 c-71 -17 -140 -97 -148 -173 -4 -35 1 -58 21 -104 20 -42
26 -67 21 -90 -7 -38 -5 -39 36 -17 25 12 37 13 65 4 42 -14 95 -6 146 22 68
38 103 109 96 193 -10 115 -123 194 -237 165z m190 -91 c14 -7 19 -21 19 -49
0 -21 -4 -42 -10 -45 -5 -3 -10 -33 -10 -66 0 -52 -3 -60 -17 -57 -9 2 -20 14
-23 28 -6 24 -9 25 -97 28 l-92 3 -3 -28 c-2 -20 -9 -29 -26 -31 -22 -3 -23
-1 -16 46 5 43 3 53 -15 71 -21 21 -28 65 -13 87 4 7 16 14 27 16 43 9 259 7
276 -3z"/>
<path d="M9758 6253 c-10 -2 -18 -10 -18 -18 0 -7 -10 -20 -22 -28 l-23 -16
23 0 c18 -1 22 -7 22 -31 0 -16 5 -30 10 -30 6 0 10 -5 10 -11 0 -5 -4 -7 -10
-4 -5 3 -10 -2 -10 -11 0 -14 3 -15 12 -6 8 8 56 12 150 12 123 0 139 2 144
18 4 9 13 32 21 50 8 18 13 43 11 55 -3 22 -6 22 -153 23 -82 1 -158 0 -167
-3z"/>
<path d="M4744 6096 c-3 -8 -4 -23 -2 -33 3 -16 20 -19 168 -25 91 -3 291 -8
445 -10 l280 -3 3 36 3 36 -257 6 c-358 10 -524 9 -524 -2 0 -12 -78 -12 -86
0 -8 14 -24 11 -30 -5z"/>
<path d="M7227 5843 c-13 -13 -7 -63 7 -63 8 0 17 6 19 13 5 12 0 -36 -9 -79
-2 -12 -13 -24 -25 -27 -15 -4 -20 -11 -15 -22 3 -9 6 -30 6 -46 0 -26 3 -29
24 -23 35 8 91 -13 110 -41 18 -28 21 -96 5 -112 -8 -8 -8 -13 0 -17 18 -11
13 -28 -6 -22 -10 3 -36 -1 -57 -8 -36 -13 -38 -14 -19 -24 11 -6 40 -14 64
-18 53 -8 94 -28 108 -51 9 -16 10 -14 11 9 0 24 -5 28 -57 39 -68 14 -91 29
-45 29 27 0 32 4 32 23 0 25 28 57 48 57 8 0 12 -20 12 -57 0 -31 2 -54 5 -51
4 4 7 38 14 156 1 15 7 22 20 22 16 0 20 -10 26 -60 4 -33 10 -60 15 -60 4 0
4 18 0 41 -4 22 -4 102 0 177 6 96 5 139 -3 144 -7 4 -7 11 3 22 7 9 10 19 6
23 -3 3 -6 0 -6 -8 0 -11 -2 -11 -8 -2 -11 17 -72 29 -72 14 0 -6 4 -11 8 -11
5 0 6 -22 2 -48 -3 -26 -5 -88 -4 -137 3 -115 -2 -140 -32 -154 -14 -6 -27
-11 -30 -11 -3 0 -4 31 -2 69 2 58 0 71 -15 81 -10 6 -15 15 -12 20 4 6 11 8
16 5 5 -4 9 1 9 9 0 13 -16 30 -30 31 -3 1 -22 4 -44 9 l-38 7 26 28 c20 21
26 37 26 73 0 43 -2 46 -31 52 -40 8 -54 8 -62 -1z"/>
<path d="M4694 5801 c-2 -2 1 -10 7 -17 7 -9 11 -65 11 -146 0 -114 1 -123 8
-63 4 38 5 77 3 85 -10 39 11 41 402 38 317 -3 377 -5 385 -18 5 -8 8 -57 7
-110 l-2 -95 -245 0 c-135 0 -294 2 -355 4 -60 1 -117 2 -125 1 -8 -1 -250 0
-537 1 -287 2 -524 1 -527 -1 -2 -3 -14 -142 -26 -310 -12 -168 -29 -410 -39
-538 -9 -128 -14 -237 -11 -242 3 -5 3 -42 -1 -82 -6 -61 -28 -368 -33 -458
-1 -21 4 -26 34 -30 l35 -6 -31 -6 c-26 -6 -33 -13 -38 -43 -4 -20 -10 -43
-12 -50 -4 -9 5 -16 28 -19 54 -10 2338 -14 2338 -4 0 4 16 8 35 8 19 0 35 -5
35 -11 0 -6 19 -9 50 -8 36 2 54 -2 70 -16 11 -10 20 -14 20 -9 0 13 -30 55
-52 74 -19 16 -35 70 -22 70 5 0 10 174 12 388 1 213 5 581 8 817 5 355 3 433
-8 448 -13 17 -36 18 -295 20 -155 1 -283 4 -285 7 -6 7 8 162 21 235 6 35 6
64 1 69 -5 5 -127 11 -272 13 -145 2 -336 5 -426 6 -90 1 -165 1 -168 -2z
m980 -430 c49 0 57 -3 52 -17 -3 -8 -6 -19 -6 -24 0 -5 -8 -11 -17 -13 -11 -3
-7 -5 10 -6 27 -1 32 -8 21 -35 -3 -8 -12 -12 -21 -9 -11 4 -14 2 -11 -8 2 -8
20 -17 39 -20 19 -4 26 -7 17 -8 -10 0 -18 -5 -18 -10 0 -5 10 -7 22 -3 17 4
20 2 15 -11 -4 -12 -2 -14 10 -10 12 5 14 3 8 -7 -6 -9 -4 -11 4 -5 9 5 10 10
2 18 -18 18 -12 24 21 19 26 -4 30 -2 25 12 -5 11 -1 16 14 16 11 0 19 -6 18
-12 -1 -7 -1 -23 0 -36 1 -19 5 -22 21 -17 11 4 20 2 20 -4 0 -6 -7 -11 -15
-11 -8 0 -15 -4 -15 -10 0 -5 3 -9 8 -9 34 6 47 -29 13 -38 -13 -3 -17 -11
-14 -24 3 -10 9 -17 13 -14 7 5 20 -99 20 -168 0 -33 -4 -39 -29 -48 -19 -7
-31 -19 -33 -32 -2 -15 -11 -23 -29 -25 -25 -3 -45 -33 -32 -46 9 -9 33 6 33
20 0 8 5 14 11 14 6 0 9 -6 6 -14 -3 -7 -2 -17 3 -22 4 -5 10 -31 12 -59 l3
-50 -36 -5 -36 -5 -1 -55 c0 -30 -4 -103 -8 -162 -6 -91 -4 -109 9 -122 15
-15 17 -14 25 16 5 18 7 77 4 131 -4 105 4 191 18 182 5 -3 6 -82 3 -178 l-6
-173 31 -32 c30 -30 30 -33 36 -159 7 -157 8 -185 3 -190 -11 -10 -1326 -7
-1734 4 -177 5 -203 8 -204 22 0 10 -2 12 -6 4 -8 -20 -132 -17 -155 4 -45 41
-33 43 260 43 l277 0 2 40 c2 71 5 90 14 90 5 0 9 -16 9 -35 0 -19 5 -35 10
-35 6 0 10 7 10 15 0 11 7 14 23 10 34 -9 77 11 77 35 0 19 -6 20 -142 21 -79
1 -171 2 -205 4 -56 2 -62 0 -65 -19 -2 -11 -14 -27 -28 -34 l-25 -14 27 6
c27 6 78 -11 78 -26 0 -4 -12 -9 -27 -9 -65 -3 -134 0 -143 6 -17 10 9 35 35
35 17 0 22 5 20 18 -2 9 -4 22 -4 29 -1 8 -29 13 -88 15 l-88 3 2 55 c1 30 7
156 13 280 6 124 13 254 14 290 4 96 27 353 33 370 3 8 7 22 9 30 2 8 7 16 12
18 5 1 7 15 4 31 -3 24 0 29 23 35 14 4 30 4 35 1 16 -10 11 -53 -7 -64 -16
-9 -15 -10 6 -11 16 0 21 -4 17 -15 -5 -13 22 -15 204 -15 193 0 210 1 211 18
1 16 2 16 6 0 5 -20 33 -25 33 -7 0 8 5 7 15 -1 12 -10 24 -10 55 -1 50 14
106 28 145 36 17 4 38 14 47 22 10 8 24 13 31 10 8 -3 28 3 46 14 23 14 31 26
31 48 0 16 3 36 6 45 3 8 -3 22 -15 32 -15 14 -17 20 -8 26 6 5 190 6 407 4
217 -3 421 -5 454 -5z"/>
<path d="M6568 5757 c-38 -17 -63 -42 -121 -122 -28 -38 -54 -72 -57 -75 -3
-3 -13 -21 -23 -40 -10 -19 -29 -53 -42 -76 -22 -36 -23 -45 -14 -73 6 -17 14
-31 18 -31 4 0 23 16 42 36 21 22 41 33 51 30 11 -2 32 9 52 27 55 51 127 107
137 107 5 0 9 9 9 19 0 15 10 21 40 26 22 4 43 11 46 17 4 6 -7 7 -28 3 -25
-5 -38 -2 -47 9 -14 17 -15 16 29 29 10 3 6 8 -12 16 -31 12 -34 21 -16 39 7
7 8 12 2 12 -5 0 -15 -5 -21 -11 -8 -8 -13 -3 -18 20 -3 17 -4 35 0 41 7 12 8
12 -27 -3z"/>
<path d="M9877 5274 c-7 -203 -15 -252 -44 -262 -8 -2 -13 6 -14 20 -1 17 -3
18 -6 6 -2 -10 -9 -18 -15 -18 -11 0 -7 -119 9 -262 5 -53 8 -58 29 -58 21 0
24 -5 24 -35 0 -19 5 -35 10 -35 6 0 10 10 9 23 -4 49 0 59 24 52 12 -4 31
-16 43 -26 21 -20 35 -24 33 -11 -6 39 2 52 35 52 66 0 64 -3 65 161 l2 149
-26 0 c-17 0 -25 -5 -25 -17 0 -15 -2 -15 -9 -4 -5 8 -16 11 -25 8 -9 -4 -16
-1 -16 6 0 8 -4 6 -10 -3 -7 -12 -10 -12 -10 -1 0 7 -6 11 -15 7 -8 -3 -19 2
-24 11 -6 12 -11 -10 -15 -73 -19 -268 -24 -229 -19 134 2 210 3 382 0 382 -2
0 -7 -93 -10 -206z"/>
<path d="M988 5123 c-5 -11 -2 -151 4 -186 3 -15 1 -30 -3 -33 -5 -3 -9 -18
-9 -34 0 -31 -33 -60 -45 -40 -12 19 -25 10 -25 -16 0 -22 2 -24 15 -14 12 10
16 9 21 -4 3 -9 1 -23 -5 -30 -9 -10 -9 -16 -1 -21 13 -8 21 -3 24 17 4 24 26
58 38 58 9 0 9 -3 0 -12 -7 -7 -12 -21 -12 -32 1 -22 27 -63 36 -58 3 2 8 1
11 -2 4 -3 -4 -6 -16 -6 -21 0 -21 -1 7 -25 17 -14 35 -25 41 -25 16 0 13 -20
-4 -26 -23 -9 -8 -22 20 -16 35 6 34 45 -2 61 -19 9 -23 15 -15 23 7 7 8 17 3
27 -5 9 -9 40 -9 70 -1 72 -11 111 -28 111 -9 0 -12 5 -9 10 4 6 10 8 14 6 4
-3 8 26 9 64 1 60 -2 71 -19 80 -11 6 -19 21 -19 35 0 23 -14 34 -22 18z"/>
<path d="M6375 5057 c-8 -4 -58 -9 -111 -11 -68 -2 -99 -7 -105 -17 -10 -17 2
-30 27 -29 79 4 171 -2 189 -14 15 -10 49 -13 113 -12 81 2 94 0 103 -16 5
-10 16 -18 24 -18 18 0 20 36 3 44 -10 5 -10 7 0 12 6 3 12 12 12 20 0 8 10
19 23 23 22 9 22 9 -5 16 -15 4 -32 4 -37 0 -6 -3 -11 -2 -11 3 0 12 -204 11
-225 -1z"/>
<path d="M7423 5053 c-28 -19 -29 -34 -3 -51 11 -7 20 -17 20 -22 0 -6 -9 -10
-20 -10 -14 0 -20 -7 -20 -24 0 -15 7 -26 20 -29 11 -3 20 -10 20 -16 0 -6 -9
-11 -20 -11 -13 0 -20 -7 -20 -20 0 -11 7 -20 15 -20 8 0 15 -5 15 -11 0 -5 4
-8 9 -5 13 8 42 -4 35 -15 -3 -5 2 -9 10 -9 11 0 18 -13 22 -40 4 -22 10 -42
14 -45 13 -8 19 118 8 169 -6 27 -8 71 -6 98 3 27 1 51 -4 54 -14 9 -19 -17
-21 -109 -2 -97 -20 -120 -25 -32 -2 37 1 55 9 55 9 0 9 3 0 14 -7 8 -11 31
-9 52 3 44 -13 53 -49 27z"/>
<path d="M9605 5005 c-27 -12 -68 -38 -89 -57 -38 -33 -40 -38 -52 -127 -7
-51 -15 -95 -18 -98 -2 -3 -16 3 -30 14 -22 16 -25 23 -20 63 l5 44 -31 -29
c-26 -25 -30 -36 -30 -82 l0 -53 83 1 c45 1 142 4 215 8 85 4 134 2 136 -4 3
-5 5 -4 5 4 1 8 -6 19 -14 25 -10 7 -17 37 -22 94 -3 45 -10 85 -15 88 -13 8
-9 24 5 18 11 -4 12 5 3 46 -7 33 -14 49 -23 46 -7 -3 -10 1 -6 11 5 13 3 14
-17 3 -14 -8 -25 -8 -29 -2 -4 6 -26 1 -56 -13z"/>
<path d="M7400 4795 c0 -8 6 -25 13 -36 10 -17 10 -23 0 -26 -15 -6 -17 -39
-3 -48 17 -11 11 -42 -10 -48 -15 -4 -20 -14 -20 -36 0 -29 2 -30 33 -24 17 3
35 10 38 15 3 6 9 3 12 -6 4 -9 12 -16 19 -15 10 0 10 2 1 6 -16 6 -18 133 -3
133 14 0 42 -59 36 -75 -3 -8 0 -12 7 -9 17 6 45 -44 53 -92 4 -27 1 -53 -10
-78 -9 -21 -16 -52 -16 -69 0 -17 -3 -27 -7 -23 -10 10 -10 9 -12 134 -1 78
-4 102 -12 89 -5 -9 -8 -36 -6 -60 3 -23 1 -50 -4 -59 -6 -10 -5 -19 1 -23 6
-4 10 -32 9 -63 -1 -32 2 -74 6 -94 5 -26 4 -38 -4 -38 -6 0 -11 12 -11 28 0
15 -7 36 -15 46 -8 11 -15 41 -15 67 0 25 -3 67 -6 92 -6 39 -10 46 -33 50
-38 7 -61 -9 -61 -42 0 -26 3 -29 33 -27 37 1 47 -27 10 -32 -14 -2 -20 -8
-16 -18 4 -12 -12 -14 -92 -14 l-97 0 7 -32 c4 -18 9 -35 12 -38 2 -2 28 -7
58 -10 42 -5 55 -3 55 7 0 7 6 13 14 13 7 0 28 3 45 6 26 5 31 3 31 -12 0 -18
-39 -44 -67 -44 -10 0 -12 -39 -10 -185 3 -148 1 -183 -9 -174 -7 6 -10 17 -7
25 3 8 1 14 -5 14 -14 0 -22 -36 -22 -102 0 -48 4 -61 26 -83 14 -14 23 -29
20 -33 -4 -3 -18 6 -31 21 -27 28 -61 27 -49 -2 14 -35 13 -47 -3 -68 -16 -20
-29 -23 -106 -25 -65 -2 -83 -5 -68 -12 12 -5 21 -13 21 -18 0 -10 2 -10 -38
1 -27 8 -34 7 -42 -10 -6 -10 -15 -19 -21 -19 -6 0 -8 4 -5 9 7 11 -3 41 -13
41 -4 0 -5 -16 -3 -35 3 -29 8 -35 27 -35 13 0 25 6 28 13 3 9 28 11 89 9 78
-3 86 -5 98 -27 15 -28 34 -34 73 -24 29 8 35 1 15 -19 -6 -6 -12 -21 -13 -33
-2 -19 3 -20 42 -17 30 2 43 -1 43 -9 0 -7 5 -13 10 -13 6 0 10 6 10 14 0 19
25 27 39 13 6 -6 11 -9 11 -7 0 3 3 34 5 70 8 126 17 190 26 184 5 -3 9 5 9
18 0 21 -4 23 -44 21 -34 -1 -49 3 -64 20 -29 30 -15 56 21 40 21 -10 26 -9
31 3 4 10 13 13 26 9 23 -7 25 2 8 42 -17 41 -20 71 -8 78 5 3 10 -2 11 -12 0
-10 3 -13 5 -6 3 6 -2 23 -11 36 -10 16 -15 43 -14 74 1 26 -1 60 -5 74 -10
35 11 49 24 17 l10 -23 -3 24 c-1 13 4 26 11 29 10 3 13 -5 10 -29 -2 -21 -8
-33 -15 -31 -19 3 -16 -23 9 -103 15 -46 24 -62 26 -48 3 19 6 21 23 10 10 -6
19 -21 19 -33 0 -12 7 -24 15 -28 19 -7 19 -1 -4 48 -11 23 -26 70 -35 106
-16 68 -15 88 15 355 l13 111 -28 54 c-45 92 -58 115 -73 123 -7 4 -13 16 -13
26 0 20 -39 51 -65 51 -8 0 -15 -7 -15 -15z"/>
<path d="M6693 4709 c-6 -6 -28 -11 -49 -11 -58 0 -81 -13 -90 -50 -4 -18 -7
-41 -5 -50 1 -12 -4 -18 -18 -18 -12 0 -21 -5 -21 -10 0 -6 -8 -5 -20 2 -10 7
-23 9 -27 4 -10 -10 24 -30 62 -36 27 -5 30 -8 28 -40 -5 -69 18 -110 62 -110
12 0 25 -6 28 -14 8 -20 157 -27 157 -8 0 7 -5 10 -12 6 -7 -4 -8 -3 -4 4 4 7
17 12 28 12 39 0 47 27 48 151 0 135 -5 143 -85 152 -27 3 -51 10 -53 16 -5
14 -15 14 -29 0z m67 -74 c35 -18 60 -62 60 -104 0 -46 -57 -101 -104 -101
-73 0 -116 41 -115 110 0 88 80 136 159 95z"/>
<path d="M9488 4653 c-44 -4 -48 -6 -48 -31 0 -15 -3 -44 -6 -64 l-7 -38 167
0 c190 0 183 -4 171 85 l-6 55 -112 -2 c-62 -1 -133 -3 -159 -5z"/>
<path d="M9779 4493 c-1 -15 -2 -37 -3 -47 -2 -31 -21 -29 -56 6 l-33 33 -134
3 c-139 4 -133 5 -133 -35 0 -3 46 -7 103 -7 91 -1 102 -3 101 -18 -2 -16 8
-18 77 -18 84 0 87 -2 93 -54 1 -14 6 -29 11 -34 4 -4 4 29 1 73 -4 44 -7 88
-7 97 0 30 -19 31 -20 1z"/>
<path d="M8523 4453 c-32 -6 -76 -86 -68 -124 7 -31 61 -79 92 -81 43 -3 89
22 107 59 22 45 14 84 -26 123 -29 29 -49 34 -105 23z"/>
<path d="M8985 4434 c-14 -15 -29 -43 -35 -62 -9 -33 -6 -39 37 -96 25 -34 43
-53 40 -43 -5 13 -1 17 21 17 35 0 93 35 99 61 3 10 6 19 8 19 1 0 16 -5 34
-11 17 -6 39 -7 49 -3 12 6 5 9 -28 13 -35 5 -46 10 -48 26 -6 36 -35 83 -59
94 -43 20 -92 13 -118 -15z"/>
<path d="M9856 4322 c4 -59 11 -110 16 -113 5 -3 6 -23 3 -45 -7 -46 7 -76 27
-56 25 25 31 12 24 -55 -11 -98 -11 -98 31 -140 43 -44 93 -71 93 -50 0 89 12
360 16 384 3 18 10 30 15 27 5 -3 9 2 9 10 0 12 -18 16 -97 18 l-98 3 0 54 c0
47 -3 55 -23 62 l-23 9 7 -108z"/>
<path d="M2913 4413 c-14 -3 -20 -9 -16 -19 3 -9 -1 -14 -12 -14 -11 0 -15 5
-11 15 3 9 0 15 -9 15 -8 0 -15 -6 -15 -14 0 -12 -36 -15 -212 -16 -117 0
-382 -3 -588 -5 -206 -3 -399 -5 -429 -5 -46 0 -52 -2 -41 -15 7 -8 26 -15 42
-15 26 0 29 -3 25 -21 -7 -27 15 -35 60 -21 22 7 43 8 53 2 20 -11 41 6 33 26
-4 11 19 14 123 15 181 2 267 -1 278 -12 6 -5 -6 -9 -30 -10 -31 0 -35 -2 -19
-9 11 -5 32 -9 48 -9 21 -1 27 4 27 19 0 14 7 20 21 20 19 0 19 -1 3 -17 -16
-16 -15 -18 8 -24 14 -3 97 -6 185 -4 142 1 163 4 179 20 11 10 18 21 16 23
-4 8 61 9 83 1 18 -6 18 -7 -5 -12 -14 -3 -36 -5 -50 -4 -15 1 -26 -4 -27 -13
-3 -12 7 -15 44 -14 27 1 53 2 58 4 6 1 35 1 65 -1 30 -1 73 -2 95 -2 24 0 45
-7 52 -16 10 -14 13 -14 27 4 9 12 15 15 16 7 0 -9 7 -11 21 -7 11 4 36 4 54
1 32 -6 33 -8 29 -44 -3 -29 -2 -32 4 -12 6 18 15 24 30 23 16 -2 22 3 22 17
0 10 -4 21 -9 25 -6 3 -4 16 4 32 10 19 11 32 4 46 -13 23 -4 34 15 18 8 -7
17 -8 20 -3 11 18 -19 30 -79 31 -42 0 -55 -3 -45 -9 8 -5 23 -10 33 -10 9 0
17 -4 17 -9 0 -11 -52 -11 -67 1 -6 5 -14 5 -17 0 -7 -12 -78 -14 -96 -2 -11
7 -4 10 25 10 22 0 47 5 55 10 11 7 2 9 -30 8 -25 0 -55 -3 -67 -5z"/>
<path d="M9733 4387 c-6 -11 -44 -16 -162 -21 -85 -4 -158 -9 -162 -11 -4 -3
-10 1 -12 7 -3 7 -3 -2 0 -19 4 -26 2 -33 -10 -33 -8 0 -17 5 -19 12 -10 28
-28 -7 -28 -54 0 -51 0 -51 21 -32 17 16 22 16 29 4 6 -8 10 -21 10 -27 0 -7
4 -13 9 -13 5 0 16 -6 23 -13 7 -7 39 -28 71 -46 49 -28 57 -36 51 -54 -9 -30
-11 -32 -29 -17 -14 11 -177 16 -195 5 -11 -7 -11 -103 0 -110 5 -3 10 -17 10
-31 0 -14 6 -24 14 -24 10 0 12 7 8 22 -3 14 -2 19 6 14 7 -4 12 -3 12 1 0 11
70 37 78 29 3 -4 6 -21 6 -39 1 -26 5 -33 26 -35 14 -2 29 -10 33 -18 16 -27
90 -14 79 14 -3 9 10 2 29 -16 29 -28 41 -32 87 -32 37 0 54 -4 58 -15 4 -8
10 -12 15 -9 5 3 5 13 -1 24 -6 12 -7 21 0 25 5 3 7 12 4 20 -3 8 -2 20 2 27
5 7 7 27 5 45 -4 44 8 76 25 69 10 -4 13 5 12 39 -1 24 -5 42 -8 40 -3 -2 -6
11 -6 28 -1 18 -4 51 -7 74 -3 23 -2 43 3 45 5 2 2 14 -5 28 -14 25 -14 25
-15 -12 0 -26 -5 -38 -14 -38 -18 0 -27 -25 -14 -38 12 -12 1 -55 -13 -47 -5
4 -9 -16 -9 -45 0 -28 4 -49 9 -46 4 3 7 18 5 33 l-4 28 9 -26 c10 -30 3 -79
-11 -79 -5 0 -16 -16 -24 -35 -8 -19 -16 -35 -18 -35 -17 0 -36 38 -36 70 0
25 -5 40 -16 44 -10 4 -13 13 -9 25 8 27 -5 71 -21 71 -8 0 -14 9 -14 20 0 27
28 26 32 -2 4 -30 23 -33 23 -4 0 13 -3 22 -6 20 -11 -7 -21 48 -10 59 16 16
28 0 34 -44 6 -46 11 -54 27 -44 7 4 9 19 5 36 -4 17 -2 29 4 29 12 0 12 58
-1 66 -16 10 -8 26 12 21 18 -5 19 -1 14 36 -6 48 -9 54 -21 34z"/>
<path d="M6208 4363 l-68 -4 0 -81 0 -80 233 3 c226 4 232 3 235 -16 3 -19 -2
-20 -145 -17 -134 3 -150 2 -164 -15 -11 -12 -22 -64 -33 -163 -9 -80 -22
-182 -28 -228 -6 -45 -9 -84 -6 -87 11 -11 155 -7 196 5 35 11 49 23 77 68 19
31 36 60 38 66 2 5 9 6 15 2 10 -6 7 -18 -11 -51 l-24 -43 43 26 c42 26 53 49
45 96 -1 4 4 14 10 22 9 11 8 14 -7 14 -16 0 -16 1 -2 13 9 6 19 23 22 37 2
14 3 -10 2 -53 -2 -68 -1 -77 13 -71 9 3 24 9 34 11 9 3 17 15 17 27 0 16 3
18 9 7 7 -11 15 -11 47 -1 22 7 42 15 47 19 11 11 10 453 -2 461 -6 3 -66 7
-133 8 -97 1 -125 5 -134 17 -11 15 -129 18 -326 8z"/>
<path d="M7595 4150 c-4 -6 -1 -18 6 -26 10 -13 10 -17 -2 -25 -12 -8 -12 -11
3 -22 9 -7 19 -31 22 -53 6 -49 16 -75 26 -69 5 3 18 -7 29 -22 17 -24 22 -26
31 -13 9 13 11 13 19 0 8 -13 42 -15 213 -14 111 1 211 -3 221 -8 9 -5 17 -20
17 -33 0 -14 5 -25 10 -25 6 0 10 11 10 24 0 21 6 25 48 31 26 5 77 7 115 6
37 -2 67 -1 67 2 0 2 -11 16 -25 31 -21 23 -31 26 -83 25 -33 -1 -65 2 -71 5
-6 4 -11 29 -11 57 l0 49 -193 0 c-180 0 -195 1 -212 20 -13 15 -22 17 -36 10
-10 -6 -43 -10 -74 -10 -46 0 -60 4 -80 25 -14 13 -25 29 -25 35 0 13 -17 13
-25 0z"/>
<path d="M6940 4025 c0 -118 -1 -125 -20 -125 -20 0 -44 -32 -33 -44 3 -3 17
-6 29 -6 22 0 23 -4 26 -77 2 -61 6 -77 19 -79 14 -1 18 11 24 68 l6 70 145
-4 c79 -2 144 0 144 5 0 15 -23 52 -36 60 -8 4 -14 17 -14 29 0 20 -4 20 -112
16 -62 -3 -119 -3 -125 -1 -9 3 -13 35 -13 109 0 97 -1 104 -20 104 -19 0 -20
-7 -20 -125z"/>
<path d="M9182 4143 c-6 -2 -9 -10 -6 -15 4 -7 2 -8 -5 -4 -7 4 -28 0 -48 -9
-35 -17 -98 -17 -173 0 -14 3 -19 3 -12 -1 16 -8 15 -24 -2 -24 -7 0 -20 -8
-27 -17 -10 -11 -10 -14 -1 -9 7 4 12 2 12 -8 0 -12 22 -15 125 -18 95 -2 125
0 125 10 0 6 -4 12 -10 12 -5 0 -10 12 -9 28 l1 27 8 -25 c5 -17 8 -19 9 -7 1
9 6 17 11 17 6 0 10 7 10 16 0 11 6 14 22 8 20 -6 21 -5 6 10 -9 9 -18 16 -20
15 -2 0 -9 -3 -16 -6z"/>
<path d="M8527 3974 c-1 -2 -22 -4 -46 -5 l-43 -3 28 -22 c15 -13 31 -21 35
-19 4 3 12 -2 19 -10 7 -8 28 -15 46 -15 32 0 34 -2 34 -35 0 -19 5 -35 10
-35 11 0 14 20 11 58 -2 28 11 28 45 -1 23 -20 25 -26 15 -46 -10 -18 -10 -22
1 -20 25 3 39 -1 34 -10 -3 -5 -36 -9 -73 -10 -87 -2 -109 -6 -105 -20 3 -15
-15 -14 -21 2 -5 11 -7 0 -11 -45 -1 -7 -6 -17 -13 -23 -9 -8 -8 -13 3 -23 16
-15 21 -8 26 38 3 23 9 26 63 32 86 9 648 -1 659 -12 6 -6 23 -10 38 -10 21 0
28 5 28 20 0 23 22 26 40 5 7 -9 24 -13 44 -11 25 3 32 8 34 31 3 22 0 26 -13
22 -26 -11 -138 4 -126 16 6 6 11 13 11 17 0 3 -69 4 -152 3 -444 -8 -416 -9
-443 17 -28 27 -33 50 -9 50 11 0 14 8 12 28 -3 26 -6 27 -63 29 -33 2 -72 4
-88 6 -15 2 -28 2 -30 1z"/>
<path d="M9620 3808 c-19 -5 -46 -10 -58 -11 -22 -1 -23 -4 -18 -38 3 -21 1
-50 -4 -65 -6 -15 -8 -29 -5 -32 6 -7 65 -5 73 2 7 8 -31 36 -40 30 -5 -3 -8
7 -7 23 0 15 3 22 6 16 2 -7 11 -13 18 -13 7 0 15 -7 19 -15 3 -8 18 -15 34
-15 15 0 33 -5 39 -11 7 -7 19 -9 27 -6 13 5 13 12 4 37 -5 17 -7 34 -3 38 10
10 35 -28 35 -55 0 -13 4 -23 9 -23 13 0 21 26 21 66 l0 34 45 -7 c42 -5 45
-4 45 16 0 18 -4 21 -20 16 -12 -4 -26 -2 -33 3 -17 14 -145 20 -187 10z"/>
<path d="M3762 3635 c-18 -19 -35 -35 -38 -35 -4 0 -24 -14 -46 -32 -36 -28
-38 -33 -22 -39 11 -4 14 -8 7 -8 -17 -1 0 -56 18 -56 8 0 20 -4 27 -9 11 -6
11 -11 -2 -24 -13 -16 -10 -17 50 -12 36 3 63 9 62 15 -2 6 -8 10 -13 9 -15
-2 -13 35 2 40 7 3 13 1 13 -4 0 -6 5 -10 11 -10 6 0 8 7 5 15 -3 8 -8 21 -12
29 -4 11 74 13 483 12 268 0 556 1 638 3 83 2 161 1 175 -4 22 -7 23 -6 11 9
-8 9 -11 19 -7 23 3 4 12 -2 19 -12 20 -26 189 -33 625 -26 49 1 62 4 62 17 0
8 5 24 10 34 10 19 12 19 46 3 22 -11 33 -22 29 -31 -3 -7 1 -20 9 -28 18 -17
73 -19 79 -1 4 9 6 8 6 -2 1 -11 4 -11 16 -1 12 10 15 10 15 -1 0 -9 3 -10 11
-2 5 5 13 36 16 67 6 55 5 56 -20 56 -14 0 -37 -4 -51 -9 -16 -7 -26 -7 -28 0
-2 5 -23 11 -48 11 -25 1 -48 6 -51 11 -4 5 -65 9 -135 7 -71 -1 -154 -2 -184
-2 -30 1 -60 -4 -66 -9 -8 -6 -14 -6 -18 -1 -9 15 -89 13 -118 -3 -19 -9 -28
-10 -31 -2 -2 8 -160 12 -553 13 -302 2 -637 7 -744 13 -107 6 -202 11 -210
11 -8 0 -30 -16 -48 -35z"/>
<path d="M4348 3476 c-10 -7 -18 -16 -18 -20 0 -3 129 -6 288 -6 276 0 288 1
300 20 12 20 10 20 -270 20 -220 -1 -287 -4 -300 -14z"/>
</g>
</svg>
