<?xml version="1.0" standalone="no"?>
<!DOCTYPE svg PUBLIC "-//W3C//DTD SVG 20010904//EN"
 "http://www.w3.org/TR/2001/REC-SVG-20010904/DTD/svg10.dtd">
<svg version="1.0" xmlns="http://www.w3.org/2000/svg"
 width="1280.000000pt" height="800.000000pt" viewBox="0 0 1280.000000 800.000000"
 preserveAspectRatio="xMidYMid meet">

<g transform="translate(0.000000,800.000000) scale(0.100000,-0.100000)"
fill="#000000" stroke="none">
<path d="M0 4000 l0 -4000 6400 0 6400 0 0 4000 0 4000 -6400 0 -6400 0 0
-4000z m11740 1483 l-1 -1658 -95 100 c-52 55 -109 120 -126 145 -109 159
-350 405 -457 464 -17 9 -105 68 -192 127 -15 10 -81 46 -149 80 l-122 62
-210 13 c-199 13 -214 15 -272 43 -70 34 -97 39 -227 46 l-94 6 -85 84 c-92
92 -101 100 -174 147 -27 18 -85 70 -130 116 -45 46 -101 105 -126 131 -25 25
-57 64 -72 86 -51 77 -184 199 -314 287 -120 82 -312 138 -473 138 -26 0 -70
7 -97 15 -60 18 -212 19 -235 2 -9 -7 -24 -39 -33 -72 -22 -75 -36 -90 -93
-104 -103 -26 -193 -119 -193 -199 0 -17 -8 -53 -17 -82 -14 -44 -25 -57 -73
-90 -31 -21 -60 -44 -66 -51 -6 -8 -26 -61 -44 -119 -19 -58 -42 -120 -53
-138 -12 -20 -23 -65 -28 -115 -4 -45 -11 -96 -14 -113 -7 -29 -5 -31 75 -74
45 -24 89 -55 97 -67 21 -32 5 -69 -71 -162 -34 -41 -83 -102 -110 -135 -27
-34 -59 -70 -70 -81 -53 -51 -117 -136 -114 -151 4 -19 53 -38 173 -64 50 -11
127 -28 172 -39 101 -22 213 -16 259 14 16 10 49 30 73 43 25 13 58 34 74 48
16 13 38 24 49 24 25 0 74 -52 94 -98 28 -69 156 -282 177 -297 28 -20 68 -19
129 3 l50 17 31 -38 c28 -32 38 -37 74 -37 23 0 53 5 67 11 20 9 31 8 63 -9
50 -27 99 -42 134 -42 18 0 32 -7 39 -20 22 -40 90 -80 137 -80 39 0 92 -24
113 -52 8 -11 113 -58 129 -58 38 0 82 -25 87 -50 3 -14 9 -36 14 -50 5 -14
12 -41 16 -60 3 -19 17 -56 30 -82 13 -26 24 -53 24 -60 0 -7 20 -52 45 -101
25 -48 53 -106 62 -130 18 -47 62 -121 68 -115 2 2 0 22 -5 43 -5 22 -16 76
-26 120 -16 77 -76 240 -95 260 -11 11 -11 36 0 53 6 10 13 11 34 1 15 -7 27
-15 27 -19 0 -4 20 -29 45 -56 25 -27 62 -77 81 -111 19 -34 41 -66 49 -70 24
-14 55 -102 55 -156 0 -29 5 -70 11 -92 6 -22 17 -67 24 -100 8 -33 18 -78 24
-100 18 -70 -31 -112 -73 -63 l-19 22 -15 -22 c-13 -20 -23 -22 -115 -22 -99
0 -100 0 -141 35 -68 58 -70 60 -99 73 -47 21 -95 15 -136 -17 -73 -57 -88
-61 -251 -61 -83 0 -159 4 -168 9 -9 5 -42 12 -72 16 -53 6 -57 6 -68 -19 -8
-18 -19 -25 -39 -25 -76 0 -340 -12 -353 -17 -24 -9 -221 -34 -269 -34 -67 0
-232 -29 -268 -47 -28 -13 -33 -24 -48 -87 -14 -55 -26 -80 -55 -111 -20 -22
-58 -71 -84 -108 -43 -62 -47 -72 -43 -110 7 -53 22 -132 42 -222 27 -124 18
-185 -27 -185 -10 0 -36 -7 -58 -16 -38 -15 -40 -18 -40 -58 0 -49 -13 -66
-52 -66 -35 0 -48 24 -48 88 0 64 -15 78 -72 66 -45 -10 -50 -17 -70 -84 l-13
-45 -80 -5 c-44 -3 -111 -13 -150 -22 -38 -10 -109 -25 -156 -34 -47 -9 -92
-20 -99 -24 -9 -5 -17 -37 -21 -80 -3 -39 -10 -75 -16 -81 -6 -6 -25 -4 -53 6
-34 12 -51 13 -76 5 -26 -9 -39 -8 -65 6 -28 14 -38 14 -71 3 -33 -11 -44 -10
-74 4 -41 20 -67 21 -93 5 -16 -9 -27 -8 -59 6 -29 13 -51 16 -84 11 -33 -5
-54 -2 -78 10 -23 12 -43 15 -73 9 -23 -4 -52 -6 -64 -5 -13 1 -33 -5 -45 -13
-12 -9 -34 -16 -49 -16 -14 0 -38 -11 -53 -25 -28 -26 -36 -28 -74 -25 -12 1
-36 -10 -53 -24 -18 -16 -43 -26 -61 -26 -18 0 -42 -10 -60 -25 -18 -15 -42
-25 -62 -25 -19 0 -46 -10 -66 -25 -21 -15 -47 -25 -68 -25 -22 0 -45 -9 -64
-25 -21 -18 -41 -25 -72 -25 -30 0 -48 -6 -61 -20 -13 -14 -31 -20 -63 -20
-33 0 -52 -7 -75 -26 -25 -21 -36 -24 -69 -19 -36 6 -43 4 -73 -25 -32 -31
-36 -32 -65 -20 -29 12 -33 11 -59 -14 -23 -22 -38 -27 -77 -28 -27 0 -847 -2
-1821 -4 l-1773 -4 0 1623 0 1624 25 11 c21 10 33 9 62 -3 30 -13 43 -13 65
-4 15 6 38 8 50 5 29 -8 916 -21 1463 -21 451 0 721 16 980 57 72 11 153 24
180 28 128 20 244 42 285 55 25 8 77 19 115 26 39 6 110 24 160 40 49 16 96
29 105 29 15 0 244 70 310 95 19 8 80 32 135 54 55 21 121 45 148 51 26 7 50
16 53 21 6 10 91 49 106 49 34 0 624 311 734 387 16 11 61 39 99 63 39 24 79
49 90 57 97 64 178 121 243 168 42 30 116 81 163 113 47 31 105 70 130 87 24
16 59 42 77 57 18 15 39 28 47 28 7 0 29 14 47 31 18 17 47 36 63 43 17 7 41
25 55 39 14 15 32 27 41 27 9 0 34 16 55 35 22 19 44 35 51 35 6 0 30 16 53
35 23 19 47 35 53 35 7 0 32 16 56 35 24 19 50 35 59 35 8 0 30 14 49 30 18
17 39 30 47 30 7 0 30 15 52 33 21 19 52 37 68 41 17 4 45 21 63 37 19 16 41
29 49 29 9 0 34 16 57 35 22 19 50 35 61 35 12 0 39 14 60 30 22 17 43 30 48
30 4 0 27 14 50 30 22 17 48 30 57 30 9 0 38 16 65 35 27 19 57 35 66 35 10 0
34 14 55 30 21 17 45 30 55 30 9 0 36 14 59 30 23 17 56 33 74 37 18 3 48 19
68 35 20 15 46 28 56 28 11 0 39 14 61 30 23 17 52 30 64 30 13 0 43 14 67 30
24 17 55 30 68 30 13 0 34 9 46 21 26 24 59 39 90 39 12 0 42 14 66 30 25 17
57 30 74 30 20 0 41 10 58 26 17 16 43 28 70 31 24 3 56 16 71 29 29 23 81 40
97 30 5 -4 23 6 41 20 20 17 47 28 78 32 28 3 58 14 75 28 15 13 48 26 75 29
26 4 52 14 59 22 6 8 39 18 73 23 42 6 70 16 86 31 18 16 42 24 91 29 38 4
447 8 911 9 l842 1 0 -1657z m-3709 -3409 c11 -13 7 -26 -21 -82 -24 -47 -35
-81 -35 -112 0 -41 -2 -45 -24 -45 -19 0 -30 11 -48 44 -13 24 -23 54 -23 65
0 21 109 146 127 146 6 0 16 -7 24 -16z m757 -59 c21 -18 42 -25 71 -25 75 0
65 -42 -18 -85 -26 -12 -72 -44 -104 -71 l-59 -48 7 -55 c4 -31 11 -60 16 -66
5 -5 9 -29 9 -54 0 -25 8 -65 17 -89 19 -50 11 -62 -40 -62 -16 0 -38 -6 -50
-12 -12 -7 -71 -16 -132 -19 -109 -6 -474 6 -527 17 -41 8 -35 37 15 70 23 15
77 61 119 103 l77 75 51 -12 c29 -7 56 -10 61 -6 15 9 10 37 -11 69 -11 17
-20 38 -20 47 0 28 77 84 168 123 47 21 104 49 125 64 91 60 179 75 225 36z"/>
</g>
</svg>
