<?xml version="1.0" standalone="no"?>
<!DOCTYPE svg PUBLIC "-//W3C//DTD SVG 20010904//EN"
 "http://www.w3.org/TR/2001/REC-SVG-20010904/DTD/svg10.dtd">
<svg version="1.0" xmlns="http://www.w3.org/2000/svg"
 width="1280.000000pt" height="800.000000pt" viewBox="0 0 1280.000000 800.000000"
 preserveAspectRatio="xMidYMid meet">

<g transform="translate(0.000000,800.000000) scale(0.100000,-0.100000)"
fill="#000000" stroke="none">
<path d="M0 4000 l0 -4000 6400 0 6400 0 0 4000 0 4000 -6400 0 -6400 0 0
-4000z m12473 1855 c-4 -2820 -5 -3060 -12 -3033 -4 20 -10 25 -20 19 -7 -5
-10 -14 -7 -20 11 -16 -10 -13 -28 4 -13 14 -16 13 -26 -5 -8 -15 -8 -20 2
-20 7 0 2 -9 -11 -19 -20 -15 -23 -24 -18 -50 6 -26 4 -31 -13 -31 -11 0 -20
-5 -20 -11 0 -6 6 -9 12 -7 31 11 53 -54 23 -66 -11 -4 -15 1 -15 19 0 20 -5
25 -24 25 -31 0 -37 -17 -17 -52 14 -25 14 -29 1 -38 -12 -7 -12 -12 -2 -22 9
-9 12 -9 12 1 0 11 3 11 15 1 22 -18 18 -29 -6 -23 -14 4 -25 0 -31 -11 -5 -9
-19 -16 -31 -17 l-22 0 21 -9 c29 -11 39 -60 12 -60 -25 0 -36 -30 -14 -42 15
-8 15 -11 -1 -33 -10 -12 -21 -21 -25 -18 -10 6 -10 -1 2 -31 7 -19 6 -26 -3
-26 -7 0 -8 -3 -2 -8 16 -12 14 -72 -3 -72 -10 0 -12 -7 -8 -25 4 -14 2 -25
-3 -25 -13 0 -12 -82 1 -97 8 -9 6 -13 -4 -13 -7 0 -22 -14 -32 -31 -14 -24
-21 -28 -32 -18 -7 6 -21 9 -29 5 -10 -4 -15 1 -15 14 0 11 -3 20 -6 20 -13 0
-34 -30 -34 -50 0 -22 -1 -22 -25 -6 -24 16 -26 16 -49 -11 -27 -31 -26 -44 0
-22 15 12 18 12 27 -2 9 -15 12 -15 38 0 26 15 30 15 45 0 21 -22 10 -57 -19
-61 -26 -4 -36 -42 -12 -51 12 -5 14 -1 9 18 -5 19 -2 25 10 25 12 0 16 -10
16 -40 0 -34 3 -40 23 -41 l22 -2 -22 -4 c-22 -4 -33 -33 -13 -33 6 0 10 -7
10 -15 0 -8 -4 -15 -10 -15 -5 0 -10 -8 -10 -17 0 -13 -3 -14 -12 -5 -9 9 -16
8 -30 -5 -19 -17 -25 -53 -8 -53 6 0 10 -7 10 -16 0 -11 -6 -14 -20 -10 -11 3
-29 9 -41 12 -18 5 -20 3 -15 -14 5 -14 1 -24 -10 -30 -16 -9 -15 -11 5 -21
14 -8 21 -20 19 -34 -2 -17 2 -21 15 -19 19 3 92 -26 85 -34 -3 -2 -17 -5 -33
-6 -17 -2 -30 -9 -33 -20 -5 -19 -11 -21 -36 -12 -9 3 -13 10 -10 15 3 5 -1 9
-9 9 -18 0 -30 -41 -17 -54 7 -7 10 -3 10 9 0 16 2 17 13 6 7 -8 8 -15 2 -17
-27 -11 -34 -21 -28 -42 3 -13 13 -22 24 -22 27 0 24 -15 -3 -17 -13 -1 -32
-14 -43 -28 -12 -14 -28 -25 -37 -25 -9 0 -24 -7 -33 -16 -15 -15 -17 -15 -30
2 -13 18 -15 16 -30 -21 -21 -49 -19 -47 -39 -39 -15 6 -15 9 4 29 18 19 20
27 10 44 -15 29 -33 15 -26 -20 4 -22 2 -29 -10 -29 -13 0 -15 -7 -10 -30 5
-29 -6 -41 -19 -19 -4 6 -13 8 -20 5 -22 -8 -26 33 -4 47 10 6 19 16 19 21 0
4 -7 3 -15 -4 -8 -6 -19 -9 -25 -5 -5 3 -10 -2 -10 -13 0 -13 -9 -22 -25 -26
-16 -4 -25 -13 -25 -26 0 -11 -5 -20 -11 -20 -7 0 -10 12 -7 30 3 18 0 30 -6
30 -21 -1 -47 -28 -44 -47 2 -12 -3 -18 -17 -18 -11 0 -26 -4 -32 -8 -9 -5
-13 -3 -13 7 0 10 9 16 25 16 24 0 34 14 16 24 -4 3 -6 16 -4 29 3 14 -2 29
-11 36 -11 9 -16 10 -16 2 0 -6 -8 -11 -17 -11 -13 0 -14 -3 -6 -11 8 -8 8
-20 3 -34 -5 -13 -6 -26 -3 -29 4 -3 1 -6 -5 -6 -7 0 -12 9 -12 20 0 11 -4 20
-10 20 -5 0 -10 -7 -10 -15 0 -8 -7 -15 -15 -15 -9 0 -12 6 -9 15 4 10 0 15
-11 15 -13 0 -16 -6 -13 -25 6 -31 -5 -40 -25 -21 -18 19 -27 11 -27 -24 0
-23 6 -29 30 -33 18 -4 30 -13 30 -22 0 -8 7 -15 15 -15 27 0 155 -65 155 -78
0 -8 6 -12 12 -10 7 3 21 -4 32 -14 11 -10 27 -18 36 -18 9 0 26 -9 38 -21 12
-11 26 -18 30 -15 10 6 62 -40 62 -54 0 -6 9 -10 19 -10 11 0 32 -12 48 -26
15 -14 29 -21 31 -16 5 15 42 2 42 -14 0 -8 4 -14 8 -14 4 0 16 -14 25 -30 13
-22 26 -30 46 -30 16 0 31 -6 34 -13 3 -8 18 -13 36 -12 17 1 31 -1 31 -5 0
-13 -43 -20 -55 -10 -7 6 -14 7 -17 5 -3 -3 -18 -1 -33 5 -24 9 -30 8 -42 -10
-16 -23 -53 -26 -84 -7 -17 9 -23 9 -26 0 -3 -7 -9 -13 -14 -13 -6 0 -7 5 -3
12 5 8 2 9 -9 5 -9 -3 -19 -2 -22 3 -4 6 -21 10 -40 10 -19 0 -37 5 -40 10 -4
6 -10 8 -15 5 -5 -3 -18 2 -29 11 -10 9 -33 18 -51 19 -17 2 -48 16 -68 32
-28 23 -43 28 -62 23 -14 -4 -44 -10 -67 -14 -39 -6 -43 -4 -43 15 0 17 -5 20
-21 16 -24 -6 -32 0 -146 108 -107 101 -109 102 -133 73 -17 -20 -17 -24 -4
-34 8 -7 14 -16 12 -20 -8 -30 66 -133 146 -206 32 -29 38 -39 29 -49 -10 -10
-15 -10 -28 1 -8 7 -27 10 -42 7 -15 -3 -35 -1 -45 4 -9 5 -35 10 -58 11 -23
1 -52 10 -65 20 -13 10 -28 18 -34 18 -6 0 -11 5 -11 10 0 6 -7 10 -15 10 -8
0 -15 5 -15 11 0 5 -4 8 -9 5 -15 -10 -71 47 -71 71 0 14 -5 21 -13 17 -7 -2
-24 4 -37 16 -26 23 -46 26 -52 8 -3 -9 -6 -9 -11 -1 -4 6 0 19 10 28 14 14
14 18 2 26 -16 10 -79 1 -94 -13 -10 -9 10 -28 30 -28 6 0 3 4 -5 10 -8 5 -12
11 -10 14 3 2 14 -2 24 -10 11 -8 14 -14 7 -14 -13 0 -6 -40 9 -50 55 -36 70
-55 70 -86 0 -30 -4 -34 -37 -43 -40 -11 -61 -5 -44 12 16 16 13 37 -4 31 -24
-10 -17 10 9 26 18 12 22 20 15 35 -5 13 -8 15 -8 5 -2 -31 -61 -49 -61 -19 0
6 4 7 10 4 6 -3 10 0 10 7 0 7 -10 13 -22 13 -32 0 -37 -57 -8 -87 19 -20 19
-22 2 -38 -19 -19 -34 -17 -26 4 3 8 1 17 -5 21 -6 3 -11 -1 -11 -9 0 -9 -4
-16 -10 -16 -5 0 -6 8 -3 17 5 12 2 15 -10 10 -12 -5 -15 0 -12 21 2 15 4 37
4 50 1 12 7 22 15 22 8 0 17 7 20 16 5 13 2 15 -14 10 -66 -20 -63 -20 -55 4
5 15 2 26 -6 32 -10 7 -6 8 14 5 15 -2 27 0 27 4 0 5 -6 9 -12 9 -9 0 -8 4 2
10 13 9 13 11 0 20 -23 15 -40 12 -40 -7 0 -9 -3 -14 -6 -11 -3 4 -2 27 1 52
8 48 29 62 40 27 3 -11 19 -22 35 -26 17 -4 30 -11 30 -16 0 -5 9 -9 20 -9 11
0 20 7 20 15 0 8 -9 15 -20 15 -27 0 -25 18 3 23 12 2 1 5 -24 6 -51 1 -85 25
-59 41 7 4 19 6 27 3 8 -3 13 2 13 16 0 18 -3 20 -19 11 -28 -14 -31 -13 -31
16 0 14 -4 23 -9 20 -4 -3 -16 3 -26 14 -10 11 -24 20 -31 20 -10 0 -11 6 -4
26 13 32 13 37 -1 28 -6 -3 -15 0 -20 7 -10 17 -17 10 -29 -30 -8 -29 -7 -31
16 -31 15 0 24 -6 24 -15 0 -8 7 -15 15 -15 8 0 12 -6 9 -14 -3 -8 -12 -12
-20 -9 -9 3 -14 -1 -14 -11 0 -16 2 -16 30 0 32 20 44 16 34 -10 -3 -9 -16
-16 -28 -16 -29 -1 -63 -32 -72 -64 -6 -26 -19 -31 -49 -20 -14 6 -14 8 2 26
12 14 13 19 4 16 -8 -2 -17 8 -21 22 -5 18 -9 21 -13 10 -9 -22 -3 -66 12 -84
8 -9 10 -23 6 -33 -7 -16 -9 -15 -14 6 -4 14 -13 27 -21 29 -13 5 -13 3 -1
-11 9 -11 10 -17 2 -17 -6 0 -11 -5 -11 -10 0 -20 -38 -52 -52 -44 -8 4 -7 0
3 -12 23 -28 32 -57 16 -51 -10 4 -13 -3 -12 -21 3 -48 5 -53 14 -47 5 3 12 1
16 -5 4 -6 11 -8 16 -5 5 4 9 -1 9 -9 0 -19 -16 -21 -26 -5 -4 7 -12 -2 -19
-22 -9 -28 -9 -36 3 -46 14 -11 13 -15 -4 -35 -10 -13 -20 -24 -21 -26 0 -2
-11 2 -23 8 -13 7 -92 13 -203 15 -100 2 -184 4 -187 5 -3 1 -9 1 -15 0 -5 -2
-45 -2 -87 -1 -42 0 -80 -3 -83 -9 -3 -5 -11 -10 -16 -10 -6 0 -8 4 -5 8 3 5
-16 6 -42 2 -44 -7 -92 4 -92 20 0 4 -21 24 -47 44 -31 24 -57 36 -79 36 -32
0 -44 13 -44 50 0 21 -77 87 -117 100 -72 24 -258 42 -563 56 -41 1 -75 4 -75
5 0 10 -179 18 -191 8 -13 -10 -1054 -6 -1072 5 -8 5 -12 36 -12 95 0 48 -5
113 -11 145 -7 31 -9 59 -6 62 3 3 74 7 157 8 174 1 173 1 165 86 -4 30 -6 75
-5 100 1 76 -12 85 -127 84 -54 -1 -149 -5 -211 -9 -128 -7 -136 -3 -107 59
18 38 18 38 120 41 17 0 50 4 75 8 129 24 206 40 215 47 6 4 42 15 80 24 99
24 154 42 285 93 140 55 166 68 207 103 17 15 58 42 92 59 294 149 609 413
866 726 54 65 225 316 225 330 0 3 12 24 27 48 35 55 105 199 128 262 10 28
22 55 26 60 6 10 24 62 68 205 24 80 57 219 66 280 3 25 11 70 17 100 33 167
28 646 -9 820 -3 14 -9 57 -14 95 -5 39 -16 87 -24 108 -8 20 -14 41 -13 45 3
12 -57 230 -77 277 -6 17 -31 80 -55 140 -24 61 -65 152 -92 204 -26 52 -48
97 -48 102 0 4 15 12 33 19 17 6 70 35 117 65 47 29 123 77 170 106 93 57 122
80 151 121 21 29 16 58 -10 58 -9 1 -31 9 -49 19 l-33 17 28 13 28 13 -28 24
c-24 20 -35 23 -65 18 -36 -6 -108 -44 -85 -44 6 0 15 5 18 10 3 6 12 10 18
10 14 -1 -16 -25 -58 -47 -29 -15 -29 -15 -15 2 14 18 13 18 -18 0 -17 -11
-32 -22 -32 -26 0 -4 -11 -10 -24 -13 -13 -3 -26 -15 -29 -25 -3 -13 -20 -24
-48 -31 -40 -11 -150 -78 -164 -100 -13 -22 -34 -7 -81 55 -27 36 -62 83 -79
105 -50 65 -227 254 -275 293 -73 60 -114 95 -136 118 -12 12 -27 18 -33 14
-6 -3 -10 -2 -9 3 3 9 -55 58 -101 87 -9 6 -18 13 -21 16 -3 3 -12 9 -20 13
-39 18 -59 33 -53 39 3 4 1 7 -5 7 -7 0 -31 14 -54 30 -22 17 -45 30 -50 30
-6 0 -22 9 -37 19 -14 10 -35 21 -46 23 -11 1 -22 5 -25 8 -23 23 -110 70
-215 115 -22 9 -58 25 -80 35 -22 10 -87 33 -145 50 -58 17 -127 38 -155 47
-64 19 -211 49 -345 70 -195 30 -621 23 -815 -13 -11 -2 -36 -7 -55 -10 -113
-21 -292 -73 -442 -130 -685 -260 -1264 -794 -1568 -1447 -338 -727 -343
-1612 -11 -2320 22 -49 41 -91 41 -93 0 -10 154 -271 196 -331 269 -389 627
-699 1047 -907 87 -43 160 -82 163 -88 8 -13 87 -46 154 -64 30 -9 78 -22 105
-30 75 -21 216 -55 250 -60 17 -3 50 -9 75 -14 87 -17 206 -31 290 -34 47 -2
90 -4 96 -5 14 -1 34 -45 34 -74 0 -16 -3 -19 -9 -8 -7 11 -11 10 -20 -7 -8
-16 -23 -22 -58 -24 -39 -2 -49 -7 -51 -23 -2 -11 -7 -23 -10 -27 -4 -4 -59
-10 -122 -13 -191 -10 -212 -15 -228 -51 -16 -34 -15 -104 1 -105 6 -1 44 -1
83 0 40 2 75 -2 78 -7 3 -6 -1 -39 -9 -74 -9 -38 -15 -112 -15 -186 0 -89 -3
-124 -12 -127 -13 -4 -162 -14 -229 -15 -32 0 -38 -4 -49 -32 -6 -18 -16 -41
-21 -50 -5 -10 -9 -24 -9 -32 0 -20 -18 -24 -65 -15 -22 5 -59 8 -83 9 -34 0
-45 4 -53 23 -9 21 -9 21 -5 0 3 -19 1 -20 -25 -11 -15 5 -39 20 -53 33 -23
22 -27 22 -36 7 -8 -14 -9 -12 -10 11 0 15 6 27 13 28 9 0 9 2 0 6 -20 7 -15
20 8 26 12 3 18 10 15 15 -3 6 -3 18 0 27 6 13 9 14 16 3 6 -10 14 -6 33 17
24 29 35 59 14 38 -14 -14 -49 -5 -49 14 0 16 -48 63 -64 63 -35 -1 -56 -13
-51 -30 3 -10 1 -21 -5 -25 -5 -3 -10 -18 -10 -31 0 -16 -5 -24 -12 -21 -7 2
-13 14 -12 26 1 25 3 25 -32 6 -16 -8 -23 -15 -16 -15 6 0 12 -4 12 -10 0 -5
-13 -10 -30 -10 -16 0 -30 4 -30 9 0 6 -18 9 -39 7 -31 -2 -40 1 -44 15 -3 10
0 20 7 23 19 8 -17 27 -42 22 -19 -3 -23 0 -19 15 4 16 -1 19 -30 19 -21 0
-32 -4 -28 -10 4 -6 4 -18 1 -27 -6 -14 -9 -13 -22 6 -15 20 -14 23 15 48 17
15 30 37 30 48 -1 18 -2 18 -6 2 -3 -11 -11 -16 -19 -13 -10 4 -14 -2 -14 -19
0 -16 -6 -25 -15 -25 -8 0 -15 -2 -15 -4 0 -2 -3 -12 -7 -22 -5 -13 -3 -15 7
-9 10 6 12 4 7 -10 -4 -9 -2 -24 4 -31 9 -11 8 -14 -2 -14 -18 0 -35 12 -40
28 -3 10 -8 10 -24 -2 -19 -14 -19 -15 8 -27 15 -7 27 -16 27 -21 0 -5 -5 -6
-12 -2 -7 4 -22 8 -33 9 -16 0 -21 -4 -17 -17 2 -10 -1 -18 -7 -18 -6 0 -11
-7 -11 -15 0 -8 -4 -15 -10 -15 -5 0 -10 3 -10 8 0 4 -11 7 -25 7 -30 0 -32
-10 -5 -25 10 -6 22 -26 26 -45 7 -42 26 -59 54 -50 20 6 21 3 19 -44 -3 -61
-9 -64 -109 -66 -41 -1 -124 -6 -185 -11 -60 -5 -317 -8 -570 -6 -253 2 -485
2 -515 2 -30 -1 -64 -2 -75 -2 -454 2 -1120 3 -1210 3 -116 0 -277 3 -645 14
-197 6 -456 6 -513 0 -21 -2 -35 1 -31 6 3 5 1 9 -5 9 -5 0 -12 -4 -15 -8 -2
-4 -33 -5 -68 -1 -78 8 -417 4 -440 -6 -10 -4 -15 -11 -12 -16 6 -10 -31 -4
-76 11 -26 9 -57 14 -75 11 -15 -3 -135 -1 -244 3 -51 2 -96 8 -100 14 -3 5
-21 8 -38 6 -19 -2 -33 1 -33 7 0 6 -3 8 -8 5 -12 -7 -48 24 -37 32 6 4 16 20
23 36 10 23 10 31 0 44 -11 13 -14 10 -19 -24 -6 -39 -9 1494 -9 4821 -1 996
0 1813 0 1817 0 5 2733 7 6073 5 l6072 -2 -2 -1560z m-5461 944 c267 -14 487
-57 738 -144 120 -42 357 -153 443 -208 31 -20 59 -37 62 -37 9 0 251 -185
294 -224 98 -91 217 -220 297 -322 46 -60 84 -112 84 -117 0 -4 -8 -10 -17
-13 -62 -19 -162 -78 -259 -151 -31 -24 -61 -43 -68 -43 -6 0 -28 -16 -48 -35
-21 -18 -38 -31 -38 -28 0 4 -13 -6 -30 -22 -34 -32 -34 -60 1 -121 57 -103
87 -98 337 58 105 66 199 129 206 140 9 13 21 18 30 15 14 -6 92 -155 139
-267 66 -155 136 -448 163 -675 11 -95 13 -442 4 -501 -6 -32 -17 -109 -25
-171 -8 -62 -19 -122 -25 -134 -7 -11 -9 -23 -6 -26 3 -3 1 -14 -5 -25 -11
-20 -20 -64 -23 -105 0 -13 -4 -23 -8 -23 -5 0 -8 -6 -8 -14 0 -15 -41 -142
-61 -191 -7 -16 -13 -32 -14 -35 -8 -21 -38 -89 -47 -105 -6 -11 -18 -33 -27
-49 -41 -82 -208 -313 -281 -390 -28 -29 -61 -67 -73 -83 -36 -50 -248 -241
-351 -317 -149 -111 -357 -228 -566 -319 -104 -45 -390 -124 -515 -143 -208
-30 -321 -37 -529 -30 -201 6 -286 14 -406 38 -52 10 -73 15 -210 55 -110 32
-215 68 -218 76 -2 4 -11 7 -21 7 -9 0 -25 6 -36 14 -11 7 -31 17 -45 21 -45
14 -250 118 -250 126 0 5 -5 9 -10 9 -11 0 -89 49 -105 66 -5 5 -37 28 -69 50
-32 21 -68 51 -79 66 -12 16 -29 28 -39 28 -10 0 -18 7 -18 15 0 8 -11 17 -25
21 -14 3 -23 10 -20 14 2 4 -9 18 -25 30 -17 13 -30 27 -30 33 0 14 -43 57
-58 57 -7 0 -16 8 -19 18 -4 9 -17 25 -30 35 -13 10 -23 24 -23 32 0 7 -19 28
-41 46 l-41 33 -48 -27 c-67 -38 -71 -34 -11 11 28 20 51 41 51 45 0 4 -11 20
-24 34 -13 14 -30 37 -38 52 -7 14 -21 34 -30 45 -9 10 -24 33 -33 50 -54 107
-114 211 -124 214 -6 2 -8 8 -5 13 3 6 0 16 -6 24 -14 17 -62 140 -101 260
-16 50 -33 99 -38 110 -10 22 -17 50 -32 140 -6 33 -14 63 -18 68 -4 4 -40 1
-80 -8 -84 -17 -94 -18 -87 -6 3 4 26 11 51 14 25 4 59 14 76 23 31 15 31 17
25 67 -25 196 -28 562 -5 652 4 17 10 57 13 90 3 33 10 80 16 105 5 25 9 49
10 53 0 5 -46 6 -101 4 -59 -3 -96 -1 -88 4 8 5 35 9 60 9 25 0 66 3 91 6 l44
6 23 87 c38 140 108 325 172 455 68 137 69 138 127 224 23 35 42 67 42 72 0 5
4 10 8 12 4 2 31 35 60 73 108 146 338 376 482 482 242 180 543 335 805 413
22 7 58 18 80 26 105 34 253 58 425 67 25 1 54 3 65 3 11 1 95 -2 187 -7z m58
-5068 c20 -1 29 -10 40 -38 16 -43 17 -54 6 -136 -6 -43 -15 -67 -36 -90 -25
-28 -34 -32 -99 -35 -58 -4 -71 -2 -71 11 0 8 -8 25 -18 38 -10 13 -23 42 -30
64 -10 34 -9 42 3 51 9 7 15 16 14 20 -1 5 -1 32 0 61 l1 52 38 3 c35 3 97 3
152 -1z m-41 -460 c7 -5 11 -13 7 -19 -8 -14 20 -35 35 -26 9 5 10 1 5 -17 -4
-13 -10 -81 -13 -151 l-6 -127 -153 -3 c-130 -3 -155 -1 -159 12 -2 8 -4 54
-4 101 1 47 -2 107 -6 132 l-7 47 33 0 c19 0 44 3 56 6 18 5 25 0 35 -20 19
-42 48 -30 66 27 15 46 16 47 56 47 23 0 47 -4 55 -9z m-1304 -425 c28 -30 72
-32 78 -2 3 11 4 2 2 -21 -2 -24 1 -45 6 -49 5 -3 9 -8 9 -12 0 -9 -66 -39
-102 -48 -15 -3 -29 -12 -32 -20 -3 -9 -20 -14 -46 -14 -22 0 -40 -4 -40 -9 0
-13 -54 1 -67 18 -8 10 -15 12 -20 6 -5 -6 -25 -7 -48 -4 l-40 6 38 2 c47 1
49 21 1 21 -24 0 -34 4 -31 13 2 6 9 12 15 12 21 0 25 16 6 29 -27 20 -14 28
50 31 53 3 115 24 74 25 -10 0 -18 5 -18 11 0 6 9 9 20 6 11 -3 20 -1 20 5 0
6 9 8 20 5 11 -3 20 -1 20 4 0 20 63 9 85 -15z"/>
<path d="M8135 5303 c-19 -4 -130 -28 -510 -108 -93 -20 -267 -57 -385 -82
-118 -26 -230 -47 -247 -47 -18 -1 -33 -4 -33 -8 0 -5 0 -15 0 -23 0 -18 24
-20 42 -2 7 6 83 26 168 44 250 52 909 192 956 204 24 6 44 15 44 20 0 9 -3
10 -35 2z"/>
<path d="M8190 5183 c-8 -3 -179 -81 -380 -173 -492 -226 -658 -300 -670 -300
-5 0 -10 -8 -10 -17 -1 -17 -2 -17 -13 -1 -9 12 -17 14 -30 7 -21 -12 -22 -32
-3 -48 11 -9 19 -7 40 14 14 14 29 25 34 25 6 0 56 22 113 49 57 26 140 64
184 84 44 19 123 55 175 79 52 25 200 93 327 153 128 59 238 114 244 121 12
15 12 15 -11 7z"/>
<path d="M8229 5062 c-26 -20 -93 -76 -150 -124 -163 -135 -475 -393 -579
-478 -102 -82 -126 -107 -117 -116 3 -4 57 36 119 88 62 52 259 216 438 364
179 149 331 278 339 287 23 28 -2 18 -50 -21z"/>
</g>
</svg>
