<?xml version="1.0" standalone="no"?>
<!DOCTYPE svg PUBLIC "-//W3C//DTD SVG 20010904//EN"
 "http://www.w3.org/TR/2001/REC-SVG-20010904/DTD/svg10.dtd">
<svg version="1.0" xmlns="http://www.w3.org/2000/svg"
 width="1280.000000pt" height="800.000000pt" viewBox="0 0 1280.000000 800.000000"
 preserveAspectRatio="xMidYMid meet">

<g transform="translate(0.000000,800.000000) scale(0.100000,-0.100000)"
fill="#000000" stroke="none">
<path d="M0 7642 c0 -410 -10 -367 102 -422 47 -22 74 -43 87 -65 12 -20 44
-47 84 -69 35 -20 75 -46 88 -57 13 -12 34 -28 47 -36 12 -9 22 -20 22 -25 0
-6 8 -18 18 -27 40 -37 55 -83 61 -184 6 -89 8 -100 31 -117 32 -25 75 -25
148 -1 31 10 125 40 207 66 83 27 161 56 175 66 14 9 41 23 60 31 20 9 71 37
115 63 72 44 86 49 169 57 50 5 136 6 192 2 73 -4 108 -3 125 7 13 6 42 13 64
15 64 4 115 21 144 46 14 13 46 37 71 53 25 15 61 47 80 69 34 40 197 212 254
269 28 27 114 89 158 114 12 6 26 21 32 32 6 11 28 31 49 45 l38 26 588 0
c573 0 588 -1 606 -20 10 -11 21 -17 25 -15 4 2 15 -4 25 -15 10 -11 24 -20
32 -20 8 0 28 -8 46 -17 18 -9 52 -20 77 -24 25 -4 71 -16 102 -28 67 -25 225
-70 393 -112 66 -16 139 -35 163 -41 23 -6 62 -28 86 -49 24 -21 88 -59 142
-84 54 -25 107 -54 118 -63 29 -26 61 -107 81 -202 10 -47 29 -122 42 -168 14
-46 22 -90 19 -98 -8 -21 22 -154 42 -184 39 -59 83 -165 102 -252 12 -51 32
-138 46 -193 28 -116 30 -162 8 -193 -20 -29 -94 -68 -94 -50 0 8 -5 6 -10 -4
-6 -9 -12 -74 -15 -145 -2 -70 -7 -143 -9 -161 -9 -51 -37 -92 -64 -92 -21 0
-91 -45 -136 -87 -47 -45 -124 -141 -135 -168 -7 -16 -30 -50 -52 -74 -30 -34
-39 -39 -40 -25 -1 11 -2 26 -3 34 -1 8 9 44 22 80 50 138 50 136 47 361 -4
306 -14 407 -43 440 -13 14 -31 41 -40 60 -16 33 -19 34 -76 34 l-58 0 -24 47
c-13 26 -33 52 -44 58 -10 5 -25 22 -32 38 -12 24 -19 27 -54 24 -30 -2 -48 3
-74 22 -38 27 -56 37 -108 56 -18 7 -39 25 -47 40 -14 27 -89 100 -103 100 -4
0 -15 14 -24 31 -16 26 -22 29 -50 24 -28 -5 -39 0 -73 29 -22 20 -47 36 -55
36 -8 0 -24 3 -36 6 -17 5 -35 -12 -101 -93 -74 -90 -149 -169 -300 -314 -61
-58 -79 -89 -163 -284 -29 -66 -62 -136 -74 -155 -19 -31 -21 -50 -22 -175 0
-149 -13 -219 -57 -312 -34 -72 -56 -103 -114 -160 -57 -56 -81 -60 -116 -19
-13 15 -20 17 -24 8 -2 -6 -9 -10 -13 -7 -14 9 -40 -51 -40 -92 0 -25 -9 -52
-26 -76 -25 -38 -41 -105 -64 -277 -12 -85 -23 -129 -43 -166 -9 -16 -23 -45
-32 -64 -9 -19 -20 -44 -25 -55 -5 -11 -20 -45 -33 -75 -13 -30 -34 -75 -45
-100 -42 -90 -62 -156 -62 -205 0 -34 -7 -60 -21 -80 -11 -16 -24 -40 -29 -52
-14 -34 -37 -28 -60 17 -11 22 -24 40 -28 40 -22 0 -290 -116 -330 -143 -26
-17 -59 -39 -74 -49 -15 -10 -34 -18 -42 -18 -19 0 -76 48 -76 64 0 10 -72 95
-174 206 -7 8 -41 37 -75 64 -33 26 -64 59 -67 72 -4 14 2 47 12 77 16 44 19
79 17 222 -1 155 -4 180 -32 285 -61 232 -94 319 -186 500 -119 234 -205 415
-205 434 0 14 -72 90 -93 98 -11 5 -41 0 -75 -12 -80 -28 -82 -23 -82 157 0
162 9 192 78 263 34 34 92 70 114 70 29 0 122 57 183 111 64 57 70 66 72 103
2 67 10 97 33 121 23 25 21 39 -9 55 -14 7 -29 2 -66 -24 -43 -31 -85 -38 -85
-15 0 5 -8 9 -18 9 -19 0 -62 -39 -62 -56 0 -24 -140 -144 -168 -144 -6 0 -12
-3 -14 -7 -6 -14 -95 -53 -121 -53 -34 0 -41 14 -38 69 2 31 15 67 42 113 21
36 39 69 39 72 0 3 9 15 20 26 24 24 26 58 4 67 -15 6 -64 -32 -64 -50 0 -16
-108 -144 -169 -201 -25 -23 -65 -62 -90 -87 -55 -56 -85 -68 -100 -41 -6 11
-8 34 -5 53 3 21 0 41 -8 52 -13 18 -15 18 -60 0 -49 -19 -117 -78 -183 -157
-22 -27 -48 -56 -58 -65 -10 -9 -34 -38 -54 -64 -19 -26 -47 -60 -62 -76 -14
-16 -31 -35 -36 -42 -6 -8 -25 -33 -43 -55 l-32 -42 0 -495 0 -496 48 14 c63
20 69 19 95 -11 31 -36 111 -92 143 -100 39 -10 109 -83 111 -118 3 -34 17
-46 54 -46 l26 0 5 110 c6 122 2 142 -51 235 -28 50 -32 63 -23 85 6 14 22 54
37 90 14 36 30 73 35 82 6 10 10 26 10 36 0 21 18 42 37 42 14 0 18 -46 4 -54
-4 -3 -11 -19 -15 -36 -4 -24 0 -37 19 -58 26 -29 75 -57 115 -66 56 -12 118
-65 150 -128 16 -34 30 -68 30 -76 0 -7 8 -26 19 -40 26 -37 137 -281 162
-356 12 -33 36 -95 54 -136 45 -100 74 -283 91 -559 3 -51 12 -111 20 -133 24
-70 19 -95 -23 -116 -78 -39 -139 -47 -173 -22 -31 22 -70 115 -70 168 0 21
-12 73 -25 117 -14 44 -34 117 -45 163 -23 96 -34 120 -89 185 -21 26 -41 51
-43 56 -4 11 -148 81 -168 81 -9 0 -21 5 -27 11 -16 16 -53 1 -53 -22 0 -22
25 -75 47 -100 13 -16 32 -50 106 -189 38 -72 111 -286 126 -371 5 -30 19 -88
31 -129 12 -41 35 -129 52 -195 36 -143 74 -268 94 -307 8 -16 41 -59 73 -96
32 -37 61 -78 65 -90 4 -12 11 -22 16 -22 4 0 11 -11 14 -24 9 -37 95 -145
129 -163 17 -8 55 -17 85 -19 29 -1 59 -7 65 -12 14 -11 80 -26 185 -43 73
-11 92 -24 92 -63 0 -45 -161 -166 -265 -199 -27 -9 -95 -23 -150 -31 -118
-17 -120 -17 -206 76 -56 62 -79 69 -79 25 0 -37 -49 -219 -66 -245 -9 -14
-17 -53 -19 -97 -2 -57 -8 -79 -23 -95 -16 -18 -24 -20 -40 -11 -25 13 -34 50
-33 138 0 37 -1 109 -3 158 -1 50 3 131 11 180 22 146 21 177 -6 202 -12 11
-27 52 -40 108 -42 188 -85 335 -114 390 -6 11 -21 58 -34 105 -13 47 -31 109
-39 138 -8 29 -31 82 -50 117 -19 35 -39 76 -44 92 -11 37 -83 234 -109 301
-12 29 -46 90 -76 135 -30 45 -55 89 -55 97 -1 8 -21 47 -45 85 -25 39 -53 86
-64 105 -11 19 -35 53 -55 75 l-35 40 -1 -384 0 -384 39 -51 c21 -29 56 -65
76 -81 106 -83 155 -127 174 -158 20 -33 21 -40 11 -178 -6 -79 -13 -218 -15
-309 -3 -91 -10 -208 -16 -260 -9 -81 -12 -281 -8 -488 1 -60 -20 -102 -51
-102 -11 0 -20 -4 -20 -10 0 -13 -47 -13 -55 1 -4 5 -18 14 -30 19 -30 11 -52
44 -81 123 l-23 62 0 -626 -1 -627 87 -8 c108 -9 173 -9 281 1 131 12 188 -4
415 -111 200 -96 325 -137 457 -150 102 -10 185 -26 259 -50 41 -13 106 -29
145 -35 39 -5 105 -22 146 -37 l75 -27 -353 -3 c-304 -2 -360 0 -400 14 -26 9
-74 18 -107 20 -33 2 -90 7 -127 10 -45 4 -68 3 -68 -4 0 -6 5 -14 10 -17 33
-21 -11 -25 -251 -25 l-262 0 -41 33 c-23 19 -68 51 -101 72 -33 21 -62 41
-65 46 -8 12 -80 59 -90 59 -6 0 -10 -118 -10 -305 l0 -305 6400 0 6400 0 0
1118 c-1 1033 -2 1115 -17 1087 -9 -16 -22 -50 -29 -75 -40 -144 -154 -477
-188 -552 -13 -29 -34 -84 -46 -123 -13 -38 -30 -90 -40 -115 -10 -25 -28 -72
-41 -105 -13 -33 -40 -90 -59 -126 -20 -36 -44 -90 -54 -120 -10 -30 -32 -92
-51 -139 -18 -47 -50 -132 -70 -190 -21 -58 -52 -140 -69 -182 l-31 -77 -981
-1 -981 0 -7 69 c-7 85 1 108 53 152 47 39 48 44 37 165 -12 139 5 228 64 333
26 47 51 102 55 121 6 35 19 77 35 115 5 11 18 58 30 105 12 47 30 100 41 118
10 18 19 42 19 52 0 10 10 40 21 67 21 46 79 237 120 391 11 40 39 123 63 185
24 61 51 137 61 167 9 30 23 69 30 85 7 17 25 68 40 115 16 47 31 90 35 95 4
6 24 64 45 130 21 66 45 136 55 155 21 44 63 163 89 255 61 220 93 325 110
365 19 46 29 76 76 235 15 50 31 95 36 101 9 11 85 244 100 309 6 22 32 99 59
171 28 72 50 135 50 141 0 16 79 264 105 328 40 98 56 153 81 271 37 180 85
244 139 184 24 -26 69 -26 95 2 11 12 20 25 20 29 0 5 16 42 36 83 43 90 43
90 -27 271 -116 298 -121 320 -75 357 28 23 54 22 94 -2 40 -24 65 -65 93
-149 12 -36 46 -114 75 -173 30 -60 54 -110 54 -112 0 -2 38 -81 84 -177 46
-96 107 -226 136 -289 29 -63 72 -155 95 -205 61 -127 185 -404 185 -411 0 -6
48 -116 96 -222 13 -29 24 -58 24 -65 0 -7 7 -22 15 -33 13 -17 14 204 15
1849 l0 1867 -6400 0 -6400 0 0 -358z m10148 -84 c7 -7 12 -19 12 -27 0 -8 16
-47 35 -87 59 -126 69 -165 62 -261 -6 -79 -5 -85 12 -80 33 8 50 -13 72 -86
11 -40 34 -112 51 -162 81 -247 86 -275 68 -372 -18 -94 -41 -135 -121 -211
-40 -38 -73 -79 -78 -96 -5 -17 -29 -101 -54 -186 -35 -123 -49 -194 -66 -340
-37 -319 -61 -450 -82 -450 -4 0 -10 12 -14 28 -3 15 -15 34 -25 42 -16 14
-19 43 -30 300 -12 311 -19 367 -46 387 -27 20 -78 16 -99 -7 -10 -11 -26 -22
-36 -25 -34 -11 -76 -121 -93 -245 -9 -63 -20 -140 -26 -170 -5 -30 -14 -116
-20 -190 -17 -216 -42 -350 -65 -350 -19 0 -35 46 -35 100 0 28 -4 50 -9 50
-8 0 -16 -74 -30 -290 -10 -148 -12 -107 -16 340 -3 387 -11 495 -38 512 -30
20 -64 20 -116 2 -52 -18 -57 -22 -74 -69 -10 -27 -22 -68 -27 -90 -4 -22 -13
-62 -18 -90 -6 -27 -18 -129 -27 -225 -19 -204 -45 -433 -50 -438 -2 -2 -8 5
-14 16 -15 28 -30 132 -36 257 -5 105 -20 283 -31 371 l-5 42 -62 -3 c-35 -2
-83 -12 -110 -24 -64 -28 -77 -61 -88 -221 -4 -69 -15 -195 -23 -280 -9 -85
-18 -191 -22 -234 -13 -170 -25 -34 -37 436 -6 266 -12 725 -12 1020 0 524 0
538 20 557 28 27 183 121 201 121 18 0 21 -13 44 -240 24 -237 57 -490 64
-498 3 -3 6 171 6 386 0 228 4 401 10 416 6 16 38 44 82 72 40 26 99 64 132
85 58 39 80 46 90 31 5 -8 58 -334 71 -442 21 -160 35 -41 36 302 l0 238 32
22 c75 54 222 139 236 136 33 -7 84 -223 88 -373 1 -60 2 -114 3 -118 0 -5 5
-5 11 -1 8 5 9 72 4 239 -9 294 -6 322 43 355 20 14 44 28 52 33 8 4 47 27 85
52 74 47 93 53 113 33z m-1529 -995 c5 -21 17 -222 26 -448 9 -225 21 -470 26
-542 9 -123 8 -138 -12 -215 -23 -86 -42 -112 -89 -123 -58 -14 -186 -87 -198
-113 -7 -15 -20 -93 -29 -174 -9 -82 -20 -148 -23 -148 -17 0 -28 1514 -12
1605 7 36 14 43 102 98 182 113 194 117 209 60z m-414 -226 c4 -13 5 -318 2
-678 -2 -505 -6 -663 -16 -694 -13 -38 -14 -39 -24 -17 -7 14 -19 22 -36 22
-26 0 -157 -45 -178 -62 -16 -13 -28 13 -43 89 -10 48 -10 88 -1 175 10 102
40 574 56 883 8 146 17 178 58 203 18 11 61 38 97 60 36 23 68 41 72 42 4 0
10 -10 13 -23z m-344 -234 c7 -19 7 -192 -1 -553 -12 -624 -34 -1105 -57
-1290 -9 -72 -19 -17 -27 150 -9 188 -23 321 -34 332 -5 5 -38 -2 -78 -17 -38
-14 -91 -33 -118 -41 -49 -16 -50 -15 -68 8 -30 38 -32 65 -14 182 17 119 67
599 92 886 8 96 17 185 19 197 6 24 79 82 155 122 25 13 52 30 60 37 25 24 59
17 71 -13z m-406 -728 c-8 -401 -23 -783 -35 -880 -16 -125 -23 -388 -10 -405
9 -13 12 -12 26 5 15 20 15 20 29 1 23 -31 26 -71 18 -251 l-8 -170 -40 3
c-67 6 -69 11 -78 220 -11 260 -35 539 -48 563 -15 29 -27 27 -216 -51 -26
-11 -42 -74 -50 -200 -5 -68 -2 -92 11 -117 9 -18 16 -42 16 -54 0 -36 -31
-152 -45 -169 -20 -24 -34 -80 -36 -145 -1 -33 -7 -89 -12 -124 -8 -51 -12
-60 -19 -42 -8 22 -27 222 -48 506 -14 185 -16 195 -38 195 -36 0 -217 -85
-239 -112 -6 -7 -14 -42 -18 -78 -4 -36 -11 -69 -15 -75 -5 -5 -16 -98 -25
-205 -8 -107 -20 -222 -26 -255 -6 -33 -14 -100 -18 -150 -6 -88 -7 -89 -14
-40 -4 28 -12 75 -17 105 -5 30 -17 130 -26 223 -9 92 -21 191 -28 220 -11 50
-13 52 -46 54 -21 2 -61 -9 -100 -26 -79 -34 -75 -19 -85 -321 -4 -118 -10
-219 -12 -224 -3 -4 -9 -2 -14 5 -8 12 -11 11 -19 -1 -12 -19 -13 -207 -1
-214 12 -8 21 29 21 94 0 30 5 62 10 70 7 11 10 3 10 -29 0 -24 5 -72 12 -107
9 -49 9 -73 -1 -104 -9 -31 -9 -64 0 -145 9 -84 9 -124 -1 -195 -13 -94 -31
-125 -67 -118 -17 3 -18 24 -24 308 -4 169 -11 321 -17 340 -11 36 -37 198
-52 325 -5 39 -12 78 -15 88 -11 28 -62 20 -151 -23 -83 -41 -103 -64 -88
-105 4 -9 1 -72 -6 -141 -10 -94 -16 -124 -26 -120 -18 7 -27 -44 -19 -97 7
-40 8 -41 18 -17 10 25 10 25 17 -9 9 -36 4 -61 -11 -61 -5 0 -9 8 -10 18 0
14 -2 14 -9 -3 -17 -40 -11 -144 11 -187 12 -23 24 -67 26 -99 5 -53 -4 -84
-44 -148 -1 -2 -9 1 -16 8 -20 16 -36 137 -35 256 1 65 -5 121 -15 160 -9 33
-28 114 -43 180 -14 66 -32 126 -39 134 -12 12 -25 12 -89 1 -95 -16 -106 -12
-106 41 0 42 36 196 50 214 4 6 10 28 14 50 3 22 22 92 40 155 58 196 77 262
101 352 12 48 32 116 43 150 25 77 56 185 87 298 36 137 44 151 125 206 109
74 118 79 127 70 4 -4 10 -67 13 -139 l5 -132 28 105 c15 58 37 137 48 176
l21 71 125 82 c109 71 128 81 140 68 11 -10 15 -49 17 -155 1 -78 5 -144 7
-147 3 -2 22 73 43 168 56 258 36 227 219 341 55 34 57 27 58 -206 1 -206 1
-211 15 -153 7 33 18 85 23 115 27 154 53 288 62 315 9 30 35 50 182 142 68
42 100 52 111 34 4 -5 7 -134 7 -287 1 -295 10 -329 35 -140 7 55 20 148 28
206 9 58 16 111 16 118 0 18 41 51 143 114 83 51 93 55 105 40 10 -14 12 -82
7 -337z m445 -1342 c0 -21 -4 -44 -9 -52 -5 -8 -3 -24 5 -40 15 -29 19 -177 5
-200 -5 -8 -3 -34 5 -65 8 -28 14 -55 14 -61 -1 -19 -25 -42 -51 -48 -23 -6
-28 -3 -39 23 -7 17 -10 47 -6 72 3 24 10 102 16 173 15 205 21 235 45 235 11
0 15 -10 15 -37z m385 6 c6 -7 10 -266 9 -732 -1 -789 0 -779 -56 -785 -19 -2
-31 3 -43 21 -14 22 -15 81 -10 578 7 678 12 916 21 930 7 11 63 3 79 -12z
m409 4 c4 -9 9 -80 11 -157 3 -78 10 -169 17 -204 9 -48 9 -71 1 -93 -9 -23
-9 -54 -1 -121 7 -62 7 -106 0 -141 -7 -34 -7 -71 -1 -107 12 -66 20 -292 19
-490 -1 -141 -2 -146 -26 -168 -20 -17 -29 -20 -44 -12 -35 18 -40 46 -42 208
-1 130 2 164 15 192 15 30 15 37 2 77 -23 68 -20 111 10 125 23 10 25 17 25
74 0 53 -3 65 -22 78 -21 15 -21 23 -23 197 -1 174 0 184 21 208 20 24 21 27
6 49 -12 18 -13 28 -5 41 6 10 8 23 5 28 -5 8 -7 216 -3 231 3 9 30 -1 35 -15z
m828 -397 c3 -338 -1 -375 -35 -325 -13 18 -15 45 -11 153 10 288 27 539 35
519 4 -12 9 -168 11 -347z m-7880 227 c14 -16 29 -41 32 -57 4 -16 20 -45 37
-65 16 -20 29 -40 29 -45 0 -6 11 -22 25 -36 16 -17 27 -40 28 -63 1 -19 11
-45 22 -57 12 -14 15 -24 9 -28 -6 -4 -13 -17 -16 -29 -5 -19 -3 -21 21 -17
14 3 54 -3 87 -14 41 -13 67 -16 78 -10 11 6 27 4 49 -7 20 -10 33 -12 35 -5
2 5 10 10 18 10 8 0 14 5 14 11 0 8 16 10 51 6 42 -5 60 -2 103 19 54 27 110
80 121 113 3 11 18 30 33 42 15 11 30 28 33 37 6 16 7 16 14 0 7 -17 5 -25
-13 -58 -5 -8 -20 -40 -34 -70 -102 -221 -102 -221 -160 -306 -39 -58 -89
-114 -148 -169 -6 -5 -32 -33 -58 -61 -26 -29 -61 -59 -78 -67 -18 -9 -45 -39
-65 -73 -46 -76 -97 -134 -119 -134 -38 0 -46 9 -42 50 5 45 -10 70 -40 70
-28 0 -78 28 -78 44 0 22 -24 36 -86 47 -56 10 -114 40 -114 59 0 15 61 80 74
80 7 0 21 9 30 19 10 11 32 23 49 27 17 3 52 22 79 40 26 19 51 34 56 34 15 0
39 37 46 71 7 38 45 121 59 130 12 8 -1 49 -15 49 -6 0 -20 -7 -30 -17 -14
-12 -18 -13 -18 -3 0 11 -3 11 -12 2 -7 -7 -26 -12 -42 -12 -17 0 -50 -7 -73
-16 -33 -13 -53 -15 -86 -8 l-42 9 -3 53 c-2 28 -8 52 -14 52 -7 0 -7 4 1 14
16 19 4 45 -36 82 -49 47 -44 80 18 112 23 13 42 35 60 72 33 65 58 100 74
100 6 0 23 -12 37 -27z m7428 -185 c1 -2 6 -66 11 -143 13 -170 17 -425 7
-425 -5 0 -16 8 -26 18 -26 26 -37 197 -18 268 8 30 10 58 5 72 -11 29 -14
160 -5 190 6 17 24 31 26 20z m-1605 -138 c11 -21 13 -58 9 -156 -6 -158 -6
-207 2 -260 7 -47 -8 -84 -33 -84 -9 0 -24 -7 -34 -16 -16 -15 -18 -13 -30 26
-10 32 -10 58 -1 113 6 42 9 126 6 202 -5 119 -3 134 17 177 24 52 36 51 64
-2z m-412 -47 c4 -27 10 -68 16 -92 7 -34 5 -54 -7 -87 -14 -36 -14 -51 -3
-111 8 -38 11 -87 8 -109 -4 -21 -10 -66 -15 -99 -7 -46 -6 -71 6 -108 13 -40
14 -70 6 -177 -6 -72 -15 -135 -21 -141 -20 -20 -81 7 -87 39 -10 48 9 339 23
356 8 10 11 32 9 58 -6 53 9 184 24 212 9 17 15 113 17 269 0 53 17 46 24 -10z
m819 2 c30 12 53 -200 24 -224 -8 -7 -25 -9 -40 -5 -44 11 -57 96 -31 209 13
57 16 62 26 38 4 -13 14 -20 21 -18z m-4 -316 c2 -19 10 -41 18 -51 9 -9 14
-30 12 -49 -2 -26 -10 -37 -33 -48 -16 -8 -33 -19 -37 -25 -12 -18 -20 1 -25
64 -4 36 -1 84 7 116 13 52 14 54 34 41 13 -9 22 -27 24 -48z m-1328 -214 c6
-15 17 -25 29 -25 29 0 40 -28 47 -113 7 -75 -16 -228 -38 -254 -13 -16 -44
-17 -54 -1 -15 24 -13 418 3 418 2 0 8 -11 13 -25z m918 1 c12 -7 13 -21 12
-221 -1 -163 -6 -194 -36 -207 -21 -10 -28 -8 -45 9 -18 18 -21 36 -24 159 -3
118 6 242 20 265 5 8 58 4 73 -5z m370 -48 c8 -8 18 -9 35 -1 22 10 24 9 35
-44 8 -38 8 -79 2 -136 -5 -45 -11 -102 -12 -126 -4 -56 -26 -73 -66 -51 l-27
16 -2 154 c-3 194 2 221 35 188z m1287 -44 c16 -39 18 -105 8 -256 -5 -86 -8
-97 -26 -102 -45 -11 -63 49 -32 108 14 27 14 31 -4 50 -13 14 -18 29 -15 43
3 11 1 24 -5 27 -21 13 -12 71 14 96 14 13 25 31 25 40 0 15 8 30 17 30 1 0
10 -16 18 -36z m-815 -902 c0 -5 -33 -28 -72 -52 -240 -142 -345 -236 -298
-265 25 -15 5 -60 -77 -175 -93 -130 -110 -147 -137 -137 -15 6 -15 9 -2 35 8
16 22 34 30 41 22 18 39 83 24 92 -19 12 -2 107 25 143 13 17 27 40 31 52 16
52 252 206 396 260 41 15 80 18 80 6z m1501 -338 c86 -42 243 -134 312 -182
56 -40 69 -60 56 -84 -12 -23 -27 -16 -127 61 -41 31 -95 70 -120 88 -26 17
-73 51 -105 75 -32 24 -72 51 -90 60 -59 33 -1 18 74 -18z m-2183 -219 c3 -31
-2 -40 -96 -156 -24 -29 -57 -80 -74 -112 l-29 -59 20 -22 c11 -11 23 -34 27
-49 3 -16 17 -33 30 -39 22 -10 23 -15 18 -68 l-6 -57 32 -7 c51 -10 426 -7
454 4 28 10 60 64 52 86 -9 24 15 62 47 74 51 17 121 13 142 -10 10 -11 26
-20 37 -20 10 0 18 -4 18 -10 0 -5 9 -10 20 -10 11 0 20 -4 20 -9 0 -4 27 -11
60 -15 33 -4 60 -11 60 -15 0 -20 160 -47 178 -29 5 5 14 3 21 -6 7 -8 19 -12
27 -9 8 3 14 -1 14 -11 0 -36 45 -41 375 -42 176 0 329 -4 340 -7 11 -3 72 -9
135 -12 181 -10 272 -38 333 -102 22 -24 31 -49 47 -129 10 -55 21 -107 24
-114 2 -8 7 -27 10 -43 l6 -27 -384 0 c-332 0 -385 2 -390 15 -8 21 -128 21
-150 0 -10 -11 -36 -15 -86 -15 -60 0 -75 3 -88 20 -15 19 -32 21 -170 26
l-152 5 -24 -26 c-21 -22 -31 -25 -95 -25 -63 0 -71 2 -71 19 0 37 -22 42
-181 40 -85 -2 -160 -7 -166 -12 -7 -5 -13 -18 -13 -28 0 -17 -8 -19 -75 -19
-72 0 -75 1 -75 24 0 43 -17 47 -191 44 l-164 -3 -10 -33 -9 -32 -68 0 c-64 0
-68 1 -68 23 0 12 -7 33 -16 45 -15 21 -21 22 -174 22 -147 0 -160 -1 -170
-19 -5 -11 -10 -31 -10 -45 0 -26 -1 -26 -76 -26 l-76 0 6 30 c4 23 0 36 -14
50 -19 19 -34 20 -213 20 -204 0 -217 -3 -217 -46 0 -12 -3 -29 -6 -38 -6 -15
-140 -16 -1425 -16 -780 0 -1419 3 -1419 6 0 3 6 20 14 37 17 37 78 203 96
262 18 57 55 127 76 146 38 34 186 89 238 90 127 1 216 41 216 96 0 37 42 77
70 68 12 -4 28 -1 36 6 18 15 68 -4 62 -24 -6 -16 -47 -22 -61 -8 -7 7 -14 2
-24 -16 -17 -33 -17 -53 1 -53 8 0 30 -16 49 -35 l34 -34 194 -2 c202 -2 255
-3 635 -14 207 -6 232 -5 247 10 22 21 21 32 0 38 -10 3 -4 5 14 6 23 1 35 -5
43 -19 6 -11 7 -20 3 -20 -4 0 -3 -4 3 -10 5 -5 81 -12 169 -15 88 -3 219 -10
290 -14 72 -5 288 -10 480 -11 l350 -1 23 24 c12 13 20 30 17 38 -10 24 -121
89 -153 89 -57 0 -80 15 -80 53 0 37 -17 77 -32 77 -22 0 -8 21 25 37 19 9 35
20 35 25 0 4 14 8 30 8 20 0 30 -5 30 -15 0 -44 69 -16 90 35 15 37 36 38 80
5 19 -14 45 -25 58 -25 58 0 88 -56 57 -104 -9 -14 -16 -27 -16 -30 4 -24 -1
-36 -14 -36 -8 0 -15 -4 -15 -10 0 -5 6 -10 14 -10 7 0 27 -7 42 -15 18 -9 22
-15 13 -15 -17 0 -29 -19 -29 -45 0 -18 47 -65 64 -65 15 0 39 71 30 93 -3 9
6 33 20 54 23 33 30 37 60 35 26 -3 35 1 38 14 3 15 12 18 50 15 43 -2 51 1
91 38 26 25 55 65 71 101 18 39 37 65 54 74 15 8 44 32 64 54 70 74 141 92
146 37z"/>
<path d="M3553 6700 c-29 -12 -55 -63 -47 -95 10 -40 51 -77 77 -69 56 17 81
78 53 132 -21 40 -42 48 -83 32z"/>
<path d="M2214 6331 c-28 -17 -30 -22 -27 -66 2 -27 -1 -53 -9 -62 -20 -24
-21 -90 -1 -123 9 -17 21 -30 25 -30 4 0 14 -13 22 -29 20 -37 52 -46 67 -18
16 28 4 153 -19 195 -9 18 -27 35 -39 39 -13 3 -23 10 -23 17 0 28 14 56 26
56 8 0 14 9 14 20 0 24 2 24 -36 1z"/>
<path d="M1707 5718 c-25 -25 -27 -34 -27 -103 0 -88 8 -108 86 -210 29 -39
59 -86 66 -105 6 -19 29 -58 51 -87 21 -29 40 -58 41 -66 1 -8 9 -25 18 -39
10 -14 20 -37 23 -51 7 -26 33 -43 77 -50 22 -3 29 1 39 25 10 24 9 31 -5 47
-20 23 -21 75 0 92 20 16 144 18 233 3 54 -9 70 -17 98 -47 31 -34 33 -41 32
-104 -1 -61 1 -69 26 -91 23 -20 34 -22 69 -16 22 3 43 9 46 13 3 3 22 32 43
63 29 45 37 67 37 103 0 26 -5 55 -11 66 -17 33 16 62 61 55 66 -11 72 -11 83
6 22 33 -76 112 -258 207 -22 12 -47 31 -57 43 -16 21 -15 23 18 54 49 47 46
75 -13 115 -44 31 -48 32 -87 20 -118 -36 -132 -37 -170 -8 -35 28 -99 37
-111 17 -3 -6 -48 -10 -101 -10 -56 0 -94 4 -94 10 0 6 -11 10 -25 10 -14 0
-28 7 -31 15 -4 8 -11 15 -17 15 -6 0 -19 8 -30 18 -15 12 -21 14 -24 5 -6
-17 -50 -17 -55 -1 -3 8 -14 3 -31 -14z"/>
<path d="M11968 5364 c-99 -96 -92 -208 33 -471 32 -68 43 -84 66 -89 16 -3
34 -7 41 -10 9 -2 12 -34 12 -113 0 -104 2 -113 36 -187 60 -134 67 -145 96
-160 39 -20 48 -43 48 -128 0 -51 6 -88 19 -118 50 -115 73 -156 110 -196 27
-28 41 -51 41 -70 1 -97 72 -291 150 -405 16 -25 30 -51 30 -59 0 -31 59 -211
86 -261 15 -28 36 -68 45 -87 18 -34 18 -25 19 382 l0 418 -24 15 c-13 9 -34
39 -46 67 -12 28 -44 73 -72 101 -60 59 -76 94 -76 162 0 69 -73 223 -134 285
-43 43 -45 49 -51 116 -5 53 -18 97 -53 175 -58 131 -79 154 -135 145 -37 -6
-41 -5 -34 11 17 40 35 108 35 129 0 35 -112 311 -150 372 -21 32 -39 28 -92
-24z"/>
<path d="M11302 3482 c-7 -12 -10 -26 -8 -31 3 -5 -1 -11 -8 -14 -8 -3 -19
-21 -25 -39 -20 -66 -42 -124 -60 -158 -11 -19 -22 -53 -26 -75 -7 -35 -27
-95 -56 -160 -8 -20 -51 -143 -90 -260 -11 -33 -26 -71 -33 -85 -17 -32 -29
-127 -17 -134 5 -3 19 14 31 39 12 25 28 51 35 58 7 7 19 35 28 62 9 28 25 77
37 110 11 33 23 79 25 103 2 24 8 49 13 55 5 7 13 23 17 37 3 14 18 50 33 80
14 30 29 64 33 75 3 11 13 38 21 60 9 22 23 74 33 115 10 41 22 80 27 87 5 6
8 31 6 55 -3 41 -4 42 -16 20z"/>
<path d="M11655 2358 c-11 -7 -25 -16 -30 -22 -16 -17 -75 -156 -75 -177 0
-10 -6 -22 -12 -26 -7 -4 -22 -26 -34 -48 -17 -32 -20 -50 -15 -95 6 -53 7
-55 36 -55 34 0 39 9 106 176 54 133 78 248 54 255 -5 2 -19 -2 -30 -8z"/>
<path d="M10923 1149 c-19 -20 -16 -78 12 -201 14 -61 25 -125 25 -142 0 -17
16 -82 36 -143 35 -107 38 -113 63 -113 42 0 77 46 126 164 32 78 45 126 50
179 3 39 8 87 11 105 3 17 1 32 -5 32 -5 0 -11 -10 -13 -22 -2 -17 -9 -22 -24
-21 -29 3 -104 53 -104 70 0 7 -3 13 -8 13 -4 0 -13 14 -20 30 -16 36 -37 48
-94 56 -29 4 -47 1 -55 -7z"/>
</g>
</svg>
