<?xml version="1.0" standalone="no"?>
<!DOCTYPE svg PUBLIC "-//W3C//DTD SVG 20010904//EN"
 "http://www.w3.org/TR/2001/REC-SVG-20010904/DTD/svg10.dtd">
<svg version="1.0" xmlns="http://www.w3.org/2000/svg"
 width="1280.000000pt" height="800.000000pt" viewBox="0 0 1280.000000 800.000000"
 preserveAspectRatio="xMidYMid meet">

<g transform="translate(0.000000,800.000000) scale(0.100000,-0.100000)"
fill="#000000" stroke="none">
<path d="M0 7800 l0 -200 6400 0 6400 0 0 200 0 200 -6400 0 -6400 0 0 -200z"/>
<path d="M5930 4638 c-30 -16 -66 -38 -80 -47 -14 -9 -38 -23 -54 -30 -24 -10
-27 -14 -15 -22 10 -8 8 -9 -10 -4 -16 5 -21 4 -17 -4 4 -6 1 -9 -7 -5 -18 6
-83 -30 -80 -44 2 -6 -4 -9 -12 -6 -22 9 -38 -5 -25 -21 9 -11 4 -21 -24 -46
-20 -17 -36 -38 -37 -48 0 -10 -2 -11 -6 -3 -2 6 -10 12 -16 12 -14 0 -77 -74
-77 -89 0 -6 -5 -10 -11 -9 -5 2 -31 -36 -57 -84 -26 -49 -64 -116 -85 -149
-21 -34 -39 -71 -40 -83 -1 -11 -8 -25 -15 -31 -6 -5 -21 -57 -33 -115 -11
-58 -27 -127 -34 -155 -27 -97 -35 -168 -25 -225 9 -51 31 -212 46 -340 5 -41
23 -85 69 -170 35 -63 69 -127 76 -141 52 -100 73 -131 106 -156 44 -33 95
-83 142 -137 24 -28 57 -50 121 -77 48 -21 104 -49 124 -63 20 -13 51 -28 69
-31 18 -4 49 -16 70 -27 31 -15 51 -18 105 -14 37 3 114 8 171 11 57 3 112 10
123 16 10 5 47 19 81 30 34 10 71 23 82 27 11 5 51 19 88 32 54 18 78 32 114
71 41 44 50 49 90 49 34 0 60 9 111 40 101 59 102 60 65 56 -18 -2 -38 -8 -45
-14 -32 -25 -91 -52 -115 -52 -27 0 -26 1 22 50 27 28 56 50 64 50 7 0 20 8
28 18 8 9 12 12 9 5 -10 -18 10 -24 25 -7 10 12 9 18 -4 31 -15 15 -14 19 4
45 11 15 26 28 33 28 7 0 47 34 88 75 41 41 78 75 82 75 8 0 -20 -40 -58 -84
-30 -34 -32 -48 -11 -66 13 -11 21 -9 45 8 16 12 33 22 38 22 5 0 15 7 22 15
7 8 18 15 24 15 6 0 4 -5 -5 -10 -22 -13 -60 -78 -50 -85 5 -2 20 10 33 28 35
47 78 116 78 123 0 4 8 17 17 28 10 12 11 15 3 9 -22 -20 -32 -15 -25 10 4 12
-7 2 -24 -23 -24 -35 -122 -120 -139 -120 -9 0 31 60 57 84 17 17 31 34 31 39
0 5 18 30 41 55 40 46 71 104 67 126 -1 6 3 20 9 31 6 11 20 58 32 105 12 46
26 89 31 96 12 14 33 137 33 192 0 23 3 42 8 42 5 0 9 -11 9 -24 0 -31 10 -57
19 -51 4 2 7 -23 6 -56 -2 -75 11 -86 20 -17 3 29 11 77 17 107 8 45 6 75 -17
197 -19 102 -30 141 -39 138 -10 -4 -10 -19 1 -72 7 -37 18 -92 23 -122 5 -30
14 -56 20 -58 13 -5 13 -42 0 -42 -5 0 -10 -15 -11 -32 -1 -28 -3 -25 -14 20
-7 30 -17 57 -21 60 -4 4 -4 -2 0 -13 4 -11 4 -16 0 -12 -4 3 -8 35 -10 69 -2
35 -12 99 -23 143 -12 44 -21 90 -21 101 0 12 -6 27 -14 34 -8 6 -13 17 -10
24 7 18 -29 97 -77 169 -24 34 -46 64 -49 67 -11 8 -32 51 -27 56 2 3 12 -7
21 -21 9 -14 22 -23 28 -19 7 4 8 3 4 -4 -9 -14 12 -55 24 -47 5 3 12 0 16 -6
4 -8 3 -9 -4 -5 -7 4 -12 4 -12 -1 1 -14 31 -48 43 -48 7 0 11 -8 9 -18 -3
-18 55 -107 70 -107 4 0 8 2 8 5 0 14 -84 144 -90 140 -4 -2 -7 1 -7 8 0 7
-13 32 -29 56 -16 24 -34 52 -40 62 -19 32 -46 58 -68 65 -11 4 -45 31 -74 61
-34 36 -58 53 -68 49 -8 -3 -12 -2 -9 4 3 6 -1 10 -9 10 -9 0 -16 -4 -16 -10
0 -6 -9 -5 -24 1 -14 7 -22 17 -19 25 5 14 -113 78 -128 68 -5 -3 -9 0 -9 5 0
15 -58 38 -99 39 -61 1 -176 33 -266 73 -11 5 -40 10 -65 11 -25 2 -44 8 -43
13 2 14 -39 17 -242 21 l-170 3 -55 -31z m314 -64 c5 -12 15 -14 44 -10 20 3
53 2 72 -3 19 -5 28 -10 20 -11 -23 -2 29 -21 84 -31 27 -5 54 -16 61 -26 12
-15 18 -16 44 -6 33 12 75 7 65 -8 -3 -5 -10 -7 -15 -4 -21 13 -7 -8 23 -36
36 -33 71 -39 66 -12 -2 10 -14 23 -26 29 -32 16 -11 21 67 18 41 -1 69 -7 75
-16 6 -8 18 -12 27 -10 8 1 24 -7 35 -19 l19 -21 -36 6 c-20 3 -43 8 -52 12
-11 4 -17 1 -17 -8 0 -7 -11 -15 -25 -16 -14 -1 -25 3 -25 8 0 6 -7 10 -15 10
-8 0 -15 -9 -15 -20 0 -18 5 -20 41 -15 34 4 40 2 35 -10 -5 -13 2 -18 24 -17
3 0 19 3 35 6 25 5 37 0 73 -32 23 -20 42 -45 42 -54 0 -9 5 -20 10 -23 12 -7
4 -25 -11 -25 -6 0 -7 5 -3 11 4 8 0 8 -15 0 -27 -15 -27 -31 -1 -24 31 8 52
-14 38 -41 -6 -11 -7 -18 -3 -14 5 5 15 -1 23 -13 8 -11 20 -18 27 -16 8 4 12
-4 11 -21 -1 -15 4 -26 9 -25 6 1 11 -12 12 -27 2 -21 -2 -28 -11 -24 -22 9
-29 -15 -12 -41 10 -15 22 -22 31 -18 9 3 23 -1 33 -9 9 -8 25 -18 36 -22 15
-5 16 -9 6 -21 -10 -12 -10 -24 -1 -54 6 -21 11 -47 11 -58 0 -11 7 -26 15
-33 9 -7 15 -29 15 -52 0 -65 38 -112 41 -50 1 24 2 23 8 -8 3 -19 3 -36 -1
-38 -11 -5 -10 -66 1 -77 5 -6 13 -43 17 -83 6 -65 5 -72 -10 -66 -11 4 -15
13 -11 28 6 21 6 21 -9 2 -9 -11 -16 -32 -16 -48 0 -15 -10 -46 -22 -69 -16
-31 -19 -45 -11 -58 6 -9 16 -15 22 -13 6 1 11 -12 11 -30 0 -39 -14 -66 -24
-49 -4 6 -4 16 -1 21 3 6 2 10 -4 10 -5 0 -9 -19 -9 -42 1 -62 -60 -168 -97
-168 -9 0 -15 -6 -12 -12 2 -7 12 -12 21 -12 9 1 16 -4 16 -11 0 -7 2 -19 5
-27 8 -20 -37 -64 -65 -63 -22 0 -25 -4 -22 -33 1 -20 -2 -31 -8 -27 -16 10
-81 -47 -74 -67 5 -16 -23 -39 -55 -44 -24 -4 -35 -22 -23 -36 8 -11 4 -17
-18 -26 -15 -7 -61 -44 -101 -82 -56 -53 -76 -66 -86 -58 -8 6 -16 8 -20 4 -3
-3 0 -6 8 -6 8 0 4 -6 -9 -16 -12 -8 -22 -21 -22 -29 0 -13 -56 -35 -87 -35
-7 0 -13 -9 -13 -19 0 -10 -7 -21 -15 -25 -8 -3 -15 -1 -15 4 0 17 -30 11 -57
-10 -14 -11 -32 -20 -39 -20 -8 0 -14 -7 -14 -15 0 -12 -13 -15 -59 -15 -32 0
-79 -3 -105 -6 -37 -5 -46 -4 -46 8 0 19 -68 32 -86 17 -9 -7 -24 -4 -51 9
-21 11 -57 23 -80 27 -26 4 -52 17 -70 35 -33 35 -58 39 -50 10 6 -23 3 -24
-23 -10 -11 6 -17 16 -14 24 7 17 -51 60 -71 52 -8 -3 -15 -1 -15 4 0 6 -7 10
-15 10 -9 0 -18 6 -21 14 -3 8 -17 17 -30 20 -22 6 -23 8 -9 22 8 8 15 18 15
20 0 14 -96 104 -111 104 -10 0 -28 14 -40 32 -13 18 -17 28 -8 23 11 -6 11
-5 2 5 -6 7 -9 18 -7 25 4 8 -6 16 -25 20 -17 4 -31 13 -31 21 0 8 -5 14 -10
14 -6 0 -9 3 -8 8 1 7 -17 56 -29 75 -3 6 -1 7 4 4 11 -7 28 22 18 31 -3 3 -5
0 -5 -7 0 -8 -5 -7 -16 3 -8 9 -22 16 -30 16 -7 0 -16 12 -20 28 -6 30 -18 66
-30 96 -5 14 -4 17 4 12 7 -4 12 -3 12 3 0 5 -4 11 -10 13 -5 2 -11 30 -14 63
-14 165 -19 188 -38 193 -14 3 -16 7 -7 18 15 18 3 67 -14 58 -7 -4 -4 2 6 13
19 22 23 43 7 43 -5 0 -10 14 -10 30 0 17 4 30 8 30 5 0 7 14 4 30 -2 18 0 30
7 30 6 0 8 -7 5 -15 -5 -12 -2 -13 17 -6 25 8 36 49 38 130 1 28 -2 33 -19 28
-10 -3 -21 0 -24 7 -3 6 -3 -6 0 -26 3 -20 3 -51 -1 -70 -8 -33 -8 -33 -17 -8
-5 14 -7 37 -4 52 3 15 1 30 -3 33 -5 3 -7 14 -4 25 3 11 9 17 14 14 5 -3 9 0
9 6 0 6 4 9 10 5 5 -3 17 6 26 20 9 14 21 22 28 18 8 -5 8 -3 1 8 -15 19 -13
91 2 96 13 5 29 -40 20 -54 -9 -14 10 -36 23 -28 8 5 10 20 7 40 -4 24 3 48
25 91 17 32 37 65 45 72 22 22 35 53 29 68 -3 7 1 17 8 21 7 5 19 19 26 32 6
13 7 21 2 17 -6 -3 -14 -2 -17 4 -8 13 -48 -22 -76 -65 -10 -16 -19 -24 -19
-16 0 11 -5 9 -22 -5 -17 -14 -16 -11 5 14 15 19 27 39 27 45 0 7 16 29 35 49
36 39 59 41 68 7 7 -26 16 -24 53 9 35 30 50 62 31 62 -7 0 -4 5 5 11 12 7 24
7 37 0 20 -11 31 -5 31 16 0 17 58 77 83 86 11 4 17 1 17 -8 0 -8 7 -15 15
-15 15 0 20 27 17 86 -2 31 8 46 39 57 13 4 16 1 12 -14 -5 -19 -2 -20 32 -13
27 5 36 4 31 -5 -4 -6 -1 -11 8 -11 9 0 16 9 16 20 0 13 5 17 14 14 18 -7 59
14 51 25 -6 11 23 23 36 15 5 -3 8 0 7 8 -2 10 10 12 52 9 30 -1 57 -7 58 -12
5 -13 60 -11 68 3 4 6 -1 17 -11 25 -18 12 -18 13 2 13 11 0 24 -7 27 -16z"/>
<path d="M5915 4218 c-27 -9 -55 -32 -130 -108 -14 -14 -24 -34 -23 -45 2 -12
-2 -19 -9 -17 -8 1 -13 -9 -13 -24 0 -22 -2 -25 -15 -14 -8 7 -15 18 -15 26 0
7 -9 18 -21 24 -16 9 -25 8 -40 -6 -10 -9 -19 -23 -19 -31 0 -16 32 -17 48 -1
9 9 12 9 12 0 0 -7 -5 -12 -11 -12 -7 0 -9 -12 -5 -35 6 -30 4 -34 -10 -28 -9
3 -20 0 -25 -8 -6 -10 -9 -8 -10 11 0 14 -3 20 -5 13 -3 -6 -1 -28 5 -48 9
-35 8 -39 -20 -62 -16 -14 -29 -33 -29 -44 0 -10 -4 -19 -9 -19 -5 0 -22 -33
-37 -72 -15 -40 -32 -78 -36 -85 -5 -6 -5 -14 2 -18 5 -3 10 -21 10 -38 0 -19
-4 -27 -8 -20 -5 8 -13 9 -22 3 -13 -8 -13 -10 1 -10 36 0 51 -47 47 -140 -2
-55 1 -92 8 -101 7 -8 14 -30 17 -49 5 -32 11 -55 33 -129 5 -17 4 -22 -4 -17
-8 5 -8 -1 -1 -23 6 -17 20 -33 31 -37 15 -4 18 -12 14 -30 -5 -18 3 -39 29
-79 40 -62 42 -73 18 -71 -24 2 -27 -26 -6 -49 10 -11 38 -45 61 -75 51 -65
68 -76 87 -60 8 6 19 9 25 5 5 -3 10 -1 10 4 0 6 -15 17 -32 25 -23 10 -27 15
-14 15 21 1 107 -74 98 -85 -4 -4 -2 -4 5 0 13 7 113 -41 126 -61 5 -8 30 -13
65 -13 31 0 70 -7 86 -15 32 -17 60 -20 51 -5 -3 5 0 7 8 4 9 -3 16 3 20 15 3
13 13 21 27 21 11 0 18 5 15 10 -3 6 -1 10 4 10 6 0 11 7 11 15 0 8 -8 15 -18
15 -10 0 -23 5 -30 12 -7 7 -12 8 -12 3 0 -6 -4 -4 -9 4 -5 8 -29 16 -57 17
-26 2 -52 9 -58 15 -8 9 -7 10 3 4 10 -5 12 -4 7 4 -4 6 -12 9 -17 5 -11 -7
-64 25 -55 33 3 3 12 0 20 -6 8 -7 20 -10 26 -6 29 18 -11 58 -48 49 -15 -4
-24 -3 -20 1 5 5 -2 13 -15 20 -15 8 -21 19 -20 38 2 27 -10 36 -22 17 -8 -13
-26 -3 -24 13 1 7 1 19 0 27 -1 13 -2 13 -11 0 -11 -16 -13 -15 -50 40 -8 12
-21 28 -27 36 -7 7 -13 20 -13 29 0 9 -4 14 -9 11 -5 -4 -13 8 -16 26 -10 46
-33 90 -59 110 -18 15 -19 18 -3 18 12 0 17 8 17 26 0 14 -4 22 -10 19 -6 -4
-7 9 -4 35 3 22 2 40 -3 40 -12 0 -33 -51 -26 -64 3 -6 0 -5 -8 2 -11 10 -11
18 0 48 7 19 10 38 7 41 -3 4 -6 1 -6 -6 0 -7 -4 -9 -10 -6 -16 10 -12 45 5
45 9 0 15 9 15 25 0 15 6 25 14 25 20 0 46 -44 46 -78 0 -42 20 -93 33 -87 7
3 2 -2 -10 -11 -13 -9 -23 -24 -23 -33 0 -13 2 -14 9 -2 7 11 12 7 20 -20 10
-31 10 -31 7 -5 l-4 30 18 -25 c17 -21 20 -22 25 -7 4 10 0 32 -9 49 -20 41
-20 55 0 63 10 4 14 14 11 26 -3 11 -1 23 4 26 5 3 9 10 9 16 0 6 -6 6 -15 -2
-25 -21 -40 2 -21 32 16 24 12 68 -6 68 -6 0 -7 12 -4 28 5 20 4 23 -4 12 -7
-11 -10 4 -10 53 0 56 -3 67 -17 67 -9 0 -13 3 -9 7 12 13 35 11 47 -3 6 -8
15 -14 19 -14 15 0 73 64 61 68 -6 2 -11 13 -11 25 -1 21 -1 21 -15 -3 -11
-20 -14 -21 -15 -7 0 13 -6 17 -22 15 -18 -2 -23 -9 -21 -29 1 -17 -4 -26 -14
-26 -9 0 -13 7 -10 17 3 13 0 16 -15 12 -21 -5 -41 -36 -31 -46 4 -4 -3 -9
-15 -13 -12 -3 -22 -9 -22 -14 0 -5 -11 -3 -25 3 -24 11 -35 38 -16 38 5 0 12
8 14 18 3 10 5 6 6 -10 2 -41 26 -35 55 15 14 23 26 38 26 33 0 -5 7 -3 15 4
11 9 12 17 5 30 -11 20 8 60 58 127 13 17 23 33 22 35 -1 2 1 15 5 31 4 16 3
33 -4 41 -17 20 10 37 46 30 22 -4 32 -2 36 10 4 9 3 16 -1 16 -4 0 -13 4 -21
9 -12 8 -12 12 2 25 9 9 19 17 22 16 20 -1 26 2 35 21 7 11 9 28 6 36 -6 14
-10 13 -30 -6 -13 -12 -26 -18 -30 -13 -3 5 6 14 19 20 14 7 25 19 25 28 0 10
5 14 15 10 8 -3 19 3 25 13 7 15 5 25 -9 43 l-19 23 -22 -25 c-26 -30 -43 -32
-50 -6 -7 24 -17 27 -55 14z"/>
<path d="M6320 4200 c0 -5 6 -10 13 -10 8 0 8 -3 -2 -9 -12 -8 -13 -15 -4 -34
11 -23 9 -26 -12 -31 -14 -4 -40 -20 -59 -36 -18 -17 -36 -30 -40 -30 -3 0
-15 -9 -27 -21 -20 -20 -21 -20 -34 -2 -13 17 -14 17 -21 0 -3 -10 -2 -23 5
-30 6 -6 11 -16 11 -22 0 -5 -5 -2 -11 8 -11 18 -39 24 -39 7 0 -5 -8 -10 -17
-10 -10 0 -27 -13 -38 -29 -11 -17 -21 -28 -24 -26 -2 2 -12 0 -22 -6 -14 -7
-17 -16 -12 -42 3 -17 10 -33 15 -35 4 -2 8 -13 8 -25 0 -14 3 -18 8 -10 12
19 32 0 26 -25 -4 -14 -13 -21 -27 -19 -39 4 -47 -36 -50 -237 -1 -143 -5
-186 -15 -186 -22 0 -25 -30 -6 -51 l19 -21 7 28 c6 24 7 22 3 -8 -2 -21 0
-38 5 -38 5 0 11 21 13 48 l3 47 2 -49 c2 -42 4 -47 17 -36 13 10 15 9 15 -12
0 -20 -5 -24 -30 -23 -16 0 -30 4 -30 9 0 5 -3 7 -6 4 -3 -3 -1 -14 4 -25 5
-10 16 -31 23 -48 8 -16 24 -40 36 -51 21 -21 22 -71 1 -58 -5 4 -8 14 -5 23
3 14 -1 16 -25 13 -27 -4 -29 -7 -24 -33 3 -16 1 -29 -4 -29 -6 0 -10 -7 -10
-15 0 -8 -5 -14 -11 -12 -18 3 -30 -50 -14 -63 10 -9 18 -7 33 8 18 18 19 18
31 1 6 -11 17 -19 25 -19 8 0 16 -6 19 -14 4 -10 0 -12 -14 -9 -26 7 -25 -18
1 -42 20 -18 21 -18 27 3 6 23 29 30 35 10 3 -7 12 -9 22 -5 15 6 15 9 -5 37
-13 16 -31 30 -41 30 -11 0 -15 5 -12 14 8 21 -25 66 -50 67 -20 0 -20 1 -1 8
11 5 22 4 23 0 2 -5 9 -9 15 -9 7 0 29 -16 51 -35 21 -19 42 -35 48 -35 5 0 6
-5 2 -11 -10 -17 -11 -109 -1 -116 4 -3 17 3 28 13 14 12 23 14 30 7 12 -12
69 11 69 27 0 5 9 8 20 7 10 -1 17 -3 15 -5 -2 -2 1 -17 6 -34 7 -25 5 -31
-11 -35 -23 -6 -33 -30 -17 -40 6 -4 29 -8 49 -8 31 -1 38 3 38 17 0 10 -10
22 -22 27 l-23 8 21 7 c12 4 42 -1 68 -9 45 -16 72 -13 61 6 -3 5 1 6 9 3 9
-3 16 -1 16 5 0 6 5 11 11 11 5 0 7 -5 4 -10 -3 -6 1 -13 11 -17 10 -4 20 0
26 10 5 10 21 17 38 17 16 0 33 7 38 16 5 9 15 15 23 12 8 -3 22 6 33 19 10
13 24 22 32 19 7 -3 23 9 36 27 12 18 25 34 29 37 13 9 35 72 45 130 15 81 28
129 35 124 5 -2 6 8 3 23 -11 69 -14 97 -7 81 12 -26 33 -7 40 37 5 32 4 37
-10 32 -12 -4 -17 3 -22 33 -4 22 -4 44 -1 49 3 5 1 11 -5 13 -8 3 -9 27 -2
85 10 88 4 115 -29 150 -12 13 -21 36 -21 52 0 17 -4 28 -9 25 -5 -4 -8 0 -6
7 3 13 -14 79 -33 127 -8 20 -13 22 -45 16 -27 -5 -35 -4 -30 5 4 6 2 11 -4
11 -6 0 -10 6 -8 14 2 8 -6 22 -17 31 -18 15 -17 15 15 0 l35 -16 -22 20 c-13
10 -23 30 -23 43 0 30 -42 71 -74 73 -24 1 -24 0 6 -27 17 -15 35 -25 39 -22
5 3 9 -4 9 -16 0 -12 -4 -18 -10 -15 -5 3 -10 1 -10 -6 0 -7 -14 0 -30 16 -23
22 -33 26 -39 17 -6 -10 -11 -9 -22 4 -12 16 -12 17 4 11 9 -3 17 -3 17 1 0
15 -16 30 -37 36 -19 6 -22 4 -16 -11 3 -10 3 -15 -1 -11 -6 5 -12 23 -15 49
-2 12 -79 31 -99 25 -15 -5 -24 -1 -32 14 -11 21 -30 27 -30 10z m183 -144
c18 -7 45 -30 61 -51 17 -21 49 -60 73 -87 47 -53 60 -80 103 -205 27 -77 29
-98 35 -284 3 -125 2 -198 -4 -195 -5 4 -21 -43 -35 -104 -14 -61 -37 -127
-49 -148 -13 -20 -31 -49 -40 -63 l-16 -26 -53 14 c-29 9 -61 16 -70 16 -9 1
-15 5 -12 8 2 4 -17 20 -43 35 -68 38 -142 133 -178 226 -10 27 -22 45 -28 41
-6 -3 -7 -1 -3 5 4 6 -2 33 -12 59 -24 59 -49 270 -41 338 4 28 12 87 19 131
8 54 8 93 2 116 -13 47 14 115 54 136 l29 14 -32 -33 c-28 -29 -31 -39 -25
-64 l8 -29 24 40 c13 21 35 51 48 67 14 15 22 27 16 27 -5 0 2 7 16 14 33 18
112 20 153 2z"/>
<path d="M12125 418 c-126 -5 -2906 -11 -6177 -13 l-5948 -5 0 -200 0 -200
6400 0 6400 0 0 200 0 199 -117 4 -118 3 118 2 c70 1 117 6 117 12 0 11 -315
10 -675 -2z"/>
</g>
</svg>
