<?xml version="1.0" standalone="no"?>
<!DOCTYPE svg PUBLIC "-//W3C//DTD SVG 20010904//EN"
 "http://www.w3.org/TR/2001/REC-SVG-20010904/DTD/svg10.dtd">
<svg version="1.0" xmlns="http://www.w3.org/2000/svg"
 width="1280.000000pt" height="800.000000pt" viewBox="0 0 1280.000000 800.000000"
 preserveAspectRatio="xMidYMid meet">
<g transform="translate(0.000000,800.000000) scale(0.100000,-0.100000)"
fill="#000000" stroke="none">
<path d="M0 4000 l0 -4000 6400 0 6400 0 0 4000 0 4000 -6400 0 -6400 0 0
-4000z m8385 3460 c3 -5 20 -10 36 -10 22 0 32 -6 39 -25 8 -22 15 -25 61 -25
36 0 55 5 64 16 6 9 28 22 48 29 30 10 40 10 54 -1 10 -7 44 -16 76 -20 35 -4
61 -12 64 -20 6 -16 83 -20 99 -5 19 17 82 20 95 4 9 -9 22 -13 40 -9 16 3 40
-1 56 -9 15 -8 49 -15 74 -15 48 0 64 -10 71 -45 3 -16 11 -20 38 -18 110 6
173 4 183 -6 17 -17 58 -13 73 7 8 10 13 12 14 5 0 -7 6 -13 14 -13 8 0 27
-11 43 -24 16 -13 47 -28 68 -31 22 -4 45 -12 52 -17 7 -5 21 -7 31 -4 12 4
25 -1 37 -14 10 -11 23 -20 30 -20 6 0 11 -10 11 -22 -1 -31 39 -38 47 -9 8
31 50 27 72 -5 14 -22 22 -25 47 -20 16 3 38 1 49 -4 10 -6 47 -13 82 -15 56
-3 62 -6 65 -27 6 -34 23 -50 48 -44 16 4 23 1 27 -13 3 -14 15 -21 43 -23 34
-3 39 -6 42 -30 2 -19 9 -28 21 -28 10 0 34 -18 54 -40 25 -28 44 -40 62 -40
15 0 48 -11 74 -25 25 -13 76 -38 113 -54 38 -17 74 -42 84 -56 9 -14 26 -25
39 -25 46 0 141 -69 116 -85 -6 -3 -11 -13 -11 -21 0 -10 13 -14 47 -14 32 0
53 -6 67 -19 12 -11 44 -31 72 -45 28 -14 57 -33 64 -41 7 -8 18 -15 24 -15 6
0 16 -10 21 -22 7 -16 20 -24 42 -26 21 -2 34 -10 38 -23 4 -10 15 -19 25 -19
29 0 32 -16 5 -28 -39 -18 -32 -42 11 -42 27 0 37 5 41 20 7 27 14 25 49 -11
26 -28 29 -35 26 -92 -4 -72 8 -94 54 -103 28 -5 32 -3 42 26 7 19 16 29 23
25 8 -5 8 -10 0 -18 -6 -6 -11 -21 -11 -34 0 -19 5 -23 31 -23 35 0 89 -49 89
-81 0 -10 9 -23 20 -29 11 -6 20 -17 20 -24 0 -8 7 -19 15 -26 8 -7 15 -23 15
-36 0 -19 5 -23 33 -22 55 1 97 -15 110 -42 11 -21 19 -25 54 -22 33 3 44 -1
57 -20 9 -12 16 -29 16 -38 0 -8 7 -28 15 -44 8 -15 15 -37 15 -47 0 -11 7
-19 15 -19 8 0 15 5 15 10 0 14 22 12 56 -4 16 -8 41 -19 57 -25 17 -7 27 -18
27 -31 0 -11 4 -20 9 -20 5 0 8 -15 7 -32 -1 -29 3 -34 33 -44 18 -6 38 -18
43 -27 5 -10 20 -17 32 -17 29 0 38 -18 45 -90 5 -45 10 -55 26 -58 50 -7 65
-13 59 -23 -11 -19 6 -60 30 -69 18 -6 23 -14 19 -29 -4 -15 1 -22 20 -26 14
-4 35 -5 48 -3 17 2 24 -3 29 -22 3 -14 14 -26 25 -29 34 -6 46 -22 40 -51 -4
-18 -1 -31 9 -39 9 -7 18 -28 22 -47 4 -23 12 -34 24 -34 10 0 23 -6 29 -14 8
-10 10 -315 9 -1137 l-3 -1124 -42 -3 c-31 -2 -43 -8 -43 -19 0 -13 -10 -15
-70 -9 -66 7 -71 6 -78 -14 -7 -20 -9 -20 -21 -6 -8 9 -25 16 -38 16 -21 0
-24 -4 -20 -20 8 -31 -36 -70 -78 -70 -30 0 -35 -3 -35 -24 0 -14 5 -28 10
-31 17 -11 11 -25 -11 -25 -30 0 -49 -24 -49 -63 0 -50 -16 -59 -94 -51 -56 6
-66 4 -66 -9 0 -9 9 -19 21 -22 14 -5 18 -10 11 -17 -7 -7 -22 -6 -45 1 -44
15 -87 5 -87 -19 0 -33 -12 -50 -35 -50 -13 0 -25 -7 -29 -15 -7 -20 -70 -20
-86 0 -8 10 -30 14 -64 14 -75 -1 -86 -6 -86 -40 0 -29 -1 -29 -55 -29 -30 0
-55 5 -55 10 0 6 5 10 10 10 6 0 10 7 10 16 0 14 -8 16 -51 11 -60 -7 -56 -5
-61 -37 -3 -23 -1 -24 45 -21 28 1 47 -2 47 -8 0 -15 -76 -14 -100 1 -17 11
-22 10 -29 0 -7 -12 -128 -13 -707 -8 -1498 12 -1828 17 -1843 32 -13 12 -15
126 -19 766 -2 414 -5 759 -7 766 -3 6 -16 12 -31 12 l-26 0 7 -775 c6 -648 5
-776 -6 -780 -23 -8 -2018 -11 -2032 -3 -7 4 -53 47 -103 96 -101 102 -196
157 -322 187 -78 19 -102 35 -102 66 0 24 -26 25 -33 0 -5 -21 -28 -26 -177
-41 -187 -19 -397 -90 -421 -143 -6 -13 -44 -54 -85 -91 l-74 -67 -387 1
c-389 0 -413 3 -413 36 0 16 -26 19 -35 4 -7 -12 -35 -13 -35 -2 0 14 -98 110
-116 114 -21 4 -42 70 -25 76 35 12 -33 92 -78 92 -12 0 -25 12 -35 30 -8 16
-10 30 -5 30 12 0 11 34 -2 47 -7 7 -6 12 5 16 8 3 20 -1 26 -9 7 -8 25 -14
41 -14 24 0 29 4 29 25 0 14 -6 25 -13 25 -8 0 -22 9 -32 20 -17 19 -17 20 0
20 14 0 16 6 11 31 -3 17 -6 40 -6 51 0 14 -6 19 -22 16 -20 -3 -23 -8 -21
-41 3 -42 -8 -46 -39 -15 -14 14 -18 23 -10 26 7 2 12 10 12 18 0 8 5 14 10
14 6 0 10 11 10 25 0 14 5 25 10 25 19 0 10 32 -10 37 -23 6 -27 23 -5 23 9 0
15 9 15 25 0 16 -6 25 -15 25 -8 0 -15 5 -15 10 0 11 19 14 67 11 20 -2 43 6
62 20 45 33 40 49 -13 49 -25 0 -48 4 -51 10 -3 5 -22 10 -41 10 -24 0 -34 4
-31 13 2 8 22 11 66 9 l63 -4 -4 28 c-2 15 -10 30 -18 34 -62 31 -65 31 -95
16 -31 -16 -52 -12 -36 7 5 7 11 26 13 42 3 29 5 30 56 33 37 2 52 7 52 18 0
7 7 14 15 14 19 0 19 19 -1 58 -12 25 -22 32 -45 32 -22 0 -29 -5 -29 -19 0
-11 6 -21 12 -23 8 -3 2 -12 -14 -22 -20 -13 -31 -15 -46 -7 -27 15 -15 65 16
69 26 4 29 24 6 43 -14 11 -13 15 8 31 13 9 29 18 37 18 7 0 25 12 38 27 24
25 25 28 9 54 -20 34 -20 49 -1 49 8 0 15 7 15 15 0 8 -5 15 -10 15 -6 0 -15
11 -20 25 -5 14 -16 25 -25 25 -8 0 -15 5 -15 10 0 6 7 10 15 10 18 0 21 50 4
67 -7 7 -3 12 15 17 31 8 34 32 6 41 -11 3 -20 13 -20 21 0 8 -7 14 -16 14
-29 0 -4 18 34 25 32 5 40 12 50 39 16 42 15 61 -2 75 -15 12 -10 51 6 51 31
0 51 63 26 88 -9 9 -7 13 5 18 23 9 21 31 -8 88 -17 34 -22 53 -15 60 19 19
11 46 -14 46 -13 0 -28 6 -33 13 -15 17 -22 66 -11 69 5 2 13 19 18 38 7 32 9
33 15 13 8 -26 45 -32 45 -8 0 8 -9 15 -20 15 -16 0 -19 5 -14 28 4 18 1 32
-8 40 -18 15 -15 105 3 111 8 2 20 12 27 23 7 10 20 18 28 18 21 0 17 38 -5
45 -12 4 -18 12 -14 20 3 9 -9 31 -26 51 -50 56 -30 82 44 60 11 -3 28 0 38 8
16 12 16 18 5 55 -9 29 -20 44 -35 48 -26 6 -31 23 -8 23 17 0 20 26 5 35 -8
5 -7 11 0 20 6 8 10 38 9 67 -3 43 0 53 14 56 11 2 17 13 17 31 0 36 22 66 44
58 12 -5 15 -13 10 -33 -6 -23 -4 -25 17 -22 18 2 25 10 27 31 2 15 -1 27 -6
27 -5 0 -9 12 -10 28 0 42 -14 86 -28 95 -15 8 -18 35 -8 61 8 22 21 20 27 -3
3 -13 17 -22 41 -26 20 -4 36 -11 36 -16 0 -5 7 -9 15 -9 19 0 19 26 0 34 -8
3 -15 17 -15 32 0 26 -2 26 -45 22 -38 -5 -45 -3 -45 12 0 14 9 17 58 16 55
-1 57 0 60 27 2 16 14 34 29 44 18 12 23 23 20 40 -3 16 0 23 11 23 10 0 13 8
10 29 -4 25 0 31 19 36 13 3 23 13 23 23 0 22 34 52 60 52 26 0 25 23 -1 59
-12 16 -18 34 -14 40 9 16 27 3 23 -18 -3 -18 1 -21 27 -21 18 0 20 40 3 41
-7 0 -3 4 10 9 28 12 38 36 22 55 -10 12 -9 15 4 15 9 0 16 7 16 15 0 8 -7 15
-15 15 -24 0 -17 20 9 30 14 5 30 18 36 30 7 13 21 20 40 20 19 0 30 5 30 14
0 7 7 19 15 26 8 7 15 21 15 32 0 10 -7 21 -15 24 -19 8 -19 23 1 45 9 10 20
33 24 51 6 29 8 31 16 13 13 -32 46 -54 82 -55 25 0 32 4 32 19 0 11 -11 28
-24 39 -14 11 -21 23 -16 28 4 5 10 17 12 27 2 15 14 19 54 21 28 2 56 6 63
10 17 11 14 66 -4 66 -8 0 -15 5 -15 10 0 6 5 10 10 10 6 0 10 7 10 15 0 9 11
20 25 25 14 5 25 16 25 25 0 8 5 15 10 15 6 0 10 -4 10 -10 0 -15 30 -12 36 3
3 8 17 11 39 9 27 -3 35 -1 35 12 0 10 -9 16 -22 17 -21 1 -21 2 -3 6 11 3 24
9 29 13 5 5 22 6 37 3 18 -3 29 -1 29 6 0 6 11 11 24 11 38 0 56 10 56 31 0
11 6 28 12 39 10 16 10 22 -5 33 -17 11 -15 14 15 24 18 7 59 16 90 22 32 6
69 18 83 27 15 10 25 12 25 5 0 -6 9 -11 20 -11 11 0 20 7 20 15 0 8 -4 15
-10 15 -5 0 -10 5 -10 10 0 6 7 10 15 10 8 0 15 9 15 20 0 15 7 20 29 20 20 0
30 6 34 20 3 13 14 20 30 20 38 0 84 28 91 55 4 14 12 25 19 25 7 0 18 9 25
20 9 15 23 20 60 20 52 0 65 6 75 33 6 17 33 22 91 18 16 -2 41 3 55 9 14 7
37 18 50 24 13 6 27 20 31 32 7 17 20 22 65 28 32 3 66 11 78 18 18 9 24 7 42
-16 26 -33 45 -33 45 -1 0 18 7 28 24 35 13 5 27 13 30 18 3 5 30 7 60 4 57
-5 109 12 148 45 12 11 27 13 50 8 18 -3 54 -9 80 -12 45 -5 46 -4 59 31 8 23
19 36 31 36 10 0 23 11 28 24 7 20 17 24 67 29 32 3 90 12 128 20 39 9 109 17
158 19 75 4 89 2 104 -14 9 -10 30 -18 50 -18 26 0 33 4 33 20 0 22 20 26 38
8 14 -14 172 -21 172 -7 0 27 106 38 217 23 39 -6 43 -4 53 20 10 27 24 33 35
16z m885 -5430 c24 -13 350 -377 350 -391 0 -5 -35 -9 -77 -9 -43 0 -161 -3
-263 -6 l-185 -7 -52 74 c-113 160 -204 283 -224 305 -12 12 -18 27 -15 32 8
14 441 15 466 2z m948 -1254 c-33 -25 -11 -61 27 -46 17 7 27 4 40 -10 15 -17
15 -19 -1 -28 -10 -6 -15 -16 -11 -26 8 -19 37 -22 37 -2 0 9 22 15 76 19 42
4 80 4 85 1 19 -12 7 -24 -23 -24 -84 0 -106 -32 -36 -51 24 -6 57 -24 75 -39
17 -16 41 -31 52 -35 16 -5 20 -12 15 -29 -8 -33 38 -69 82 -63 27 4 31 2 27
-14 -5 -18 -21 -19 -334 -19 -208 0 -330 4 -334 10 -3 6 1 10 9 10 20 0 21 34
1 50 -9 8 -11 17 -6 28 18 35 31 90 31 128 0 21 4 44 8 50 14 21 40 23 58 3
20 -22 54 -25 54 -5 0 8 7 16 15 20 8 3 15 1 15 -4 0 -6 9 -10 20 -10 11 0 20
7 20 15 0 8 -9 15 -19 15 -26 0 -30 8 -24 47 5 32 29 48 48 31 6 -6 4 -14 -7
-22z m-2278 -126 c6 -10 26 -22 45 -26 28 -5 35 -11 35 -30 0 -25 9 -28 48
-18 15 4 22 14 22 30 0 16 5 22 19 21 13 -1 17 -7 13 -20 -6 -23 59 -87 88
-87 11 0 34 -9 52 -20 18 -11 46 -20 61 -20 15 0 30 -7 33 -15 10 -25 43 -18
54 11 6 14 19 28 29 31 11 3 22 14 24 25 5 16 11 19 29 14 13 -3 42 -9 65 -12
39 -6 42 -5 49 20 3 14 4 33 0 41 -7 19 14 19 60 0 40 -17 44 -48 6 -53 -12
-2 -22 -10 -22 -18 0 -13 -13 -19 -34 -15 -22 4 -66 -12 -66 -24 0 -16 43 -45
69 -45 26 0 51 -10 51 -21 0 -14 -227 -11 -251 4 -17 10 -23 10 -26 0 -4 -10
-48 -13 -178 -13 -188 0 -235 5 -235 26 0 10 -13 14 -40 14 -33 0 -40 -3 -40
-20 0 -18 -7 -20 -65 -20 -65 0 -65 0 -82 35 -17 37 -43 45 -64 22 -9 -9 -26
-11 -56 -7 -49 8 -64 17 -44 30 8 4 12 17 8 29 -6 22 7 38 18 21 3 -5 19 -10
36 -10 24 0 29 4 29 25 0 21 5 25 29 25 20 0 34 8 45 25 13 19 22 24 40 19 16
-4 25 -1 29 10 4 9 13 16 20 16 8 0 22 9 32 20 20 22 47 14 65 -20z"/>
</g>
</svg>
