<?xml version="1.0" encoding="utf-8"?>
<svg width="1200" height="1200" preserveAspectRatio="xMidYMid meet" xmlns="http://www.w3.org/2000/svg">
  <defs>
    <pattern id="pattern-0" x="0" y="0" width="20" height="20" patternUnits="userSpaceOnUse" viewBox="0 0 100 100">
      <path d="M 0 0 L 50 0 L 50 100 L 0 100 Z" style="fill: black;"/>
    </pattern>
  </defs>
  <g>
    <title>background</title>
    <rect x="-1" y="-1" width="2402.022512" height="2402.022512" id="canvas_background" fill="none"/>
  </g>
  <title>Layer 1</title>
  <path d="M 507.5 1064 C 507.8 1064.5 508.3 1065 508.6 1065 C 508.8 1065 509 1064.5 509 1064 C 509 1063.4 508.5 1063 507.9 1063 C 507.4 1063 507.2 1063.4 507.5 1064 Z" id="svg_625"/>
  <path d="M 512.5 1064 C 512.2 1064.5 512.4 1065 512.9 1065 C 513.5 1065 514 1064.5 514 1064 C 514 1063.4 513.8 1063 513.6 1063 C 513.3 1063 512.8 1063.4 512.5 1064 Z" id="svg_626"/>
  <g id="svg_1061" stroke="null" transform="matrix(0, -0.233273, 0.24444, 0, -762.27594, -1214.785889)">
    <title>Layer 1</title>
    <g fill="#000000" id="svg_1045" stroke="null" transform="matrix(0,-0.23327275217930965,0.24443996239327895,0,-298.6118086261836,854.9329578935642) ">
      <path d="m1387.04579,2485.6439c-4.20002,-9.40002 -13.5,-8.29993 -18.80005,-2.29993c-5,5.49994 -2.79999,15.09992 4.10003,17.8999c9.39997,3.89997 18.90003,-6.19995 14.70002,-15.59997z" id="svg_1057" stroke="null"/>
      <path d="m1323.24568,2431.5432l-50.19995,-50.20001l16.19995,0c10.10003,0 16.20001,-0.40003 16.20001,-1c0,-0.70001 -18.29999,-1 -53,-1l-53.09998,0l-52.90002,0l-49.70001,-0.20007l-49.69995,-0.29993l-0.90003,-3.70007c-1.90002,-8 -12.59997,-14 -20.90002,-11.69996c-5.39997,1.40003 -11.5,7.5 -12.39997,12.40003l-0.60003,3.5l-19.89997,0c-19,0 -19.90002,-0.09998 -19.90002,-1.90003c0,-2.69995 -5.29999,-7.69995 -9,-8.5c-5.70001,-1.09997 -13,3.70002 -13,8.60004c0,1 -0.70001,1.79999 -1.5,1.79999c-0.79999,0 -1.5,-0.59998 -1.5,-1.29999c0,-2.40002 -4.5,-5.70001 -7.59998,-5.70001c-3.10003,0 -7.40002,3.40002 -7.40002,5.79993c0,0.90008 -12.20004,1.20007 -50.50003,1.20007c-50.5,2.29999 -39.69998,2 0,2c43.10007,0 50.50003,0.20001 50.50003,1.40002c0,2 4.79999,5.59998 7.5,5.59998c2.70001,0 7.5,-3.59998 7.5,-5.59998c0,-0.80005 0.70001,-1.40002 1.5,-1.40002c0.90002,0 1.5,0.90002 1.5,2.09997c0,1.20002 1.40002,3.40003 3.10004,5c2.5,2.30005 4,2.90003 7.59997,2.90003c3.79999,0 5,-0.5 7.90003,-3.40003c1.89996,-1.89996 3.39996,-4.09997 3.39996,-5c0,-1.39996 2.29999,-1.59997 19.90002,-1.59997l19.89997,0l0.5,2.79993c0.80005,4.10009 4.80005,9.30004 8.70001,11.40008c4.60004,2.5 13.79999,2.09998 17.79999,-0.90002c3.70001,-2.70003 7.20001,-8.09998 7.20001,-10.89997l0,-2.40002l50,0l50,0l51.79999,0l21.90002,0l21.79999,0l14.40002,14.40002c8,8 14.89997,14.19996 15.39997,13.89997c0.5,-0.29999 -5.29999,-6.79999 -12.89997,-14.39997l-13.90002,-13.90002l13.20001,0l13.09998,0l51.10003,51.20001c28.09998,28.09998 51.09998,50.69989 51.09998,50.19995c0,-0.60003 -22.59998,-23.60003 -50.20001,-51.19995zm-293.89997,-52.20001l-16,0l0.59998,-2.20007c2.29999,-7.59992 7.20001,-11.89991 14.29999,-12.59992c6.30005,-0.60004 12,2.29999 15,7.70001c4.20001,7.09998 4.20001,7.09998 -13.89997,7.09998zm13.89997,9c-3.39997,5 -7.09998,7.20001 -12.5,7.70001c-7.69996,0.59998 -14.29999,-4.20001 -16.79999,-12.40002l-0.59998,-2.29999l16,0c15,0 16.09998,0.09997 16.09998,1.90002c0,1 -1,3.29999 -2.20001,5.09998zm-103.29999,-9c-3.59998,0 -6.5,-0.40003 -6.5,-0.90003c0,-1.30004 4.90002,-5.09997 6.5,-5.09997c1.60004,0 6.5,3.79993 6.5,5.09997c0,0.5 -2.89996,0.90003 -6.5,0.90003zm4.79999,5.20001c-2,2.20001 -7,2.29999 -9.5,0.09998c-3,-2.70003 -2.09998,-3.29999 4.70001,-3.29999c3.60004,0 6.5,0.29999 6.5,0.70001c0,0.29999 -0.70001,1.5 -1.70001,2.5z" id="svg_1056" stroke="null"/>
      <path d="m695.24748,2259.34294c-2.20001,-4.20001 -7.70001,-7.20001 -11.79999,-6.5c-4.70007,0.79999 -10,6.4 -10,10.5c0,7 4.90002,12 11.70001,12c8.09998,0 13.79999,-9 10.09998,-16z" id="svg_1055" stroke="null"/>
      <path d="m1006.6454,2263.34334c-306.49997,0 -317.09998,-0.09998 -317.39997,-1.79999l0.19998,7.79999l0,-2.5l0,-2.5l316.69999,0c174.10003,0 316.80005,-0.19998 317.10003,-0.5c0.29999,-0.29999 -142.20001,-0.5 -316.60003,-0.5z" id="svg_1054" stroke="null"/>
      <path d="m1317.6457,2374.24393c-3.90002,-4.69995 -12.20001,-1.59997 -12.20001,4.69996c0,6 8.10004,8.60009 11.90002,3.80012c2.59998,-3.30012 2.59998,-5.50008 0.29999,-8.50008zm-1.79999,8.50006c-2.90002,3 -7.5,1.29999 -8.90002,-3.10003c-0.70001,-2.50006 2.40002,-6.29999 5.10004,-6.29999c4.89996,0 7.29998,5.89996 3.79998,9.40002z" id="svg_1053" stroke="null"/>
      <path d="m1233.24568,2084.74332c-1.29999,-5.19997 -5.19996,-7.89998 -11.29999,-7.89998c-4.29999,0 -5.89996,0.5 -7.89996,2.39998c-5.70002,5.40001 -5.10004,14.5 1.29998,18.80003c9.39997,6.29999 20.79999,-2.1 17.89997,-13.30003zm-2.29999,8.60002c-1.89996,3.70001 -4.29999,5 -9.39996,5c-5.60004,0 -9.10004,-3.20001 -9.80005,-9c-0.59998,-5.5 1.90002,-9.20001 7.20001,-11c3,-1 4.10004,-0.89999 7.20001,0.70001c6,2.9 7.79999,8.5 4.79999,14.29999z" id="svg_1052" stroke="null"/>
      <path d="m920.34568,2087.34334c-185.79999,0 -280.79999,0.39998 -280.39999,1c0.90001,1.39998 561.5,1.39998 561.5,0c0,-0.70001 -93.70001,-1 -281.10001,-1z" id="svg_1051" stroke="null"/>
      <path d="m651.8457,2102.14333l-14.60001,-14.59998l-13.39999,-0.1c-8.70001,-0.10001 -13.40001,0.19998 -13.40001,0.89999c0,0.60001 4.7,1 13.2,1l13.3,0l14.2,14.20001c7.8,7.79999 14.4,14 14.70001,13.69997c0.29999,-0.19997 -6,-7 -14,-15.09999z" id="svg_1050" stroke="null"/>
      <path d="m622.44569,2102.14333l-14.89999,-14.79999l-40,0c-26.60001,0 -40.10001,0.29999 -40.10001,1c0,0.70001 13.5,1 40.2,1l40.20001,-0.10002l14.79999,14.80003c8.1,8.09998 14.8,14.29999 14.70001,13.79999c0,-0.60002 -6.70001,-7.60002 -14.90001,-15.70001z" id="svg_1049" stroke="null"/>
      <g id="svg_1046" stroke="null">
        <path d="m1262.71015,1960.11041c-3.7998,-6.9 -15.7998,-6.7 -19.59985,0.4c-4.80005,9 3.40002,19.5 13.19995,16.6c6.69995,-2.1 10,-10.6 6.3999,-17z" id="svg_1048" stroke="null"/>
        <path d="m1233.94599,1966.54327c-0.5,-0.10001 -119.5,-0.2 -264.20001,-0.2c-144.79999,0 -264.29986,1.69972 -263.29999,-0.70001c0.99991,-2.39971 5.70005,-6.5 12.70005,-13.5l12.79995,-12.79999l-35.79995,-35.8l-35.70003,-35.70002l-35.69998,35.80001l-35.80002,35.70001l35.70001,35.69999l35.79999,35.79999l22.13329,-22.13328l21.36669,-21.3667l265.5,-0.30001c146,-0.1 265.09998,-0.29999 264.5,-0.49999zm-516.69998,-13.5l-13.30002,13.3l-43.1667,-0.33328l-43.83328,0.33328l-13.5,-13.5l-13.83328,-13.5l35.6333,-35.3l35.19998,-35.20002l34.99999,35.00002c19.20004,19.2 35,35.2 35,35.5c0,0.29999 -6,6.40001 -13.19999,13.7z" id="svg_1047" stroke="null"/>
      </g>
    </g>
  </g>
  <g id="svg_1063"/>
  <path d="M 903.042 56.398 C 903.042 57.336 903.302 57.592 903.562 56.91 C 903.822 56.313 903.736 55.546 903.475 55.29 C 903.215 54.949 902.955 55.461 903.042 56.398 Z" id="svg_1751" stroke="null"/>
  <path d="M 557.814 135.992 C 558.074 135.396 557.988 134.628 557.728 134.373 L 557.814 135.992 Z" id="svg_1754" stroke="null"/>
  <path id="svg_1755" stroke="null"/>
  <g/>
  <g/>
  <path d="M 151.13 1040.719 C 151.716 1039.607 151.522 1038.176 150.934 1037.699 L 151.13 1040.719 Z" id="svg_164" stroke="null" transform="matrix(-1, 0, 0, -1, 302.65002, 2078.417962)"/>
  <path d="M 504.631 765.33 C 504.631 767.079 505.217 767.555 505.805 766.284 C 506.391 765.171 506.196 763.74 505.608 763.263 C 505.022 762.626 504.435 763.581 504.631 765.33 Z" id="svg_165" stroke="null" transform="matrix(-1, 0, 0, -1, 1010.825967, 1530.180917)"/>
  <g transform="matrix(0.753381, 0, 0, 0.753381, 100.154625, 300.898834)">
    <g transform="matrix(1, 0, 0, 1, 0, -233)">
      <g transform="matrix(1.637205, 0, 0, 1.69319, 510.884796, 355.985962)" id="svg_190" stroke="null">
        <path d="m140.740771,248.94297c-0.44463,0.18905 -6.87533,-0.0471 -14.15984,-0.49512l-13.38174,-0.82596l-20.17534,-29.26966l-20.12568,-29.19496l18.78939,28.90076l18.85087,28.77881l-6.49458,-0.97552c-3.53821,-0.60362 -10.38048,-2.10203 -15.02084,-3.29102l-8.52625,-2.31549l-22.22602,-32.99698l-22.38685,-33.02441l21.29891,33.10371c27.03919,38.52008 24.12049,33.9162 27.30159,35.05492c1.85662,0.64786 8.52625,2.31549 14.88604,3.73159l11.60561,2.44348l1.96538,-0.26073l8.78163,0.76966c4.68763,0.40235 11.3785,0.81533 14.79133,0.80153l6.00971,0.03188c3.35134,0.10816 8.9022,-0.3356 15.42984,-0.81139l11.91768,-0.94698l1.16125,-0.39792l8.70112,-1.49572c4.70888,-0.8523 10.40635,-1.9333 12.60586,-2.48521l3.90474,-0.98948c-7.45322,-6.89731 -23.78719,-38.56132 -55.11459,-85.03149l-56.93097,-84.54666l55.64435,84.32716c30.73376,46.43513 55.69402,84.40187 55.4717,84.49639c-0.88926,0.37809 -14.48372,3.09199 -19.40309,3.84215l-5.5745,0.83708l-41.74624,-62.35355l-41.90706,-62.38098l82.19403,124.68425l-2.90431,0.56413c-1.4829,0.34305 -7.03376,0.7868 -12.13999,1.04151l-9.34684,0.52464l-52.05391,-78.28418c-34.55833,-52.18692 -52.22655,-78.11497 -53.00466,-77.78413l101.31227,156.22389z" id="svg_186" style="stroke-width: 0.600529; stroke: rgb(0, 0, 0);"/>
        <path d="m330.023531,171.6892c0.35839,-0.65731 0.23892,-1.50243 -0.11947,-1.78414l0.11947,1.78414z" id="svg_187" style="stroke-width: 0.600529; stroke: rgb(0, 0, 0);"/>
        <path d="m113.389611,332.83275c0,1.03292 0.35839,1.31463 0.71678,0.56341c0.3584,-0.65731 0.23893,-1.50243 -0.11946,-1.78414c-0.35839,-0.37561 -0.71679,0.18781 -0.59732,1.22073z" id="svg_188" style="stroke-width: 0.600529; stroke: rgb(0, 0, 0);"/>
        <path d="m251.093921,234.01174c0.43611,-0.20134 6.87319,-0.1448 14.17282,0.09967l13.40963,0.45201l21.4405,28.68879l21.3876,28.61553l-20.03929,-28.35881l-20.09541,-28.2352l6.53321,0.79368c3.56239,0.50451 10.46589,1.81106 15.15532,2.86983l8.62211,2.07614l23.65261,32.35661l23.81452,32.37955l-22.73071,-32.48916c-28.70389,-37.74203 -25.58604,-33.2224 -28.81489,-34.27165c-1.88377,-0.59566 -8.62212,-2.07614 -15.03984,-3.3139l-11.70518,-2.11811l-1.95281,0.31542l-8.80986,-0.52412c-4.70234,-0.27129 -11.40716,-0.4973 -14.81731,-0.38826l-6.00743,0.13586c-3.35403,-0.01457 -8.88214,0.58382 -15.38504,1.24149l-11.86909,1.27899l-1.14317,0.43009l-8.63055,1.73763c-4.6688,0.98319 -10.31563,2.22252 -12.48971,2.83549l-3.85918,1.09784c7.74971,6.68511 25.45567,37.874 58.79213,83.44161l60.58624,82.90638l-59.29082,-82.72293c-32.74166,-45.54914 -59.34372,-82.79619 -59.12567,-82.89686c0.87222,-0.40268 14.33996,-3.4943 19.22359,-4.38129l5.53457,-0.99214l44.44216,61.15055l44.60409,61.17348l-87.58568,-122.31451l2.87792,-0.64483c1.46703,-0.38422 6.99514,-0.98261 12.08714,-1.37966l9.31824,-0.78517l55.43884,76.78383c36.81492,51.1907 55.60398,76.60988 56.36718,76.25754l-108.06878,-153.30141z" id="svg_189" style="stroke-width: 0.600529; stroke: rgb(0, 0, 0);"/>
      </g>
      <path d="M 540.4 1235.322 C 539.672 1235.642 529.145 1235.242 517.218 1234.484 L 495.309 1233.085 L 462.278 1183.526 L 429.328 1134.093 L 460.091 1183.028 L 490.954 1231.756 L 480.32 1230.104 C 474.528 1229.083 463.326 1226.545 455.728 1224.531 L 441.769 1220.612 L 405.38 1164.741 L 368.728 1108.824 L 403.599 1164.875 C 447.867 1230.097 443.09 1222.301 448.298 1224.23 C 451.337 1225.327 462.257 1228.151 472.669 1230.549 L 491.669 1234.685 L 494.888 1234.244 L 509.264 1235.547 C 516.939 1236.228 527.894 1236.927 533.482 1236.905 L 543.32 1236.959 C 548.808 1237.142 557.896 1236.39 568.582 1235.584 L 588.094 1233.981 L 589.995 1233.307 L 604.24 1230.776 C 611.95 1229.332 621.278 1227.501 624.879 1226.567 L 631.272 1224.892 C 619.07 1213.214 592.328 1159.601 541.037 1080.917 L 447.83 937.764 L 538.932 1080.546 C 589.248 1159.169 630.114 1223.454 629.749 1223.614 C 628.292 1224.254 606.038 1228.849 597.983 1230.119 L 588.857 1231.536 L 520.51 1125.961 L 451.898 1020.338 L 586.468 1231.452 L 581.712 1232.406 C 579.284 1232.987 570.196 1233.739 561.836 1234.171 L 546.533 1235.058 L 461.31 1102.508 C 404.732 1014.146 375.806 970.245 374.532 970.805 L 540.4 1235.322 Z" id="svg_163" style="stroke: rgb(0, 0, 0);" transform="matrix(-1, 0, 0, -1, 999.999844, 2174.906032)"/>
      <path d="M 192.373 672.126 C 193.087 671.784 203.626 671.881 215.577 672.294 L 237.532 673.059 L 272.634 721.635 L 307.651 770.088 L 274.841 722.071 L 241.941 674.263 L 252.637 675.608 C 258.471 676.461 269.772 678.674 277.451 680.465 L 291.567 683.981 L 330.29 738.767 L 369.28 793.593 L 332.065 738.581 C 285.07 674.676 290.175 682.33 284.888 680.554 C 281.804 679.544 270.773 677.038 260.265 674.942 L 241.101 671.356 L 237.904 671.889 L 223.482 671.002 C 215.782 670.543 204.805 670.161 199.222 670.345 L 189.387 670.575 C 183.896 670.55 174.845 671.564 164.199 672.677 L 144.767 674.842 L 142.894 675.57 L 128.765 678.513 C 121.121 680.178 111.875 682.275 108.316 683.313 L 101.998 685.173 C 114.686 696.491 143.675 749.3 198.252 826.456 L 297.444 966.831 L 200.374 826.766 C 146.769 749.642 103.216 686.576 103.573 686.405 C 105.001 685.724 127.05 680.489 135.047 678.987 L 144.105 677.308 L 216.868 780.848 L 289.893 884.425 L 146.499 677.323 L 151.211 676.232 C 153.612 675.581 162.663 674.568 171 673.896 L 186.255 672.567 L 277.02 802.577 C 337.294 889.251 368.055 932.292 369.304 931.694 L 192.373 672.126 Z" id="svg_166" style="stroke: rgb(0, 0, 0);" transform="matrix(-1, 0, 0, -1, 471.302032, 1636.991842)"/>
      <path d="M 595.429 755.156 C 567.736 756.962 544.312 767.325 526.246 785.936 C 514.761 797.713 506.656 811.141 501.778 826.846 C 495.201 847.812 495.604 871.76 502.886 892.726 C 500.954 893.591 495.367 866.971 499.08 842.315 C 506.945 791.276 552.03 753.897 602.923 756.333 C 629.581 757.668 652.961 767.954 671.889 786.721 C 701.588 816.088 711.123 859.824 696.433 898.615 C 686.289 925.234 663.537 947.691 637.216 957.034 L 630.403 959.391 L 628.931 959.86 L 625.207 960.725 C 623.19 961.197 620.163 961.746 618.61 962.061 L 615.659 962.533 L 614.878 962.453 L 609.67 963.08 C 604.619 963.631 593.317 963.159 586.058 962.139 C 584.107 961.825 582.705 961.825 582.942 962.061 C 584.37 963.631 606.197 964.888 612.252 963.71 L 614.893 963.239 L 615.673 963.394 L 617.458 963.08 C 618.391 962.925 621.031 962.376 623.281 961.904 C 625.61 961.431 627.861 961.039 628.327 961.039 L 630.422 960.49 L 636.458 958.293 C 651.397 952.874 663.031 945.336 674.821 933.243 C 689.825 917.854 698.276 901.677 702.44 880.712 C 704.663 869.326 704.34 850.167 701.735 838.781 C 693.25 801.953 666.664 772.351 631.497 760.573 C 621.55 757.197 604.061 754.528 595.429 755.156 Z" id="svg_147" style="stroke: rgb(0, 0, 0);" transform="matrix(0.963683, 0.267049, -0.267049, 0.963683, 251.404559, -129.863054)"/>
      <g transform="matrix(1, 0, 0, 1, -1.816187, 32.69215)">
        <path id="svg_155" d="M 634.755 905.896 C 632.258 893.157 626.362 881.309 615.947 868.457 C 611.454 862.868 610.744 861.302 611.274 858.62 C 612.442 852.25 605.06 848.45 600.611 853.257 C 597.401 856.72 599.941 862.198 604.67 862.198 C 609.711 862.198 621.251 876.167 627.446 889.579 C 635.773 907.797 637.267 933.616 630.703 948.032 C 629.14 951.61 628.821 953.174 629.741 954.18 C 631.785 956.415 633.347 953.061 634.74 943.45 C 636.455 931.492 636.449 914.839 634.755 905.896 Z" transform="matrix(-0.084294, 0.996441, -0.996441, -0.084294, 1568.592174, 363.365308)" style="stroke: rgb(0, 0, 0);"/>
        <path id="svg_156" d="M 554.584 902.641 C 552.428 901.747 550.254 904.093 551.788 905.77 C 553.117 907.223 556.208 906.329 556.219 904.54 C 556.221 903.869 555.506 903.088 554.584 902.641 Z" transform="matrix(-0.084295, 0.996441, -0.996441, -0.084295, 1501.138363, 429.459864)" style="stroke: rgb(0, 0, 0);"/>
        <path id="svg_157" d="M 540.896 891.221 C 539.764 891.221 538.631 891.668 538.32 892.115 C 537.385 893.679 539.531 896.025 541.18 895.355 C 543.551 894.348 543.261 891.221 540.896 891.221 Z" transform="matrix(-0.084295, 0.996441, -0.996441, -0.084295, 1476.469295, 430.406697)" style="stroke: rgb(0, 0, 0);"/>
        <path id="svg_158" d="M 531.082 879.113 C 528.824 878.219 527.265 881.124 529.002 883.137 C 529.818 883.918 530.947 884.255 531.568 883.918 C 533.22 882.801 532.927 879.896 531.082 879.113 Z" transform="matrix(-0.084295, 0.996441, -0.996441, -0.084295, 1453.039887, 427.165711)" style="stroke: rgb(0, 0, 0);"/>
        <path id="svg_159" d="M 523.292 864.524 C 521.755 863.519 519.89 865.866 520.598 867.877 C 521.005 868.882 521.924 869.665 522.85 869.665 C 524.597 869.665 525.033 865.754 523.292 864.524 Z" transform="matrix(-0.084295, 0.996441, -0.996441, -0.084295, 1430.010026, 419.039169)" style="stroke: rgb(0, 0, 0);"/>
        <path id="svg_160" d="M 564.823 810.871 C 564.31 810.536 562.044 811.318 559.774 812.548 C 551.416 817.243 530.012 819.701 513.98 817.689 C 510.075 817.243 503.397 815.789 499.087 814.448 C 493.031 812.548 491.082 811.431 490.886 809.753 C 489.595 801.818 478.388 801.371 478.342 809.194 C 478.32 813.329 481.393 815.23 486.335 814.448 C 488.599 814.001 493.737 814.895 500.308 816.683 C 514.989 820.818 536.174 821.042 553.68 817.13 C 561.711 815.342 565.731 814.001 565.735 812.995 C 565.741 812.212 565.335 811.318 564.823 810.871 Z" transform="matrix(-0.084295, 0.996441, -0.996441, -0.084295, 1374.354408, 359.41468)" style="stroke: rgb(0, 0, 0);"/>
      </g>
      <g transform="matrix(-1, 0, 0, -1, 1201.533569, 1685.543457)">
        <path id="path-1" d="M 634.755 905.896 C 632.258 893.157 626.362 881.309 615.947 868.457 C 611.454 862.868 610.744 861.302 611.274 858.62 C 612.442 852.25 605.06 848.45 600.611 853.257 C 597.401 856.72 599.941 862.198 604.67 862.198 C 609.711 862.198 621.251 876.167 627.446 889.579 C 635.773 907.797 637.267 933.616 630.703 948.032 C 629.14 951.61 628.821 953.174 629.741 954.18 C 631.785 956.415 633.347 953.061 634.74 943.45 C 636.455 931.492 636.449 914.839 634.755 905.896 Z" transform="matrix(-0.084294, 0.996441, -0.996441, -0.084294, 1568.592174, 363.365308)" style="stroke: rgb(0, 0, 0);"/>
        <path id="path-2" d="M 554.584 902.641 C 552.428 901.747 550.254 904.093 551.788 905.77 C 553.117 907.223 556.208 906.329 556.219 904.54 C 556.221 903.869 555.506 903.088 554.584 902.641 Z" transform="matrix(-0.084295, 0.996441, -0.996441, -0.084295, 1501.138363, 429.459864)" style="stroke: rgb(0, 0, 0);"/>
        <path id="path-3" d="M 540.896 891.221 C 539.764 891.221 538.631 891.668 538.32 892.115 C 537.385 893.679 539.531 896.025 541.18 895.355 C 543.551 894.348 543.261 891.221 540.896 891.221 Z" transform="matrix(-0.084295, 0.996441, -0.996441, -0.084295, 1476.469295, 430.406697)" style="stroke: rgb(0, 0, 0);"/>
        <path id="path-4" d="M 531.082 879.113 C 528.824 878.219 527.265 881.124 529.002 883.137 C 529.818 883.918 530.947 884.255 531.568 883.918 C 533.22 882.801 532.927 879.896 531.082 879.113 Z" transform="matrix(-0.084295, 0.996441, -0.996441, -0.084295, 1453.039887, 427.165711)" style="stroke: rgb(0, 0, 0);"/>
        <path id="path-5" d="M 523.292 864.524 C 521.755 863.519 519.89 865.866 520.598 867.877 C 521.005 868.882 521.924 869.665 522.85 869.665 C 524.597 869.665 525.033 865.754 523.292 864.524 Z" transform="matrix(-0.084295, 0.996441, -0.996441, -0.084295, 1430.010026, 419.039169)" style="stroke: rgb(0, 0, 0);"/>
        <path id="path-6" d="M 564.823 810.871 C 564.31 810.536 562.044 811.318 559.774 812.548 C 551.416 817.243 530.012 819.701 513.98 817.689 C 510.075 817.243 503.397 815.789 499.087 814.448 C 493.031 812.548 491.082 811.431 490.886 809.753 C 489.595 801.818 478.388 801.371 478.342 809.194 C 478.32 813.329 481.393 815.23 486.335 814.448 C 488.599 814.001 493.737 814.895 500.308 816.683 C 514.989 820.818 536.174 821.042 553.68 817.13 C 561.711 815.342 565.731 814.001 565.735 812.995 C 565.741 812.212 565.335 811.318 564.823 810.871 Z" transform="matrix(-0.084295, 0.996441, -0.996441, -0.084295, 1374.354408, 359.41468)" style="stroke: rgb(0, 0, 0);"/>
      </g>
    </g>
  </g>
</svg>