<svg xmlns="http://www.w3.org/2000/svg" width="1200" height="1200">
  <path fill="none" stroke="null" d="M-1-1h1202v1202H-1z"/>
  <g stroke="null">
    <path d="M4834.02 5162.93c-4.2-9.4-13.5-8.3-18.8-2.3-5 5.5-2.8 15.1 4.1 17.9 9.4 3.9 18.9-6.2 14.7-15.6zm-119.8 14.9l-50.2-50.2h16.2c10.1 0 16.2-.4 16.2-1 0-.7-18.3-1-53-1h-106l-49.7-.2-49.7-.3-.9-3.7c-1.9-8-12.6-14-20.9-11.7-5.4 1.4-11.5 7.5-12.4 12.4l-.6 3.5h-19.9c-19 0-19.9-.1-19.9-1.9 0-2.7-5.3-7.7-9-8.5-5.7-1.1-13 3.7-13 8.6 0 1-.7 1.8-1.5 1.8s-1.5-.6-1.5-1.3c0-2.4-4.5-5.7-7.6-5.7-3.1 0-7.4 3.4-7.4 5.8 0 .9-12.2 1.2-50.5 1.2-50.5 2.3-39.7 2 0 2 43.1 0 50.5.2 50.5 1.4 0 2 4.8 5.6 7.5 5.6s7.5-3.6 7.5-5.6c0-.8.7-1.4 1.5-1.4.9 0 1.5.9 1.5 2.1 0 1.2 1.4 3.4 3.1 5 2.5 2.3 4 2.9 7.6 2.9 3.8 0 5-.5 7.9-3.4 1.9-1.9 3.4-4.1 3.4-5 0-1.4 2.3-1.6 19.9-1.6h19.9l.5 2.8c.8 4.1 4.8 9.3 8.7 11.4 4.6 2.5 13.8 2.1 17.8-.9 3.7-2.7 7.2-8.1 7.2-10.9v-2.4h195.5l14.4 14.4c8 8 14.9 14.2 15.4 13.9.5-.3-5.3-6.8-12.9-14.4l-13.9-13.9h26.3l51.1 51.2c28.1 28.1 51.1 50.7 51.1 50.2 0-.6-22.6-23.6-50.2-51.2zm-293.9-52.2h-16l.6-2.2c2.3-7.6 7.2-11.9 14.3-12.6 6.3-.6 12 2.3 15 7.7 4.2 7.1 4.2 7.1-13.9 7.1zm13.9 9c-3.4 5-7.1 7.2-12.5 7.7-7.7.6-14.3-4.2-16.8-12.4l-.6-2.3h16c15 0 16.1.1 16.1 1.9 0 1-1 3.3-2.2 5.1zm-103.3-9c-3.6 0-6.5-.4-6.5-.9 0-1.3 4.9-5.1 6.5-5.1 1.6 0 6.5 3.8 6.5 5.1 0 .5-2.9.9-6.5.9zm4.8 5.2c-2 2.2-7 2.3-9.5.1-3-2.7-2.1-3.3 4.7-3.3 3.6 0 6.5.3 6.5.7 0 .3-.7 1.5-1.7 2.5zm-193.5-194.2c-2.2-4.2-7.7-7.2-11.8-6.5-4.7.8-10 6.4-10 10.5 0 7 4.9 12 11.7 12 8.1 0 13.8-9 10.1-16z" transform="matrix(0 -.29875 .26345 0 -2517.42 26854.983)"/>
    <path d="M4453.62 4940.63c-306.5 0-317.1-.1-317.4-1.8l.2 7.8v-5h316.7c174.1 0 316.8-.2 317.1-.5.3-.3-142.2-.5-316.6-.5zm311 110.9c-3.9-4.7-12.2-1.6-12.2 4.7 0 6 8.1 8.6 11.9 3.8 2.6-3.3 2.6-5.5.3-8.5zm-1.8 8.5c-2.9 3-7.5 1.3-8.9-3.1-.7-2.5 2.4-6.3 5.1-6.3 4.9 0 7.3 5.9 3.8 9.4zm-82.6-298c-1.3-5.2-5.2-7.9-11.3-7.9-4.3 0-5.9.5-7.9 2.4-5.7 5.4-5.1 14.5 1.3 18.8 9.4 6.3 20.8-2.1 17.9-13.3zm-2.3 8.6c-1.9 3.7-4.3 5-9.4 5-5.6 0-9.1-3.2-9.8-9-.6-5.5 1.9-9.2 7.2-11 3-1 4.1-.9 7.2.7 6 2.9 7.8 8.5 4.8 14.3zm-310.6-6c-185.8 0-280.8.4-280.4 1 .9 1.4 561.5 1.4 561.5 0 0-.7-93.7-1-281.1-1zm-268.5 14.8l-14.6-14.6-13.4-.1c-8.7-.1-13.4.2-13.4.9 0 .6 4.7 1 13.2 1h13.3l14.2 14.2c7.8 7.8 14.4 14 14.7 13.7.3-.2-6-7-14-15.1zm-29.4 0l-14.9-14.8h-40c-26.6 0-40.1.3-40.1 1s13.5 1 40.2 1l40.2-.1 14.8 14.8c8.1 8.1 14.8 14.3 14.7 13.8 0-.6-6.7-7.6-14.9-15.7zm640.26-142.03c-3.8-6.9-15.8-6.7-19.6.4-4.8 9 3.4 19.5 13.2 16.6 6.7-2.1 10-10.6 6.4-17z" transform="matrix(0 -.29875 .26345 0 -2517.42 26854.983)"/>
    <path d="M184.84 768.8l-12.8-12.8-35.8 35.8-35.7 35.7 35.8 35.7 35.7 35.8 35.7-35.7 35.8-35.8-22.14-22.14L200.04 784l-15.2-15.2zm.9 1.9l13.3 13.3v87l-13.5 13.5-13.5 13.83-35.3-35.64-.2-70.2c19.2-19.2 35.2-35 35.5-35 .3 0 6.4 6 13.7 13.2zm-26.57-56.36l50.2-50.2v16.2c0 10.1.4 16.2 1 16.2.7 0 1-18.3 1-53v-106l.2-49.7.3-49.7 3.7-.9c8-1.9 14-12.6 11.7-20.9-1.4-5.4-7.5-11.5-12.4-12.4l-3.5-.6v-19.9c0-19 .1-19.9 1.9-19.9 2.7 0 7.7-5.3 8.5-9 1.1-5.7-3.7-13-8.6-13-1 0-1.8-.7-1.8-1.5s.6-1.5 1.3-1.5c2.4 0 5.7-4.5 5.7-7.6 0-3.1-3.4-7.4-5.8-7.4-.9 0-1.2-12.2-1.2-50.5-2.3-50.5-2-39.7-2 0 0 43.1-.2 50.5-1.4 50.5-2 0-5.6 4.8-5.6 7.5s3.6 7.5 5.6 7.5c.8 0 1.4.7 1.4 1.5 0 .9-.9 1.5-2.1 1.5-1.2 0-3.4 1.4-5 3.1-2.3 2.5-2.9 4-2.9 7.6 0 3.8.5 5 3.4 7.9 1.9 1.9 4.1 3.4 5 3.4 1.4 0 1.6 2.3 1.6 19.9v19.9l-2.8.5c-4.1.8-9.3 4.8-11.4 8.7-2.5 4.6-2.1 13.8.9 17.8 2.7 3.7 8.1 7.2 10.9 7.2h2.4v195.5l-14.4 14.4c-8 8-14.2 14.9-13.9 15.4.3.5 6.8-5.3 14.4-12.9l13.9-13.9v26.3l-51.2 51.1c-28.1 28.1-50.7 51.1-50.2 51.1.6 0 23.6-22.6 51.2-50.2zm52.2-293.9v-16l2.2.6c7.6 2.3 11.9 7.2 12.6 14.3.6 6.3-2.3 12-7.7 15-7.1 4.2-7.1 4.2-7.1-13.9zm-9 13.9c-5-3.4-7.2-7.1-7.7-12.5-.6-7.7 4.2-14.3 12.4-16.8l2.3-.6v16c0 15-.1 16.1-1.9 16.1-1 0-3.3-1-5.1-2.2zm9-103.3c0-3.6.4-6.5.9-6.5 1.3 0 5.1 4.9 5.1 6.5 0 1.6-3.8 6.5-5.1 6.5-.5 0-.9-2.9-.9-6.5zm-5.2 4.8c-2.2-2-2.3-7-.1-9.5 2.7-3 3.3-2.1 3.3 4.7 0 3.6-.3 6.5-.7 6.5-.3 0-1.5-.7-2.5-1.7z"/>
    <path d="M216.47 708.74c4.7-3.9 1.6-12.2-4.7-12.2-6 0-8.6 8.1-3.8 11.9 3.3 2.6 5.5 2.6 8.5.3zm-8.5-1.8c-3-2.9-1.3-7.5 3.1-8.9 2.5-.7 6.3 2.4 6.3 5.1 0 4.9-5.9 7.3-9.4 3.8zm-102.9 71.2c9.4-4.2 8.3-13.5 2.3-18.8-5.5-5-15.1-2.8-17.9 4.1-3.9 9.4 6.2 18.9 15.6 14.7zm139.6-28.34l-12.8-12.8-35.8 35.8-35.7 35.7 35.8 35.7 35.7 35.8 35.7-35.7 35.8-35.8-22.12-22.14L259.88 765l-15.2-15.2zm.9 1.9l13.3 13.3v87l-13.5 13.5-13.5 13.83-35.3-35.64-.2-70.2c19.2-19.2 35.2-35 35.5-35 .3 0 6.4 6 13.7 13.2z"/>
    <path d="M224.68 729.8l-12.8-12.8-35.8 35.8-35.7 35.7 35.8 35.7 35.7 35.8 35.7-35.7 35.8-35.8-22.13-22.14L239.88 745l-15.2-15.2zm.9 1.9l13.3 13.3v87l-13.5 13.5-13.5 13.83-35.3-35.64-.2-70.2c19.2-19.2 35.2-35 35.5-35 .3 0 6.4 6 13.7 13.2z"/>
    <path fill="none" d="M563.2 237.47h430v394h-430z" transform="matrix(1.31822 0 0 1.32542 17.705 -69.543)"/>
    <path d="M789.12 532.48c14.83-2.78 28.63-9.2 43.6-20.53 6.5-4.9 8.33-5.67 11.45-5.1 7.42 1.2 11.85-6.78 6.25-11.55-4.04-3.44-10.4-.67-10.4 4.44 0 5.43-16.28 17.98-31.9 24.75-21.22 9.1-51.28 10.8-68.07 3.8-4.17-1.7-6-2-7.16-1-2.6 2.2 1.3 3.9 12.4 5.3 13.9 1.7 33.3 1.6 43.7-.3zm75.08-50.95c2.1-1.33 2.5-3 2.62-9.76 0-4.44 1.04-11.88 2.34-16.43 2.6-9.65 3.64-29.63 1.95-39.95-2-12.7-6.2-24.7-11.9-35l-5.7-10-8.8-10.4c-13.63-14.2-28.1-23.1-47.6-29.2-9.1-2.9-13.27-3.6-24.6-3.8-28.37-.8-49.7 6.2-71.97 23.73-5.6 4.43-8.6 6.1-10.8 5.87-3.4-.44-8.33 3.2-8.33 6.2 0 3.2 3.74 6.9 7.13 6.9 3.66 0 7.7-4.33 6.9-7.44-2.33-8.55 29.17-27.53 53.1-32.08 15.24-2.8 35.55-1.8 49.6 2.63 18.2 5.78 34.6 16.3 47.25 30.65 2.86 3.2 5.2 6.2 5.2 6.65l2.34 2.8 3.5 6.43c12.63 23.2 16.8 49.4 11.46 73.26-2.45 11.4-4.54 15.3-9.1 17.2-4.42 1.74-5.46 6.4-2.34 10.4 2.38 3 4.3 3.32 7.97 1.1zM674.05 471c.4-.56-.52-3-1.95-5.45-5.47-9-8.33-32.07-6-49.4.53-4.2 2.22-11.42 3.78-16.08 2.22-6.55 3.52-8.66 5.47-8.88 9.24-1.5 9.76-13.6.65-13.6-4.82 0-7.03 3.3-6.12 8.6.52 2.4-.52 8-2.6 15.1-4.82 15.8-5.08 38.7-.52 57.6 2.08 8.6 3.64 13 4.8 13 .93 0 1.97-.5 2.5-1z" transform="matrix(1.31822 0 0 1.32542 17.705 -69.543)"/>
    <path d="M848.12 471.24c-.8-1.02-2.5-.34-2.5 1.02 0 1.3 1.66 1.87 2.44.83.53-.8.53-1.2.06-1.9zm-.37 1.85c-.6.6-1.54.2-1.82-.7-.15-.6.5-1.4 1.04-1.4 1 0 1.5 1.3.78 2zm-59.47-23.4c-.45-.9-1.58-1.6-2.42-1.4-.96.1-2.05 1.4-2.05 2.2 0 1.5 1.1 2.6 2.4 2.6 1.7 0 2.9-2 2.1-3.5zm-30.18-37.1c-.46-.9-1.6-1.6-2.43-1.4-.96.1-2.05 1.4-2.05 2.2 0 1.5 1 2.6 2.4 2.6 1.66 0 2.83-2 2.07-3.5z" transform="matrix(1.31822 0 0 1.32542 17.705 -69.543)"/>
    <path d="M829.04 451.06c-39.57 0-40.93-.02-40.97-.4l.02 1.7v-1.08h40.8c22.5 0 40.9-.04 40.9-.1 0-.07-18.4-.12-40.9-.12zm-36.37-19.32c-.46-.9-1.58-1.57-2.42-1.4-.97.16-2.05 1.38-2.05 2.26 0 1.52 1 2.6 2.4 2.6 1.66 0 2.82-1.94 2.07-3.46zm-1.77-36.4c-.44-.9-1.57-1.57-2.4-1.4-.97.16-2.06 1.37-2.06 2.26 0 1.52 1 2.6 2.4 2.6 1.66 0 2.83-1.95 2.07-3.47zm-5.7-20.18c-.44-.9-1.57-1.56-2.4-1.4-.97.16-2.06 1.38-2.06 2.27 0 1.52 1 2.6 2.4 2.6 1.66 0 2.83-1.95 2.07-3.47z" transform="matrix(1.31822 0 0 1.32542 17.705 -69.543)"/>
    <path d="M831.57 432.62c-37.9 0-39.2-.02-39.25-.4l.03 1.7v-1.08h39.16c21.6 0 39.2-.04 39.3-.1.1-.07-17.6-.12-39.1-.12zM821.4 375.9c-35.96 0-37.2-.04-37.23-.4l.02 1.7v-1.1h37.1c20.4 0 37.1-.04 37.2-.1 0-.07-16.7-.1-37.2-.1zm-8.53 37.22c-54.1 0-55.96-.02-56-.4l.03 1.7v-1.08h55.9c30.7 0 55.9-.05 55.95-.1.05-.08-25.1-.12-55.88-.12zm16.2-16.67c-37.54 0-38.84-.02-38.88-.4v1.7-1.07H829c21.3 0 38.78-.04 38.82-.1.04-.07-17.4-.12-38.76-.12zm-46.73 47.33c-.45-.9-1.57-1.56-2.4-1.4-.98.17-2.06 1.38-2.06 2.27 0 1.52 1 2.6 2.4 2.6 1.65 0 2.82-1.95 2.06-3.47zm-30.18-37.1c-.45-.9-1.58-1.57-2.42-1.4-.97.16-2.05 1.37-2.05 2.26 0 1.52 1 2.6 2.4 2.6 1.6 0 2.8-1.95 2-3.47z" transform="matrix(1.31822 0 0 1.32542 17.705 -69.543)"/>
    <path d="M826.52 445.13c-42.86 0-44.35-.02-44.4-.4l.04 1.7v-1.1h44.3c24.34 0 44.3-.04 44.34-.1.04-.07-19.9-.1-44.28-.1zm-39.8-19.33c-.44-.9-1.57-1.56-2.4-1.4-.96.17-2.05 1.38-2.05 2.27 0 1.52 1 2.6 2.4 2.6 1.66 0 2.83-1.95 2.07-3.47zM785 389.4c-.45-.9-1.58-1.56-2.42-1.4-.97.16-2.05 1.38-2.05 2.27 0 1.52 1 2.6 2.4 2.6 1.68 0 2.85-1.95 2.1-3.47zm-5.7-20.18c-.46-.9-1.58-1.56-2.4-1.4-1 .17-2.07 1.38-2.07 2.27 0 1.5 1 2.6 2.4 2.6 1.67 0 2.84-2 2.08-3.5z" transform="matrix(1.31822 0 0 1.32542 17.705 -69.543)"/>
    <path d="M828.6 426.7c-40.76 0-42.17-.03-42.2-.4v1.7-1.1h42.14c23.16 0 42.14-.03 42.18-.1.04-.06-18.92-.1-42.12-.1zm-13.14-56.75c-35.95 0-37.2-.02-37.23-.4l.02 1.7v-1.07h37.15c20.42 0 37.16-.04 37.2-.1.03-.07-16.68-.12-37.14-.12zm-5.86 37.25c-56.66 0-58.62-.04-58.67-.4l.03 1.7v-1.1h58.56c32.2 0 58.58-.04 58.63-.1.06-.07-26.3-.1-58.54-.1zm14.7-16.68c-38.67 0-40-.02-40.04-.4l.02 1.7v-1.08h39.97c21.97 0 39.97-.05 40-.1.05-.08-17.93-.12-39.94-.12z" transform="matrix(1.31822 0 0 1.32542 17.705 -69.543)"/>
  </g>
</svg>