<svg xmlns="http://www.w3.org/2000/svg" width="1200" height="1200">
  <path fill="none" d="M-1-1h1202v1202H-1z"/>
  <g stroke="null">
    <path d="M218.13 510.1c4.7-3.9 1.6-12.2-4.7-12.2-6 0-8.6 8.1-3.8 11.9 3.3 2.6 5.5 2.6 8.5.3zm-8.5-1.8c-3-2.9-1.3-7.5 3.1-8.9 2.5-.7 6.3 2.4 6.3 5.1 0 4.9-5.9 7.3-9.4 3.8zM285 386.27c2.38 1 6.5 5.7 13.5 12.7l12.78 12.8 35.8-35.8 35.7-35.7-35.8-35.7-35.7-35.8-35.7 35.7-35.8 35.8 22.14 22.14 21.36 21.4 1.7 2.5zm12.58 10.8l-13.3-13.3.34-43.16-.34-43.8 13.5-13.5 13.5-13.8 35.3 35.7 35.2 35.2-35 35c-19.2 19.2-35.2 35-35.5 35-.3 0-6.4-6-13.7-13.2z"/>
    <path d="M282.78 542.46c0 159.66.4 241.3 1 240.95 1.4-.7 1.4-482.5 0-482.5-.7 0-1 80.6-1 241.6zm14.8 229.04l-14.6 14.6-.1 13.4c-.1 8.7.2 13.4.9 13.4.6 0 1-4.7 1-13.2v-13.3l14.2-14.2c7.8-7.8 14-14.4 13.7-14.7-.2-.3-7 6-15.1 14zm0 29.4l-14.8 14.9v40c0 26.6.3 40.1 1 40.1s1-13.5 1-40.2l-.1-40.2 14.8-14.8c8.1-8.1 14.3-14.8 13.8-14.7-.6 0-7.6 6.7-15.7 14.9zm-9.84 118.98c5.2-1.3 7.9-5.2 7.9-11.3 0-4.3-.5-5.9-2.4-7.9s-14.5-5.1-18.8 1.3c-6.3 9.4 2.1 20.8 13.3 17.9zm-8.6-2.3c-3.7-1.9-5-4.3-5-9.4 0-5.6 3.2-9.1 9-9.8 5.5-.6 9.2 1.9 11 7.2 1 3 .9 4.1-.7 7.2-2.9 6-8.5 7.8-14.3 4.8zM162 735.98l50.2-50.2v16.2c0 10.1.4 16.2 1 16.2.7 0 1-18.3 1-53v-106l-.04-49.7-2.45-.05.5 49.75v95.5l-14.4 14.4c-8 8-14.2 14.9-13.9 15.4.3.5 6.8-5.3 14.4-12.9l13.9-13.9v26.3l-51.2 51.1c-28.1 28.1-50.7 51.1-50.2 51.1.6 0 23.6-22.6 51.2-50.2z"/>
  </g>
  <path fill="none" d="M533.17 533.17H666.7V666.7H533.18z"/>
  <path d="M783.6 605.06c-.44-.52-1.36-.18-1.36.52 0 .67.9.96 1.32.43.3-.3.3-.6.03-.9zm-.2.95c-.33.4-.84.2-1-.3-.07-.3.27-.7.57-.7.55 0 .8.7.42 1.1z"/>
  <g stroke="null">
    <path d="M920.3 597.45l-5.74 1.37c-12.4 2.9-21.68 19.23-18.12 31.9 2.17 8.25 11.62 17.56 19.2 18.93l5.43.92c0 59.38-.15 60.76-2.94 60.76-4.18 0-11.93 8.1-13.17 13.74-1.7 8.7 5.73 19.84 13.32 19.84 1.55 0 2.8 1.1 2.8 2.3 0 1.3-.94 2.3-2.02 2.3-3.72 0-8.83 6.9-8.83 11.6 0 4.8 5.26 11.3 8.98 11.3 1.4 0 1.9 18.7 1.9 77.1 3.6 77.1 3.1 60.6 3.1 0 0-65.8.3-77.1 2.2-77.1 3.1 0 8.7-7.3 8.7-11.4s-5.5-11.4-8.6-11.4c-1.2 0-2.1-1-2.1-2.3 0-1.3 1.4-2.3 3.3-2.3s5.3-2.1 7.8-4.7c3.55-3.8 4.5-6.1 4.5-11.6 0-5.8-.8-7.6-5.3-12-2.94-2.9-6.35-5.2-7.74-5.2l-2.47-60.7 4.33-.7c6.35-1.2 14.4-7.3 17.7-13.3 3.8-7 3.2-21.02-1.4-27.2-4.2-5.6-12.6-11-16.9-11h-3.76l-3.9-.9zm.77 51.44l-3.4-1c-11.78-3.5-18.44-11-19.53-21.9-.93-9.6 6.75-28.9 25.7-27.5l-2.77 50.1zM935 603.2c7.76 5.2 11.17 10.84 11.94 19.08.93 11.76-6.5 21.84-19.2 25.66l-3.57.9c0-47.3.15-49 2.94-49 1.6 0 5.2 1.53 7.9 3.37zm-13.93 157.7c0 5.5-.62 9.9-1.4 9.9-2 0-7.9-7.47-7.9-9.9 0-2.45 5.9-9.93 7.9-9.93.78 0 1.4 4.43 1.4 9.92zm8.06-7.34c3.4 3.06 3.56 10.7.15 14.5-4.18 4.6-5.1 3.2-5.1-7.17 0-5.5.45-9.9 1.07-9.9.47 0 2.33 1 3.88 2.6z"/>
    <path d="M944.75 649.97c.77-.9 1.36-2.2 1.36-2.72 0-.6 1.2-2.26 2.7-3.77 2.6-2.57 6.8-9.43 6.8-11.17 0-1.2 3.4-3.6 9.4-6.5 15.8-7.7 28.6-21.9 34.9-38.8 2.1-5.5 4.4-16.4 4.4-21 0-2.8.6-3.8 5-8.4 25.9-26.7 38.2-58.4 37.2-95.9-.2-9.8-.1-12.7 1-14.4 2.58-4.3-1.6-8.2-5.95-5.7-3.13 1.8-2.9 5.2.6 7.6l2.8 1.9.2 13.4c.17 14.36-.93 23.9-4.1 35.86-5.36 20.5-17.8 42.1-32.6 56.43l-4 3.93v-3.05c0-4.5-2.3-15-4.5-20.9-4.6-12-11.23-21.02-21.55-29.7-4.4-3.7-6.8-6.26-6.8-7.54-.4-2.46-2.8-4.1-5.1-3.4-64.2 5.13-30.9-50.27-45.76-3.6l18-57.25 3.23-1.47c7.27-3.28 7-12.5-.4-15.58l-2.8-1.2-.9-71.6h2.47c4.4 0 14.83 2.25 16.45 3.5 1.2.9 1.8 1.08 2.6.4 1.8-1.6.06-3.02-4.2-3.32-2.2-.27-7.1-.87-10.75-1.4l-6.6-.9-.86.14h-12c-7.38 0-14.28.45-18 1.13-50.27 9.34-89.3 50.6-97.6 103-2.4 15.2-1.2 37.24 2.9 52.63 7.42 27.8 25.33 53.65 48.53 69.8 7.08 4.9 7.33 5.2 8.6 10.34 2.4 9.3 8.1 19.8 15.62 28.6l4.2 4.97V625c-.1 9.54.1 10.9 1.53 12 1.2 1 1.8 1.08 2.8.3 3-2.1 2.2-6-1.2-6-1.2 0-1.6-.9-2-4.66-1.5-14.5 8.2-27.77 23.1-31.6 3.3-.8 3.7-.8 5.7.8 1.7 1.46 2.3 1.6 3.3.85 1.8-1.4 2.4-3.77 1.3-4.97-1.36-1.4-3.3-1.4-5-.1-.8.6-3.26 1.6-5.56 2.2-8.96 2.7-16.3 8.2-20.8 15.6l-2.57 4-3.9-4.37c-2.16-2.5-5.9-7.85-8.2-12-4.7-8.45-9.05-20-7.4-20 1.7.1 4.6 2.5 6.02 5.06 2.3 4.1 7.3 4 8.5-.1 1.1-3.95-2.64-6.6-7.16-4.9-2.1.73-2.9.65-5.04-.48-3.96-2.07-4.7-5.08-4.1-16.85.5-12.23 1.7-17.05 4.92-20.07 1.98-1.9 2.3-2.84 2.24-6-.14-3.25.45-4.7 3.7-9.7 9.3-14.5 22.3-24.1 39.02-29.1 43.15 2.7 43.4 2.8 43.84 5.5.2 1.4 1.2 2.8 2.65 3.8l2.5 1.6 1.63-1.8 1.7-1.8 8.3 7.48c9.5 8.6 14.3 15.4 18.64 26.65 3.37 8.6 5.8 21.68 4.6 24.4-.4 1.04-3.4 3.9-6.5 6.47-5.4 4.4-8 5.7-8 3.96 0-1.5-4.2-1.7-5.94-.35-2.97 2.4-1.27 7.95 2.4 7.95.6 0 4.86-3.5 9.64-7.64 4.7-4.22 8.7-7.47 8.85-7.32.25.25 0 3.2-.4 6.74-3.6 25.8-18.5 46.02-41.65 56.43l-3.6 1.6v-2.8c-.1-7-2.6-14.4-6.4-19.4-1.1-1.45-2-3.6-1.9-4.7.38-3.8-5.3-4.44-6.02-.75-.4 1.64 2.22 4.3 4 4.06.95-.2 2.5 1.64 4.8 5.7 3.14 5.5 3.4 6.5 3.3 11.7-.16 10.2-1.6 14.56-6.7 20.14-2.24 2.33-3.44 3.1-4.7 2.8-3.68-.85-5.64 2.92-2.74 5.26 2.06 1.7 2.4 1.6 3.94-.35zm-95.86-91c-10-9.35-16.2-17.27-22.6-28.36-8.1-14-13.4-29.4-15.9-45.7-1.2-7.9-1.5-25.9-.5-32.4 4.9-32.9 18.2-58.5 40.6-78.4 16.1-14.2 35.4-23.7 55.7-27.6 6.9-1.3 24.7-2.2 28.1-1.5l2.2.5.1 71.6-2.9 1.2c-6.1 2.7-7.67 9.1-3.15 13.7 1.44 1.46 3.14 2.67 3.74 2.67.6 0 1.3.74 1.63 1.73-14.34 55.6-29 60.66-38.8 67.4-6.15 4.15-13.3 11.24-16.98 16.75-5.3 8-6.9 10.04-8.4 10.5-4.3 1.36-5.74 5.06-3.2 8.3 1.1 1.44 1.1 2.2-.1 6.8-.86 3.4-1.4 8.6-1.3 15.6 0 5.8-.16 10.8-.4 11.2-.78 1.03-10.34-6.06-18.27-13.6z"/>
  </g>
</svg>