<svg width="1200" height="1200" xmlns="http://www.w3.org/2000/svg" preserveAspectRatio="xMidYMid meet">
 <g>
  <title>background</title>
  <rect fill="none" id="canvas_background" height="1202" width="1202" y="-1" x="-1"/>
 </g>

 <g>
  <title>Layer 1</title>
  <g id="svg_1" fill="#000000">
   <path id="svg_68" d="m219.02771,500.48932c-3.90002,-4.70007 -12.19995,-1.59998 -12.19995,4.70001c0,6 8.09998,8.59992 11.89996,3.79999c2.60004,-3.30005 2.60004,-5.5 0.29999,-8.5zm-1.80005,8.5c-2.8999,3 -7.49994,1.29999 -8.8999,-3.09998c-0.70007,-2.5 2.39996,-6.30005 5.09998,-6.30005c4.90002,0 7.29998,5.90003 3.79992,9.40003z" stroke="null" transform="rotate(90 213.7720031738281,504.8510131835938) "/>
   <path id="svg_3" d="m357.28467,366.57388c0.99975,-2.39959 5.69995,-6.49994 12.69995,-13.49994l12.80005,-12.79992l-35.80005,-35.80005l-35.69989,-35.70001l-35.69959,35.80001l-35.7998,35.70005l35.69983,35.69989l35.79956,35.79998l22.13324,-22.13317l21.3667,-21.36676l2.5,-1.70008zm10.80005,-12.59991l-13.30005,13.30005l-43.16669,-0.33332l-43.83276,0.33332l-13.49988,-13.5l-13.83325,-13.5l35.63305,-35.30005l35.19959,-35.20001l34.99994,35c19.19995,19.20001 35,35.20001 35,35.50006c0,0.29992 -6,6.40002 -13.19995,13.69995z" stroke="null" transform="rotate(90 311.2850341796875,340.27392578125006) "/>
   <g id="svg_8" stroke="null">
    <path stroke="null" id="svg_102" d="m282.78308,542.459506c0,159.662073 0.39996,241.296842 1,240.953154c1.39999,-0.77335 1.39999,-482.504282 0,-482.504282c-0.70001,0 -1,80.517129 -1,241.551128z"/>
    <path id="svg_311" d="m297.58316,771.51257l-14.60007,14.59986l-0.10003,13.39984c-0.09998,8.69995 0.20001,13.40002 0.90002,13.40002c0.60001,0 1,-4.70007 1,-13.20001l0,-13.29987l14.2001,-14.19989c7.79996,-7.79986 14,-14.39984 13.69999,-14.69989c-0.20002,-0.29992 -7,6 -15.10001,13.99994z" stroke="null"/>
    <path id="svg_312" d="m297.58316,800.91229l-14.80008,14.8999l0,39.99976c0,26.59979 0.29999,40.09961 1,40.09961c0.70001,0 1,-13.49982 1,-40.19971l-0.1,-40.1997l14.80007,-14.79987c8.10001,-8.09992 14.29999,-14.79987 13.79999,-14.69989c-0.59997,0 -7.59997,6.69995 -15.69998,14.8999z" stroke="null"/>
    <path id="svg_11" d="m280.18274,898.60675c-5.20001,1.30005 -7.90009,5.20007 -7.90009,11.30005c0,4.29993 0.5,5.90002 2.4,7.90002c1.89999,2 14.50015,5.09998 18.8002,-1.30005c6.29996,-9.3999 -2.10004,-20.79992 -13.30011,-17.90002zm8.60004,2.30005c3.70007,1.90002 5.00003,4.29993 5.00003,9.3999c0,5.6001 -3.19998,9.1001 -9.00006,9.80017c-5.50007,0.59998 -9.20011,-1.90014 -11.0001,-7.20007c-1,-3 -0.89996,-4.09998 0.70008,-7.19995c2.89999,-6 8.50006,-7.80005 14.30005,-4.80005z" stroke="null" transform="rotate(180 283.9630126953125,909.2440185546875) "/>
   </g>
   <path id="svg_12" d="m250.67793,648.30066l-50.20002,-50.20014l16.19999,0c10.10001,0 16.20001,-0.40002 16.20001,-0.99902c0,-0.70007 -18.3,-1 -52.99993,-1l-53.09961,0l-52.89999,0l-49.70012,0.04895l-0.0499,2.45007l49.75002,-0.5l51.79999,0l21.89985,0l21.79983,0l14.39989,14.39991c7.99997,8 14.89996,14.20007 15.39996,13.90002c0.5,-0.29993 -5.29998,-6.79993 -12.89999,-14.40002l-13.89989,-13.89991l13.19991,0l13.09997,0l51.10001,51.19996c28.10033,28.09899 51.10069,50.69897 51.10069,50.19897c0,-0.59998 -22.60037,-23.59979 -50.20067,-51.19879z" stroke="null" transform="rotate(90 162.50300598144523,647.8049926757814) "/>
  </g>
  <g transform="matrix(0.11111111773384952,0,0,0.11111111773384952,0,0) " id="svg_38">
   <title>background</title>
   <rect fill="none" id="svg_36" height="1202" width="1202" y="4798.999512" x="4798.999512"/>
  </g>
  <path id="svg_30" d="m783.59445,605.06061c-0.43334,-0.52222 -1.35556,-0.17777 -1.35556,0.52222c0,0.66666 0.90001,0.95556 1.32223,0.42223c0.28889,-0.36668 0.28889,-0.61112 0.03333,-0.94445zm-0.2,0.94445c-0.32222,0.33333 -0.83333,0.14444 -0.98889,-0.34445c-0.07778,-0.27778 0.26667,-0.7 0.56667,-0.7c0.54444,0 0.81111,0.65555 0.42222,1.04445z"/>
  <g stroke="null" id="svg_2">
   <path stroke="null" id="svg_33" d="m920.296855,597.445247l-5.732067,1.37398c-12.393438,2.900532 -21.688506,19.234858 -18.125335,31.90555c2.168896,8.243487 11.618846,17.555673 19.209875,18.929548l5.422119,0.915992c0,59.383925 -0.154882,60.757875 -2.943488,60.757875c-4.182698,0 -11.928595,8.090854 -13.168017,13.739225c-1.704053,8.70152 5.731996,19.845539 13.322997,19.845539c1.549185,0 2.788508,1.068624 2.788508,2.289866c0,1.221242 -0.929474,2.289866 -2.013915,2.289866c-3.718067,0 -8.830338,6.869613 -8.830338,11.601977c0,4.732455 5.267238,11.296727 8.985135,11.296727c1.394388,0 1.859118,18.624343 1.859118,77.092336c3.5631,77.092291 3.098356,60.605197 3.098356,0c0,-65.7957 0.309862,-77.092336 2.168882,-77.092336c3.09837,0 8.675385,-7.327571 8.675385,-11.449344c0,-4.121789 -5.577015,-11.449359 -8.675385,-11.449359c-1.239422,0 -2.168882,-1.068624 -2.168882,-2.289866c0,-1.37395 1.394303,-2.289866 3.253238,-2.289866c1.859048,0 5.267252,-2.137248 7.745897,-4.73247c3.563185,-3.816448 4.492659,-6.106314 4.492659,-11.601962c0,-5.800988 -0.774578,-7.632896 -5.267252,-12.060026c-2.943375,-2.900441 -6.351594,-5.190307 -7.745897,-5.190307l-2.478645,-60.757875l4.337594,-0.763284c6.351777,-1.221347 14.407438,-7.327661 17.660775,-13.281267c3.872949,-7.022336 3.253238,-21.066796 -1.394289,-27.17311c-4.182825,-5.648356 -12.54832,-10.991386 -16.886013,-10.991386l-3.718067,0l-3.872949,-0.916022zm0.774593,51.445779l-3.408303,-0.915916c-11.773628,-3.511107 -18.435085,-10.991386 -19.519525,-21.83008c-0.929573,-9.617527 6.74248,-28.890555 25.706048,-27.429376l-2.778219,50.175371zm13.942623,-45.644684c7.745883,5.190322 11.154101,10.838678 11.928694,19.082241c0.929474,11.754609 -6.506574,21.83008 -19.209861,25.646528l-3.5631,0.915916c0,-47.323975 0.154882,-49.00319 2.943474,-49.00319c1.549185,0 5.112285,1.526582 7.900793,3.358505zm-13.942623,157.695705c0,5.495648 -0.619711,9.922762 -1.394303,9.922762c-2.014,0 -7.900765,-7.480264 -7.900765,-9.922762c0,-2.442589 5.886765,-9.922777 7.900765,-9.922777c0.774593,0 1.394303,4.427024 1.394303,9.922777zm8.055745,-7.327571c3.408218,3.053149 3.5631,10.686061 0.154896,14.502509c-4.182825,4.579732 -5.112285,3.205782 -5.112285,-7.174938c0,-5.495754 0.464744,-9.922777 1.084441,-9.922777c0.464744,0 2.323778,1.068624 3.872949,2.595206z"/>
   <path stroke="null" d="m944.748652,649.965173c0.767526,-0.905358 1.364497,-2.18794 1.364497,-2.716059c0,-0.603567 1.193928,-2.263387 2.643703,-3.772312c2.558425,-2.565163 6.737194,-9.430758 6.737194,-11.166026c0,-1.282582 3.325951,-3.621417 9.380911,-6.563804c15.776952,-7.695505 28.569092,-21.879381 34.87987,-38.779316c2.046746,-5.507581 4.349324,-16.447264 4.349324,-21.049471c0,-2.866954 0.596971,-3.84776 4.946295,-8.37452c25.840098,-26.707932 38.205835,-58.470758 37.182477,-95.892029c-0.255847,-9.883445 -0.085292,-12.750399 0.938081,-14.485652c2.558425,-4.300432 -1.62033,-8.223639 -5.969682,-5.733909c-3.155382,1.810701 -2.899549,5.130327 0.596971,7.54461l2.814272,1.886149l0.170555,13.429414c0.170569,14.334757 -0.938081,23.91641 -4.093477,35.836899c-5.372697,20.521367 -17.823698,42.098957 -32.577292,56.433714l-4.0082,3.923208l0,-3.01785c0,-4.526775 -2.302578,-15.013786 -4.519879,-20.898575c-4.605171,-11.995937 -11.257087,-21.049471 -21.576065,-29.725782c-4.349324,-3.696865 -6.737194,-6.262028 -6.822472,-7.54461c-0.341124,-2.414283 -2.72898,-4.074103 -5.031573,-3.395089c-64.205422,5.170022 -30.901971,-50.232316 -45.732843,-3.583202l18.016541,-57.226376l3.240674,-1.433477c7.248873,-3.244178 6.993041,-12.448608 -0.426402,-15.541906l-2.814272,-1.207134l-0.852804,-71.59838l2.473148,0c4.434602,0 14.838871,2.263387 16.459201,3.545969c1.193942,0.905358 1.790899,1.056238 2.558425,0.377224c1.790899,-1.584358 0.085292,-3.017835 -4.178755,-3.319626c-2.217301,-0.226343 -7.078318,-0.82991 -10.745394,-1.358029l-6.566625,-0.905358l-0.852804,0.150896l-11.854044,0c-7.334151,0 -14.2419,0.452687 -17.994267,1.131701c-50.230449,9.35531 -89.289074,50.624357 -97.56132,102.983967c-2.38787,15.24013 -1.193942,37.270391 2.899549,52.661401c7.419429,27.764185 25.328418,53.642207 48.524813,69.787664c7.078304,4.903998 7.334151,5.205789 8.613356,10.336116c2.38787,9.279893 8.101705,19.842352 15.606426,28.594096l4.264047,4.979446l0,10.713355c-0.085292,9.506206 0.085278,10.864235 1.535052,11.995937c1.279205,0.980791 1.876177,1.056238 2.814272,0.301776c2.984827,-2.112492 2.217301,-6.035685 -1.193942,-6.035685c-1.193928,0 -1.535052,-0.905358 -1.961454,-4.67767c-1.449775,-14.485652 8.186955,-27.76417 23.111118,-31.611915c3.325951,-0.82991 3.752353,-0.82991 5.713807,0.82991c1.705621,1.433477 2.302592,1.584373 3.325965,0.82991c1.876177,-1.433477 2.473133,-3.772312 1.364483,-4.979446c-1.364483,-1.433477 -3.325951,-1.433477 -5.031559,-0.075448c-0.76754,0.528119 -3.240674,1.584373 -5.543266,2.18794c-8.954481,2.640611 -16.288646,8.148176 -20.808525,15.54189l-2.558425,3.998656l-3.922922,-4.375879c-2.132023,-2.489731 -5.884376,-7.846401 -8.186969,-11.995937c-4.690462,-8.449967 -9.039787,-19.993233 -7.419443,-19.993233c1.705607,0.075448 4.605157,2.489716 6.05496,5.054894c2.302578,4.074088 7.334151,3.99864 8.528079,-0.150896c1.10865,-3.923208 -2.643703,-6.563819 -7.163596,-4.903998c-2.04676,0.754462 -2.899564,0.679015 -5.031587,-0.452671c-3.922922,-2.037059 -4.690448,-5.054894 -4.093477,-16.824487c0.511679,-12.22228 1.705621,-17.05083 4.946281,-20.068665c1.961468,-1.886164 2.302592,-2.866954 2.217315,-6.0357c-0.170569,-3.244178 0.426402,-4.677655 3.66709,-9.657101c9.295619,-14.485667 22.343591,-24.142769 39.058639,-29.122215c43.152131,2.640611 43.407977,2.791507 43.834379,5.507565c0.170569,1.358029 1.193928,2.791507 2.643703,3.772312l2.473148,1.584358l1.620344,-1.810701l1.705607,-1.810701l8.272246,7.469162c9.551466,8.600878 14.327192,15.391025 18.676516,26.632499c3.325951,8.600848 5.799099,21.653023 4.605171,24.369097c-0.426416,1.056238 -3.411243,3.923193 -6.566639,6.488356c-5.372683,4.375879 -8.0164,5.658461 -8.0164,3.923208c0,-1.508925 -4.264047,-1.735268 -5.969654,-0.377239c-2.984827,2.414283 -1.27922,7.921848 2.387856,7.921848c0.596971,0 4.861018,-3.470521 9.636743,-7.620057c4.690448,-4.224984 8.698648,-7.469177 8.869203,-7.318281c0.255847,0.226343 0,3.168745 -0.426402,6.714714c-3.581798,25.802574 -18.505947,46.022135 -41.617078,56.433698l-3.581798,1.584373l0,-2.791507c-0.085278,-6.941043 -2.558425,-14.334757 -6.396056,-19.389651c-1.108665,-1.433477 -1.961468,-3.545969 -1.876191,-4.677655c0.341124,-3.772312 -5.287405,-4.451327 -6.054931,-0.754462c-0.426416,1.659805 2.217301,4.300432 4.0082,4.074088c0.938081,-0.150896 2.473148,1.65982 4.775726,5.733909c3.155396,5.507565 3.411229,6.488356 3.325951,11.694146c-0.170555,10.185221 -1.62033,14.5611 -6.737194,20.144113c-2.217301,2.338835 -3.411229,3.093282 -4.690434,2.791507c-3.66709,-0.82991 -5.628544,2.942402 -2.728994,5.281222c2.046746,1.65982 2.38787,1.584373 3.922922,-0.377224zm-95.855713,-90.988031c-9.977868,-9.355325 -16.203368,-17.277159 -22.599424,-28.367737c-8.016414,-14.032981 -13.389097,-29.424006 -15.862244,-45.720374c-1.193942,-7.921833 -1.449775,-25.953454 -0.511693,-32.441825c4.946295,-32.969975 18.250114,-58.546205 40.678983,-78.463975c16.118077,-14.259339 35.391578,-23.765545 55.773701,-27.613305c6.907749,-1.282582 24.731447,-2.263372 28.14269,-1.50891l2.217301,0.452671l0.170555,71.522933l-2.899549,1.207134c-6.140223,2.640626 -7.675275,9.053534 -3.155396,13.655757c1.449775,1.433477 3.155396,2.640611 3.752367,2.640611c0.596957,0 1.279205,0.754462 1.62033,1.735253c-14.327178,55.603803 -28.995494,60.658697 -38.802792,67.373412c-6.140223,4.149536 -13.303819,11.241474 -16.970894,16.749055c-5.287434,7.997281 -6.907763,10.034325 -8.357538,10.486996c-4.264047,1.358029 -5.713821,5.054894 -3.155396,8.299072c1.10865,1.433477 1.10865,2.18794 -0.085278,6.790162c-0.852804,3.395074 -1.364497,8.600848 -1.27922,15.617338c0,5.809356 -0.170555,10.788803 -0.426402,11.166026c-0.767526,1.056253 -10.318978,-6.035685 -18.2501,-13.580294z" id="svg_7"/>
  </g>
 </g>
</svg>