<svg width="1200" height="1200" xmlns="http://www.w3.org/2000/svg" preserveAspectRatio="xMidYMid meet">
 <g stroke="null">
  <title>background</title>
  <rect x="-1" y="-1" width="1202" height="1202" id="canvas_background" fill="none" stroke="null"/>
 </g>

 <g stroke="null">
  <title>Layer 1</title>
  <g id="svg_172" stroke="null" transform="matrix(0.6410596995961808,0,0,0.668513848934493,-2418.9154617799977,-2610.9770316627023) ">
   <title>Layer 1</title>
   <g fill="#000000" id="svg_156" stroke="null" transform="rotate(-90 40655.69140625001,34891.140625) matrix(0.668513848934493,0,0,0.6410596995961808,5705.84018318665,-2230.9418616293615) ">
    <path d="m4834.0188,5162.92601c-4.20002,-9.40003 -13.5,-8.29993 -18.80005,-2.29993c-5,5.49993 -2.79999,15.09991 4.10003,17.8999c9.39997,3.89997 18.90003,-6.19995 14.70002,-15.59997z" id="svg_168" stroke="null"/>
    <path d="m4714.219,5177.82496l-50.19995,-50.20001l16.19995,0c10.10003,0 16.20001,-0.40003 16.20001,-1c0,-0.70001 -18.29999,-1 -53,-1l-53.09998,0l-52.90002,0l-49.70001,-0.20007l-49.69995,-0.29993l-0.90003,-3.70007c-1.90002,-8 -12.59997,-14 -20.90002,-11.69996c-5.39997,1.40003 -11.5,7.5 -12.39997,12.40003l-0.60003,3.5l-19.89997,0c-19,0 -19.90002,-0.09998 -19.90002,-1.90003c0,-2.69995 -5.29999,-7.69995 -9,-8.5c-5.70001,-1.09997 -13,3.70002 -13,8.60004c0,1 -0.70001,1.79999 -1.5,1.79999c-0.79999,0 -1.5,-0.59998 -1.5,-1.29999c0,-2.40002 -4.5,-5.70001 -7.59998,-5.70001c-3.10003,0 -7.40002,3.40002 -7.40002,5.79993c0,0.90008 -12.20004,1.20007 -50.50003,1.20007c-50.5,2.29999 -39.69998,2 0,2c43.10007,0 50.50003,0.20001 50.50003,1.40002c0,2 4.79999,5.59998 7.5,5.59998c2.70001,0 7.5,-3.59998 7.5,-5.59998c0,-0.80005 0.70001,-1.40002 1.5,-1.40002c0.90002,0 1.5,0.90002 1.5,2.09997c0,1.20002 1.40002,3.40003 3.10004,5c2.5,2.30005 4,2.90003 7.59997,2.90003c3.79999,0 5,-0.5 7.90003,-3.40003c1.89996,-1.89996 3.39996,-4.09997 3.39996,-5c0,-1.39996 2.29999,-1.59997 19.90002,-1.59997l19.89997,0l0.5,2.79993c0.80005,4.10009 4.80005,9.30004 8.70001,11.40008c4.60004,2.5 13.79999,2.09998 17.79999,-0.90002c3.70001,-2.70002 7.20001,-8.09998 7.20001,-10.89997l0,-2.40002l50,0l50,0l51.79999,0l21.90002,0l21.79999,0l14.40002,14.40002c8,8 14.89997,14.19996 15.39997,13.89997c0.5,-0.29999 -5.29999,-6.79999 -12.89997,-14.39997l-13.90002,-13.90002l13.20001,0l13.09998,0l51.10003,51.20001c28.09998,28.09998 51.09998,50.69989 51.09998,50.19995c0,-0.60003 -22.59998,-23.60003 -50.20001,-51.19995zm-293.89997,-52.20001l-16,0l0.59998,-2.20007c2.29999,-7.59992 7.20001,-11.89991 14.29999,-12.59992c6.30005,-0.60004 12,2.29999 15,7.70001c4.20001,7.09998 4.20001,7.09998 -13.89997,7.09998zm13.89997,9c-3.39997,5 -7.09998,7.20001 -12.5,7.70001c-7.69996,0.59998 -14.29999,-4.20001 -16.79999,-12.40002l-0.59998,-2.29999l16,0c15,0 16.09998,0.09997 16.09998,1.90002c0,1 -1,3.29999 -2.20001,5.09998zm-103.29999,-9c-3.59998,0 -6.5,-0.40003 -6.5,-0.90003c0,-1.30004 4.90002,-5.09997 6.5,-5.09997c1.60004,0 6.5,3.79993 6.5,5.09997c0,0.5 -2.89996,0.90003 -6.5,0.90003zm4.79999,5.20001c-2,2.20001 -7,2.29999 -9.5,0.09998c-3,-2.70002 -2.09998,-3.29999 4.70001,-3.29999c3.60004,0 6.5,0.29999 6.5,0.70001c0,0.29999 -0.70001,1.5 -1.70001,2.5z" id="svg_167" stroke="null"/>
    <path d="m4142.22049,4936.62504c-2.20001,-4.20001 -7.70001,-7.20001 -11.79999,-6.5c-4.70007,0.79999 -10,6.39999 -10,10.5c0,7 4.90002,12 11.70001,12c8.09998,0 13.79999,-9 10.09998,-16z" id="svg_166" stroke="null"/>
    <path d="m4453.61841,4940.62543c-306.49997,0 -317.09998,-0.09998 -317.39997,-1.79999l0.19998,7.79999l0,-2.5l0,-2.5l316.69999,0c174.10003,0 316.80005,-0.19998 317.10003,-0.5c0.29999,-0.29999 -142.20001,-0.5 -316.60003,-0.5z" id="svg_165" stroke="null"/>
    <path d="m4764.61871,5051.52603c-3.90002,-4.69995 -12.20001,-1.59997 -12.20001,4.69996c0,6 8.10004,8.60009 11.90002,3.80011c2.59998,-3.30011 2.59998,-5.50007 0.29999,-8.50007zm-1.79999,8.50007c-2.90002,3 -7.5,1.29999 -8.90002,-3.10003c-0.70001,-2.50006 2.40002,-6.29999 5.10004,-6.29999c4.89996,0 7.29998,5.89995 3.79998,9.40002z" id="svg_164" stroke="null"/>
    <path d="m4680.21869,4762.02542c-1.29999,-5.19998 -5.19996,-7.89999 -11.29999,-7.89999c-4.29999,0 -5.89996,0.5 -7.89996,2.39999c-5.70002,5.4 -5.10004,14.5 1.29998,18.80002c9.39997,6.29999 20.79999,-2.1 17.89997,-13.30002zm-2.29999,8.60001c-1.89996,3.70001 -4.29999,5 -9.39996,5c-5.60004,0 -9.10004,-3.2 -9.80005,-9c-0.59998,-5.5 1.90002,-9.2 7.20001,-11c3,-1 4.10004,-0.89998 7.20001,0.70001c6,2.9 7.79999,8.5 4.79999,14.29999z" id="svg_163" stroke="null"/>
    <path d="m4367.31869,4764.62543c-185.79999,0 -280.79999,0.39999 -280.39999,1c0.90001,1.39999 561.5,1.39999 561.5,0c0,-0.7 -93.70001,-1 -281.10001,-1z" id="svg_162" stroke="null"/>
    <path d="m4098.81871,4779.42543l-14.60001,-14.59998l-13.39999,-0.1c-8.70001,-0.10002 -13.40001,0.19998 -13.40001,0.89998c0,0.60002 4.7,1 13.2,1l13.3,0l14.2,14.20001c7.8,7.79999 14.4,14 14.70001,13.69998c0.29999,-0.19998 -6,-7 -14,-15.1l0,0.00001z" id="svg_161" stroke="null"/>
    <path d="m4069.4187,4779.42543l-14.89999,-14.8l-40,0c-26.60001,0 -40.10001,0.3 -40.10001,1c0,0.70001 13.5,1 40.2,1l40.20001,-0.10001l14.79999,14.80002c8.1,8.09998 14.8,14.29999 14.70001,13.79999c0,-0.60001 -6.70001,-7.60001 -14.90001,-15.7z" id="svg_160" stroke="null"/>
    <path d="m4709.68316,4637.39251c-3.7998,-6.9 -15.7998,-6.7 -19.59985,0.4c-4.80005,9 3.40002,19.5 13.19995,16.6c6.69995,-2.1 10,-10.6 6.3999,-17z" id="svg_159" stroke="null"/>
   </g>
  </g>
  <g id="svg_6">
   <g id="svg_4" stroke="null">
    <path id="svg_2" transform="translate(46,-210) translate(1.0526314973831177,0) translate(1.0526314973831177,0) translate(1.0526314973831177,0) translate(-52.00040817260742,-16.000125885009766) translate(0,-1.0000001192092896) translate(0,-1.0000001192092896) translate(0,-1.0000001192092896) translate(0,-1.0000001192092896) translate(0,-1.0000001192092896) translate(1.0000001192092896,0) translate(1.0000001192092896,0) translate(1.0000001192092896,0) translate(1.0000001192092896,0) translate(1.0000001192092896,0) translate(1.0000001192092896,0) translate(1.0000001192092896,0) translate(1.0000001192092896,0) translate(1.0000001192092896,0) translate(1.0000001192092896,0) translate(1.0000001192092896,0) translate(1.0000001192092896,0) translate(1.0000001192092896,0) translate(1.0000001192092896,0) translate(1.0000001192092896,0) translate(1.0000001192092896,0) translate(1.0000001192092896,0) translate(1.0000001192092896,0) translate(1.0000001192092896,0) translate(1.0000001192092896,0) translate(1.0000001192092896,0) translate(1.0000001192092896,0) translate(1.0000001192092896,0) translate(1.0000001192092896,0) translate(1.0000001192092896,0) translate(1.0000001192092896,0) translate(1.0000001192092896,0) translate(1.0000001192092896,0) translate(1.0000001192092896,0) translate(20.000001907348633,20.000001907348633) translate(-0.999995231628418,0) translate(-0.999995231628418,0) translate(-0.999995231628418,0) translate(-0.999995231628418,0) translate(-0.999995231628418,0) translate(-0.999995231628418,0) translate(-0.999995231628418,0) translate(-0.999995231628418,0) translate(-0.999995231628418,0) translate(-0.999995231628418,0) translate(-0.999995231628418,0) translate(-0.999995231628418,0) translate(-0.999995231628418,0) translate(-0.999995231628418,0) translate(-0.999995231628418,0) translate(-0.999995231628418,0) translate(-0.999995231628418,0) translate(-0.999995231628418,0) translate(-0.999995231628418,0) translate(-0.999995231628418,0) translate(-0.999995231628418,0) translate(-0.999995231628418,0) translate(-0.999995231628418,0) translate(-0.999995231628418,0) translate(-0.999995231628418,0) translate(-0.999995231628418,0) translate(-0.999995231628418,0) translate(-0.999995231628418,0) translate(-0.999995231628418,0) translate(-0.999995231628418,0) translate(-0.999995231628418,0) translate(-0.999995231628418,0) translate(-0.999995231628418,0) translate(-0.999995231628418,0) translate(-0.999995231628418,0) translate(-0.999995231628418,0) translate(-0.999995231628418,0) translate(-0.999995231628418,0) translate(-0.999995231628418,0) translate(-0.999995231628418,0) translate(-0.999995231628418,0) translate(-0.999995231628418,0) translate(-0.999995231628418,0) translate(-0.999995231628418,0) translate(-0.999995231628418,0) translate(-0.999995231628418,0) translate(-0.999995231628418,0) translate(-0.999995231628418,0) translate(-0.999995231628418,0) translate(-0.999995231628418,0) translate(-0.999995231628418,0) translate(-0.999995231628418,0) translate(-0.999995231628418,0) translate(-0.999995231628418,0) translate(-0.999995231628418,0) translate(-0.999995231628418,0) translate(-0.999995231628418,0) translate(-0.999995231628418,0) translate(-0.999995231628418,0) translate(-0.999995231628418,0) translate(-0.999995231628418,0) translate(-0.999995231628418,0) translate(-0.999995231628418,0) translate(-0.999995231628418,0) translate(-0.999995231628418,0) translate(-0.999995231628418,0) translate(-0.999995231628418,0) translate(-0.999995231628418,0) translate(-0.999995231628418,0) translate(-0.999995231628418,0) translate(-0.999995231628418,0) translate(-0.999995231628418,0) translate(-0.999995231628418,0) translate(-0.999995231628418,0) translate(-0.999995231628418,0) translate(-0.999995231628418,0) translate(-0.999995231628418,0) translate(-0.999995231628418,0) translate(-0.999995231628418,0) translate(-0.999995231628418,0) translate(19.99990463256836,19.99990463256836) translate(19.99990463256836,19.99990463256836) translate(1.212120771408081,0) translate(-0.6060603857040405,0) translate(-0.6060603857040405,0) translate(0.6060603857040405,0) translate(0.6060603857040405,0) translate(-1.3333333730697632,0) translate(-1.3333333730697632,0) translate(-1.3333333730697632,0) translate(-1.3333333730697632,0) translate(-1.3333333730697632,0) translate(-1.3333333730697632,0) translate(-1.3333333730697632,0) translate(-1.3333333730697632,0) translate(-1.3333333730697632,0) rotate(-90 203.65298461914065,405.9957580566406) " stroke="null"/>
    <path d="m230.73607,840.29302l12.79995,-12.79999l-35.79995,-35.79999l-35.70003,-35.70002l-35.69998,35.80001l-35.80002,35.7l35.70001,35.69999l35.79999,35.8l22.13329,-22.13328l21.36669,-21.36671l15.20005,-15.20001zm-1.90003,0.90002l-13.30002,13.29999l-86.99998,0l-13.5,-13.5l-13.83328,-13.5l35.6333,-35.30001l70.19997,-0.19999c19.20004,19.19999 35,35.2 35,35.5c0,0.29999 -6,6.40001 -13.19999,13.70001z" id="svg_3" transform="rotate(-90 172.03575134277358,827.4930419921876) " stroke="null"/>
   </g>
   <g id="svg_1" stroke="null">
    <path d="m380.37816,510.51007l-50.19995,-50.20001l16.19995,0c10.10003,0 16.20001,-0.40003 16.20001,-1c0,-0.70001 -18.29999,-1 -53,-1l-53.09998,0l-52.90002,0l-49.70001,-0.20007l-49.69995,-0.29993l-0.90003,-3.70007c-1.90002,-8 -12.59997,-14 -20.90002,-11.69996c-5.39997,1.40003 -11.5,7.5 -12.39997,12.40003l-0.60003,3.5l-19.89997,0c-19,0 -19.90002,-0.09998 -19.90002,-1.90003c0,-2.69995 -5.29999,-7.69995 -9,-8.5c-5.70001,-1.09997 -13,3.70002 -13,8.60004c0,1 -0.70001,1.79999 -1.5,1.79999c-0.79999,0 -1.5,-0.59998 -1.5,-1.29999c0,-2.40002 -4.5,-5.70001 -7.59998,-5.70001c-3.10003,0 -7.40002,3.40002 -7.40002,5.79993c0,0.90008 -12.20004,1.20007 -50.50003,1.20007c-50.5,2.29999 -39.69998,2 0,2c43.10007,0 50.50003,0.20001 50.50003,1.40002c0,2 4.79999,5.59998 7.5,5.59998c2.70001,0 7.5,-3.59998 7.5,-5.59998c0,-0.80005 0.70001,-1.40002 1.5,-1.40002c0.90002,0 1.5,0.90002 1.5,2.09997c0,1.20002 1.40002,3.40003 3.10004,5c2.5,2.30005 4,2.90003 7.59997,2.90003c3.79999,0 5,-0.5 7.90003,-3.40003c1.89996,-1.89996 3.39996,-4.09997 3.39996,-5c0,-1.39996 2.29999,-1.59997 19.90002,-1.59997l19.89997,0l0.5,2.79993c0.80005,4.10009 4.80005,9.30004 8.70001,11.40008c4.60004,2.5 13.79999,2.09998 17.79999,-0.90002c3.70001,-2.70002 7.20001,-8.09998 7.20001,-10.89997l0,-2.40002l50,0l50,0l51.79999,0l21.90002,0l21.79999,0l14.40002,14.40002c8,8 14.89997,14.19996 15.39997,13.89997c0.5,-0.29999 -5.29999,-6.79999 -12.89997,-14.39997l-13.90002,-13.90002l13.20001,0l13.09998,0l51.10003,51.20001c28.09998,28.09998 51.09998,50.69989 51.09998,50.19995c0,-0.60003 -22.59998,-23.60003 -50.20001,-51.19995zm-293.89997,-52.20001l-16,0l0.59998,-2.20007c2.29999,-7.59992 7.20001,-11.89991 14.29999,-12.59992c6.30005,-0.60004 12,2.29999 15,7.70001c4.20001,7.09998 4.20001,7.09998 -13.89997,7.09998zm13.89997,9c-3.39997,5 -7.09998,7.20001 -12.5,7.70001c-7.69996,0.59998 -14.29999,-4.20001 -16.79999,-12.40002l-0.59998,-2.29999l16,0c15,0 16.09998,0.09997 16.09998,1.90002c0,1 -1,3.29999 -2.20001,5.09998zm-103.29999,-9c-3.59998,0 -6.5,-0.40003 -6.5,-0.90003c0,-1.30004 4.90002,-5.09997 6.5,-5.09997c1.60004,0 6.5,3.79993 6.5,5.09997c0,0.5 -2.89996,0.90003 -6.5,0.90003zm4.79999,5.20001c-2,2.20001 -7,2.29999 -9.5,0.09998c-3,-2.70002 -2.09998,-3.29999 4.70001,-3.29999c3.60004,0 6.5,0.29999 6.5,0.70001c0,0.29999 -0.70001,1.5 -1.70001,2.5z" id="svg_35" stroke="null" transform="rotate(90 167.85546874999997,501.8222045898438) "/>
    <path d="m217.36067,699.12795c-3.90002,-4.69995 -12.20001,-1.59997 -12.20001,4.69996c0,6 8.10005,8.60009 11.90003,3.80011c2.59997,-3.30011 2.59997,-5.50007 0.29999,-8.50007l-0.00001,0zm-1.79999,8.50006c-2.90002,3 -7.5,1.29999 -8.90002,-3.10003c-0.70001,-2.50006 2.40002,-6.29999 5.10004,-6.29999c4.89996,0 7.29998,5.89996 3.79998,9.40002z" id="svg_68" stroke="null" transform="rotate(90 212.10528564453116,703.4895629882814) "/>
    <path d="m110.55267,763.13336c-4.20002,-9.40003 -13.5,-8.29993 -18.80005,-2.29993c-5,5.49994 -2.79999,15.09992 4.10003,17.8999c9.39997,3.89997 18.90003,-6.19995 14.70002,-15.59997z" id="svg_139" stroke="null" transform="rotate(90 100.3039550781249,767.8963012695314) "/>
   </g>
   <g id="svg_135" stroke="null">
    <path id="svg_133" transform="translate(46,-210) translate(0,0.7691940665245056) translate(-0.7691940665245056,0) translate(0,-0.7691940665245056) translate(-0.7691940665245056,0) translate(0,-0.7691940665245056) translate(-0.7691940665245056,0) translate(1.5383881330490112,0) translate(0.7691940665245056,0) translate(0.7691940665245056,0) translate(0,0.7691940665245056) translate(0.7691940665245056,0) translate(0,0.7691940665245056) translate(0,-0.7691940665245056) translate(-0.7691940665245056,0) translate(0,-0.7691940665245056) translate(-0.7691940665245056,0) translate(0,0.7691940665245056) translate(0.7691940665245056,0) translate(0,0.7691940665245056) translate(0.7691940665245056,0) translate(0,0.7691940665245056) translate(0.7691940665245056,0) translate(0,0.7691940665245056) translate(0.7691940665245056,0) translate(0,0.7691940665245056) translate(0,-0.7691940665245056) translate(-0.7691940665245056,0) translate(0,-0.7691940665245056) translate(-0.7691940665245056,0) translate(0,-0.7691940665245056) translate(-0.7691940665245056,0) translate(0,-0.7691940665245056) translate(-0.7691940665245056,0) translate(0,-0.7691940665245056) translate(-0.7691940665245056,0) translate(0.7691940665245056,0) translate(0,0.7691940665245056) translate(0,1.25) translate(1.25,0) translate(0,-1.25) translate(-1.25,0) translate(0,-1.25) translate(-1.25,0) translate(0,-1.25) translate(-1.25,0) translate(1.25,0) translate(0,1.25) translate(1.25,0) translate(0,1.25) translate(1.25,0) translate(0,1.25) translate(1.25,0) translate(0,1.25) translate(1.25,0) translate(0,1.25) translate(-2.5,0) translate(0,-1.25) translate(0,-1.25) translate(1.25,0) translate(1.25,0) translate(1.25,0) translate(-1.25,0) translate(-1.25,0) translate(-1.25,0) translate(-1.25,0) translate(1.25,0) translate(0,-1.25) translate(0,-1.25) translate(0,-1.25) translate(0,-1.25) translate(0,-1.25) translate(-1.25,0) translate(-1.25,0) translate(-1.25,0) translate(-1.25,0) translate(-1.25,0) translate(25,25) translate(1.212120771408081,0) translate(-0.6060603857040405,0) translate(-0.6060603857040405,0) translate(0.6060603857040405,0) translate(0.6060603857040405,0) translate(-1.3333333730697632,0) translate(-1.3333333730697632,0) translate(-1.3333333730697632,0) translate(-1.3333333730697632,0) translate(-1.3333333730697632,0) translate(-1.3333333730697632,0) translate(-1.3333333730697632,0) translate(-1.3333333730697632,0) translate(-1.3333333730697632,0) rotate(-90 203.65298461914065,405.9957580566406) " stroke="null"/>
    <path d="m290.57839,821.29334l12.79995,-12.79999l-35.79995,-35.8l-35.70003,-35.70002l-35.69998,35.80001l-35.80002,35.70001l35.70001,35.69998l35.79999,35.8l22.13329,-22.13328l21.36669,-21.3667l15.20005,-15.20001zm-1.90003,0.90001l-13.30002,13.3l-86.99998,0l-13.5,-13.5l-13.83328,-13.5l35.6333,-35.30001l70.19997,-0.19999c19.20004,19.19999 35,35.19999 35,35.5c0,0.29999 -6,6.4 -13.19999,13.7z" id="svg_134" transform="rotate(-90 231.87840270996097,808.4933471679688) " stroke="null"/>
   </g>
   <g id="svg_221" stroke="null">
    <path id="svg_219" transform="translate(46,-210) translate(1.212120771408081,0) translate(-0.6060603857040405,0) translate(-0.6060603857040405,0) translate(0.6060603857040405,0) translate(0.6060603857040405,0) translate(-1.3333333730697632,0) translate(-1.3333333730697632,0) translate(-1.3333333730697632,0) translate(-1.3333333730697632,0) translate(-1.3333333730697632,0) translate(-1.3333333730697632,0) translate(-1.3333333730697632,0) translate(-1.3333333730697632,0) translate(-1.3333333730697632,0) rotate(-90 203.65298461914065,405.9957580566406) " stroke="null"/>
    <path d="m270.57839,801.29334l12.79995,-12.79999l-35.79995,-35.8l-35.70003,-35.70002l-35.69998,35.80001l-35.80002,35.70001l35.70001,35.69998l35.79999,35.8l22.13329,-22.13328l21.36669,-21.3667l15.20005,-15.20001zm-1.90003,0.90001l-13.30002,13.3l-86.99998,0l-13.5,-13.5l-13.83328,-13.5l35.6333,-35.30001l70.19997,-0.19999c19.20004,19.19999 35,35.19999 35,35.5c0,0.29999 -6,6.4 -13.19999,13.7z" id="svg_220" transform="rotate(-90 211.87840270996108,788.4933471679689) " stroke="null"/>
   </g>
  </g>
  <g stroke="null" id="svg_75">
   <g stroke="null" transform="matrix(1.3182233804612171,0,0,1.325421679635606,17.704937176455132,-69.54281597410443) " id="svg_73">
    <title stroke="null" transform="translate(2.5286593437194824,0) translate(2.5286593437194824,0) translate(2.494513988494873,0) translate(2.494513988494873,0) translate(2.494513988494873,0) translate(2.494513988494873,0) translate(2.494513988494873,0) translate(2.494513988494873,0) translate(2.494513988494873,0) translate(2.494513988494873,0) translate(2.494513988494873,0) translate(2.494513988494873,0) ">background</title>
    <rect stroke="null" fill="none" id="svg_71" height="394" width="430" y="237.47387" x="563.20265"/>
   </g>
   <g stroke="null" transform="matrix(1.3182233804612171,0,0,1.325421679635606,17.704937176455132,-69.54281597410443) " id="svg_74">
    <title stroke="null" transform="translate(2.5286593437194824,0) translate(2.5286593437194824,0) translate(2.494513988494873,0) translate(2.494513988494873,0) translate(2.494513988494873,0) translate(2.494513988494873,0) translate(2.494513988494873,0) translate(2.494513988494873,0) translate(2.494513988494873,0) translate(2.494513988494873,0) translate(2.494513988494873,0) translate(2.494513988494873,0) ">Layer 1</title>
    <path stroke="null" id="svg_70" d="m1671.60267,1136.47387z"/>
    <g stroke="null" id="svg_40">
     <path stroke="null" transform="rotate(180 792.5230102539062,513.8690185546875) " id="svg_69" d="m795.92978,495.26032c-14.83761,2.77469 -28.63398,9.21197 -43.60175,20.53269c-6.50772,4.88345 -8.32988,5.66037 -11.45359,5.10543c-7.41881,-1.22086 -11.84406,6.77024 -6.24742,11.54271c4.03479,3.44061 10.41236,0.66592 10.41236,-4.43951c0,-5.43838 16.26931,-17.97998 31.88785,-24.75022c21.21518,-9.10097 51.28086,-10.87677 68.07079,-3.88456c4.16494,1.66481 5.98711,1.99778 7.1585,0.99889c2.60309,-2.21975 -1.30155,-3.88457 -12.49483,-5.3274c-13.92653,-1.7758 -33.31955,-1.66482 -43.73191,0.22197l0,0z"/>
     <path stroke="null" transform="rotate(180 776.5708618164062,405.032958984375) " id="svg_67" d="m688.92769,328.53148c-2.08247,1.33185 -2.47293,2.99666 -2.60309,9.7669c0,4.4395 -1.04123,11.87567 -2.34278,16.42615c-2.60309,9.65592 -3.64432,29.63367 -1.95231,39.95552c2.08247,12.65258 6.24741,24.63923 11.97421,34.96107l5.72679,9.98888l8.85051,10.32184c13.66622,14.2064 28.11337,23.0854 47.63654,29.18972c9.11081,2.88567 13.27576,3.5516 24.59919,3.77357c28.37368,0.77692 49.71902,-6.2153 71.97543,-23.75133c5.59664,-4.4395 8.5902,-6.10431 10.80282,-5.88234c3.38402,0.44395 8.32989,-3.21864 8.32989,-6.2153c0,-3.21864 -3.77448,-6.88123 -7.1585,-6.88123c-3.64432,0 -7.67911,4.32852 -6.89818,7.43617c2.34278,8.54604 -29.15461,27.52491 -53.10303,32.0754c-15.22807,2.77468 -35.53217,1.7758 -49.58886,-2.66371c-18.22162,-5.77135 -34.62109,-16.31516 -47.24607,-30.63255c-2.8634,-3.21864 -5.20618,-6.21531 -5.20618,-6.65926l-2.34278,-2.77468l-3.51417,-6.43728c-12.62499,-23.1964 -16.78993,-49.38945 -11.4536,-73.25177c2.47294,-11.43172 4.55541,-15.31628 9.11082,-17.20307c4.42525,-1.7758 5.46648,-6.43728 2.34278,-10.43283c-2.34278,-2.99666 -4.2951,-3.32962 -7.93943,-1.10987l0,0z"/>
     <path stroke="null" transform="rotate(180 673.03076171875,424.81982421875006) " id="svg_66" d="m672.01393,378.64902c-0.39046,0.55494 0.52062,2.99667 1.95232,5.43839c5.46649,8.98999 8.32989,32.0754 5.9871,49.38946c-0.52061,4.21752 -2.21262,11.43171 -3.77448,16.09319c-2.21262,6.54826 -3.51417,8.65703 -5.46648,8.879c-9.24097,1.44284 -9.76159,13.54048 -0.65078,13.54048c4.81572,0 7.02835,-3.32962 6.11727,-8.65703c-0.52062,-2.44172 0.52061,-7.9911 2.60309,-15.0943c4.81571,-15.87122 5.07602,-38.73465 0.52061,-57.60253c-2.08247,-8.65703 -3.64432,-12.98554 -4.81571,-12.98554c-0.91108,0 -1.95232,0.44395 -2.47294,0.99888l0,0z"/>
     <path stroke="null" id="svg_65" d="m848.11895,471.24214c-0.79952,-1.01968 -2.50105,-0.34712 -2.50105,1.01969c0,1.30174 1.66054,1.86585 2.43955,0.82446c0.533,-0.71598 0.533,-1.19328 0.0615,-1.84415zm-0.36901,1.84415c-0.59451,0.65087 -1.53753,0.28204 -1.82453,-0.67257c-0.14351,-0.54241 0.49201,-1.36683 1.04552,-1.36683c1.00451,0 1.49652,1.28004 0.77901,2.0394l0,0z"/>
     <g stroke="null" id="svg_53">
      <path stroke="null" id="svg_64" d="m788.27967,449.71927c-0.45101,-0.91122 -1.57853,-1.56209 -2.41904,-1.41022c-0.96353,0.17357 -2.05004,1.38853 -2.05004,2.27805c0,1.5187 1.00453,2.60348 2.39855,2.60348c1.66052,0 2.82905,-1.95261 2.07053,-3.47131l0,0z"/>
      <path stroke="null" id="svg_63" d="m758.09153,412.60695c-0.45101,-0.91121 -1.57853,-1.56209 -2.41904,-1.41022c-0.96353,0.17357 -2.05004,1.38853 -2.05004,2.27805c0,1.5187 1.00452,2.60348 2.39855,2.60348c1.66052,0 2.82904,-1.95261 2.07053,-3.47131z"/>
      <path stroke="null" id="svg_62" d="m829.03783,451.0632c-39.5643,0 -40.9326,-0.02169 -40.97131,-0.39052l0.02581,1.69227l0,-0.5424l0,-0.54239l40.88096,0c22.47356,0 40.89388,-0.04339 40.9326,-0.10848c0.03872,-0.06508 -18.35577,-0.10848 -40.86806,-0.10848l0,0z"/>
      <path stroke="null" id="svg_61" d="m792.66558,431.73702c-0.45101,-0.91122 -1.57853,-1.56209 -2.41904,-1.41022c-0.96353,0.17357 -2.05004,1.38853 -2.05004,2.27805c0,1.5187 1.00452,2.60348 2.39855,2.60348c1.66052,0 2.82904,-1.95261 2.07053,-3.47131z"/>
      <path stroke="null" id="svg_60" d="m790.91122,395.33392c-0.45101,-0.91122 -1.57853,-1.56209 -2.41904,-1.41022c-0.96353,0.17357 -2.05004,1.38853 -2.05004,2.27805c0,1.5187 1.00452,2.60348 2.39855,2.60348c1.66052,0 2.82904,-1.95261 2.07053,-3.47131z"/>
      <g stroke="null" id="svg_58">
       <path stroke="null" id="svg_59" d="m785.20953,375.15871c-0.45101,-0.91122 -1.57853,-1.56209 -2.41904,-1.41022c-0.96353,0.17357 -2.05004,1.38853 -2.05004,2.27805c0,1.5187 1.00452,2.60348 2.39855,2.60348c1.66052,0 2.82904,-1.95261 2.07053,-3.47131z"/>
      </g>
      <path stroke="null" id="svg_57" d="m831.56839,432.62364c-37.89882,0 -39.20952,-0.02169 -39.24661,-0.39052l0.02473,1.69227l0,-0.5424l0,-0.54239l39.16005,0c21.52753,0 39.17243,-0.04339 39.20952,-0.10848c0.03709,-0.06508 -17.58307,-0.10848 -39.14769,-0.10848z"/>
      <path stroke="null" id="svg_56" d="m821.39431,375.88653c-35.94999,0 -37.1933,-0.0217 -37.22848,-0.39053l0.02345,1.69227l0,-0.54239l0,-0.54239l37.14638,0c20.42054,0 37.15811,-0.04339 37.1933,-0.10848c0.03518,-0.06508 -16.67893,-0.10848 -37.13466,-0.10848l0.00001,0z"/>
      <path stroke="null" id="svg_55" d="m812.87476,413.12026c-54.09008,0 -55.96074,-0.02169 -56.01367,-0.39052l0.03528,1.69227l0,-0.5424l0,-0.54239l55.89015,0c30.72459,0 55.9078,-0.04339 55.96075,-0.10848c0.05293,-0.06508 -25.09498,-0.10848 -55.87251,-0.10848z"/>
      <path stroke="null" id="svg_54" d="m829.05673,396.45373c-37.52798,0 -38.82586,-0.02169 -38.86258,-0.39052l0.02448,1.69227l0,-0.5424l0,-0.54239l38.77688,0c21.31688,0 38.78912,-0.04339 38.82586,-0.10848c0.03672,-0.06508 -17.41103,-0.10848 -38.76464,-0.10848z"/>
     </g>
     <g stroke="null" id="svg_41">
      <path stroke="null" id="svg_52" d="m782.34495,443.78456c-0.45101,-0.91123 -1.57853,-1.5621 -2.41904,-1.41023c-0.96353,0.17357 -2.05003,1.38853 -2.05003,2.27805c0,1.5187 1.00452,2.60348 2.39854,2.60348c1.66052,0 2.82905,-1.95261 2.07053,-3.4713z"/>
      <path stroke="null" id="svg_51" d="m752.15681,406.67224c-0.45101,-0.91122 -1.57853,-1.56209 -2.41904,-1.41022c-0.96353,0.17357 -2.05004,1.38853 -2.05004,2.27805c0,1.5187 1.00452,2.60348 2.39855,2.60348c1.66052,0 2.82904,-1.95261 2.07053,-3.47131z"/>
      <path stroke="null" id="svg_50" d="m826.51988,445.12849c-42.86373,0 -44.34613,-0.02169 -44.38808,-0.39053l0.02796,1.69228l0,-0.5424l0,-0.54239l44.2902,0c24.34773,0 44.30419,-0.04339 44.34614,-0.10848c0.04195,-0.06508 -19.88654,-0.10848 -44.27622,-0.10848z"/>
      <path stroke="null" id="svg_49" d="m786.73086,425.8023c-0.45101,-0.91122 -1.57853,-1.56209 -2.41904,-1.41022c-0.96352,0.17357 -2.05004,1.38853 -2.05004,2.27805c0,1.5187 1.00453,2.60348 2.39855,2.60348c1.66052,0 2.82904,-1.95261 2.07053,-3.47131z"/>
      <path stroke="null" id="svg_48" d="m784.9765,389.3992c-0.451,-0.91122 -1.57853,-1.56209 -2.41903,-1.41022c-0.96353,0.17357 -2.05004,1.38853 -2.05004,2.27805c0,1.5187 1.00452,2.60348 2.39855,2.60348c1.66051,0 2.82903,-1.95261 2.07052,-3.47131z"/>
      <g stroke="null" id="svg_46">
       <path stroke="null" id="svg_47" d="m779.27482,369.22399c-0.45101,-0.91122 -1.57853,-1.56209 -2.41904,-1.41022c-0.96353,0.17357 -2.05004,1.38853 -2.05004,2.27805c0,1.5187 1.00452,2.60348 2.39855,2.60348c1.66052,0 2.82904,-1.95261 2.07053,-3.47131z"/>
      </g>
      <path stroke="null" id="svg_45" d="m828.60477,426.68892c-40.76788,0 -42.17781,-0.02169 -42.2177,-0.39052l0.02659,1.69227l0,-0.5424l0,-0.54239l42.12461,0c23.15723,0 42.13791,-0.04339 42.17781,-0.10848c0.0399,-0.06508 -18.91418,-0.10848 -42.11131,-0.10848z"/>
      <path stroke="null" id="svg_44" d="m815.45959,369.95181c-35.94999,0 -37.1933,-0.02169 -37.22848,-0.39052l0.02345,1.69227l0,-0.5424l0,-0.54239l37.14638,0c20.42054,0 37.15811,-0.04339 37.1933,-0.10848c0.03518,-0.06508 -16.67893,-0.10848 -37.13465,-0.10848z"/>
      <path stroke="null" id="svg_43" d="m809.61403,407.18554c-56.67223,0 -58.6322,-0.02169 -58.68766,-0.39052l0.03697,1.69227l0,-0.5424l0,-0.54239l58.55824,0c32.19133,0 58.57674,-0.04339 58.63221,-0.10848c0.05546,-0.06508 -26.29296,-0.10848 -58.53976,-0.10848z"/>
      <path stroke="null" id="svg_42" d="m824.31045,390.51901c-38.6756,0 -40.01317,-0.02169 -40.05102,-0.39052l0.02523,1.69227l0,-0.5424l0,-0.54239l39.9627,0c21.96876,0 39.97532,-0.04339 40.01317,-0.10848c0.03785,-0.06508 -17.94346,-0.10848 -39.95008,-0.10848z"/>
     </g>
    </g>
   </g>
  </g>
 </g>
</svg>